<?xml version="1.0" encoding="utf-8"?>
<svg viewBox="0 0 2300 500" xmlns="http://www.w3.org/2000/svg" xmlns:xlink="http://www.w3.org/1999/xlink">
  <defs>
    <pattern x="0" y="0" width="25" height="25" patternUnits="userSpaceOnUse" viewBox="0 0 100 100" id="pattern-0">
      <rect width="100.221" height="25.453" style="fill: rgb(225, 244, 243);"/>
    </pattern>
    <pattern id="pattern-0-0" patternTransform="matrix(1, 0, 0, 1, 1126.60158, 254.288751)" xlink:href="#pattern-0"/>
  </defs>
  <rect x="-24.141" y="-29.979" width="2325.207" height="538.767" style="fill: rgb(255, 255, 255);"/>
  <rect x="-23.502" y="-2.595" width="2325.207" height="538.767" style="fill: url(#pattern-0-0); fill-opacity: 0.38;"/>
  <path d="M 383.297 103.869 L 519.02 103.778 L 519.02 178.064 C 520.377 178.135 521.38 178.57 521.38 178.57 L 521.38 182.457 C 521.636 182.355 522.429 182.076 523.516 182.076 C 524.542 182.076 525.377 182.357 525.648 182.458 L 525.648 180.605 C 525.648 180.605 526.621 180.145 528.083 180.145 C 529.458 180.145 530.521 180.605 530.521 180.605 L 530.521 181.943 C 530.816 181.825 531.672 181.532 532.842 181.532 C 533.822 181.532 534.642 181.765 535.033 181.898 L 535.033 180.847 C 535.033 180.847 536.068 180.359 537.624 180.359 C 539.086 180.359 540.216 180.847 540.216 180.847 L 540.216 198.329 L 627.767 198.329 L 627.767 176.655 C 627.767 176.655 628.96 176.091 630.755 176.091 C 632.442 176.091 633.743 176.655 633.743 176.655 L 633.743 179.126 C 634.164 178.976 635.044 178.721 636.195 178.721 C 637.732 178.721 638.919 179.236 638.919 179.236 L 638.919 198.329 L 692.978 198.329 L 692.978 179.189 C 692.978 179.189 694.013 178.702 695.569 178.702 C 697.032 178.702 698.161 179.189 698.161 179.189 L 698.161 180.438 C 698.599 180.296 699.373 180.101 700.355 180.101 C 701.359 180.101 702.208 180.332 702.639 180.475 L 702.639 179.867 C 702.639 179.867 703.674 179.378 705.23 179.378 C 706.692 179.378 707.821 179.867 707.821 179.867 L 707.821 180.511 C 708.276 180.376 708.988 180.221 709.865 180.221 C 710.672 180.221 711.379 180.371 711.849 180.502 L 711.849 179.867 C 711.849 179.867 712.883 179.378 714.438 179.378 C 715.9 179.378 717.031 179.867 717.031 179.867 L 717.031 180.379 C 717.283 180.273 718.23 179.92 719.554 179.92 C 720.559 179.92 721.406 180.151 721.839 180.294 L 721.839 179.278 C 721.839 179.278 722.905 178.776 724.507 178.776 C 726.013 178.776 727.176 179.278 727.176 179.278 L 727.176 180.184 C 727.472 180.064 728.395 179.74 729.664 179.74 C 730.774 179.74 731.691 180.02 732.069 180.156 L 732.069 179.807 C 732.069 179.807 733.105 179.318 734.659 179.318 C 736.123 179.318 737.251 179.807 737.251 179.807 L 737.251 198.329 L 795.743 198.329 L 795.743 201.497 L 519.02 201.497 L 519.02 242.229 L 636.964 242.229 L 636.964 222.096 C 636.964 222.096 637.943 221.93 639.625 221.788 C 639.351 221.2 639.197 220.543 639.197 219.85 C 639.197 217.323 641.246 215.273 643.773 215.273 C 644.071 215.273 644.362 215.301 644.644 215.357 C 644.643 215.322 644.643 215.288 644.643 215.254 C 644.643 214.698 644.828 214.186 645.141 213.776 C 644.113 213.109 643.433 211.951 643.433 210.633 C 643.433 208.564 645.11 206.888 647.178 206.888 C 649.247 206.888 650.923 208.564 650.923 210.633 C 650.923 212.006 650.185 213.206 649.083 213.858 C 649.359 214.255 649.523 214.735 649.523 215.254 C 649.523 216.366 648.777 217.306 647.759 217.6 C 648.135 218.263 648.35 219.032 648.35 219.85 C 648.35 220.502 648.214 221.123 647.968 221.684 C 650.489 221.835 652.172 222.096 652.172 222.096 L 652.172 242.229 L 667.096 242.229 C 666.977 241.838 666.738 240.902 666.738 239.673 C 666.738 238.134 667.161 236.978 667.161 236.978 L 669.302 236.978 C 669.198 236.616 669.028 235.876 669.028 234.926 C 669.028 233.646 669.381 232.682 669.381 232.682 L 669.401 232.682 C 669.299 232.282 669.178 231.629 669.178 230.828 C 669.178 229.755 669.425 228.906 669.505 228.657 L 668.642 228.657 C 668.642 228.657 668.266 227.668 668.266 226.222 C 668.266 224.862 668.642 223.84 668.642 223.84 L 670.482 223.84 C 670.427 223.738 670.179 223.247 670.179 222.564 C 670.179 221.839 670.493 221.293 670.493 221.293 L 691.361 221.293 C 691.361 221.293 691.631 221.907 691.631 222.621 C 691.631 223.21 691.418 223.733 691.37 223.84 L 693.638 223.84 C 693.638 223.84 693.961 224.991 693.961 226.329 C 693.961 227.572 693.638 228.657 693.638 228.657 L 693.098 228.657 C 693.165 228.922 693.383 229.862 693.383 230.929 C 693.383 232.098 693.079 233.122 693.079 233.122 L 693.03 233.122 C 693.119 233.552 693.232 234.258 693.232 235.028 C 693.232 235.854 693.081 236.605 692.992 236.978 L 695.437 236.978 C 695.437 236.978 695.802 238.28 695.802 239.795 C 695.802 240.86 695.593 241.826 695.491 242.229 L 705.455 242.229 L 705.455 218.423 L 742.329 218.423 L 742.329 242.229 L 795.743 242.229 L 795.743 245.397 L 519.02 245.397 L 519.02 286.13 L 536.236 286.13 L 536.701 275.599 L 537.219 263.844 C 537.219 263.844 538.08 263.292 539.335 263.348 C 540.514 263.4 541.398 264.029 541.398 264.029 L 541.387 264.274 C 541.622 264.224 541.885 264.193 542.171 264.193 C 542.593 264.193 542.977 264.272 543.293 264.37 L 543.293 263.883 C 543.293 263.883 544.091 263.319 545.294 263.319 C 546.424 263.319 547.295 263.883 547.295 263.883 L 547.295 264.253 C 547.646 264.096 548.195 263.916 548.874 263.916 C 549.876 263.916 550.675 264.36 550.843 264.46 C 551.177 264.305 551.803 264.079 552.6 264.109 C 553.728 264.15 554.579 264.744 554.579 264.744 L 554.516 266.488 C 554.745 266.432 555.008 266.396 555.297 266.396 C 556.294 266.396 557.063 266.894 557.063 266.894 L 557.063 286.13 L 585.841 286.13 L 584.345 284.455 L 586.462 281.451 L 584.847 280.335 L 587.54 278.371 L 586.308 275.869 L 589.504 274.943 L 588.889 273.713 L 590.544 272.287 L 592.892 268.669 L 594.663 272.98 L 596.089 274.905 L 596.203 277.216 L 598.9 278.562 C 598.9 278.562 598.09 281.066 598.09 281.105 C 598.09 281.143 599.631 283.723 599.631 283.723 L 599.269 286.13 L 620.546 286.13 C 620.469 285.769 620.381 285.213 620.381 284.539 C 620.381 283.735 620.522 283.072 620.604 282.748 L 619.867 282.748 C 619.867 282.748 619.559 281.916 619.559 280.699 C 619.559 279.555 619.867 278.693 619.867 278.693 L 620.444 278.693 C 620.389 278.358 620.343 277.933 620.343 277.444 C 620.343 276.491 620.541 275.734 620.606 275.508 C 620.541 275.29 620.343 274.542 620.343 273.526 C 620.343 272.381 620.626 271.52 620.626 271.52 L 620.851 271.52 C 620.768 271.169 620.657 270.56 620.657 269.801 C 620.657 268.658 620.94 267.795 620.94 267.795 L 639.904 267.795 C 639.904 267.795 640.148 268.765 640.148 269.891 C 640.148 270.936 639.904 271.849 639.904 271.849 L 639.66 271.849 C 639.734 272.227 639.834 272.889 639.834 273.617 C 639.834 274.493 639.661 275.281 639.607 275.507 C 639.661 275.747 639.835 276.585 639.835 277.536 C 639.835 277.96 639.795 278.365 639.746 278.693 L 640.354 278.693 C 640.354 278.693 640.619 279.662 640.619 280.789 C 640.619 281.832 640.354 282.748 640.354 282.748 L 639.676 282.748 C 639.747 283.094 639.872 283.821 639.872 284.628 C 639.872 285.218 639.796 285.764 639.727 286.13 L 657.347 286.13 L 657.347 252.912 L 684.752 252.912 L 684.752 286.13 L 724.954 286.13 L 724.954 267.207 L 721.812 267.207 L 732.02 256.354 L 742.227 267.207 L 739.132 267.207 L 739.132 286.13 L 795.743 286.13 L 795.743 289.297 L 519.02 289.297 L 519.02 310.625 C 519.368 310.675 519.671 310.761 519.907 310.843 L 519.907 308.239 C 519.907 308.239 521.277 307.678 523.342 307.678 C 524.986 307.678 526.313 308.082 526.678 308.205 C 526.944 308.05 527.36 307.875 527.871 307.875 C 528.605 307.875 529.196 308.285 529.353 308.403 C 529.577 308.242 530.078 307.945 530.747 307.945 C 531.438 307.945 532.003 308.308 532.197 308.45 C 532.378 308.308 532.915 307.945 533.651 307.945 C 534.51 307.945 535.175 308.505 535.175 308.505 L 535.175 308.564 C 535.403 308.401 535.901 308.112 536.56 308.112 C 537.084 308.112 537.535 308.322 537.807 308.485 L 537.807 308.272 C 537.807 308.272 538.414 307.712 539.33 307.712 C 540.188 307.712 540.852 308.272 540.852 308.272 L 540.852 308.982 C 541.116 308.845 541.491 308.713 541.936 308.713 C 542.331 308.713 542.685 308.831 542.952 308.96 L 542.952 308.038 C 542.952 308.038 543.557 307.477 544.474 307.477 C 545.333 307.477 545.995 308.038 545.995 308.038 L 545.995 308.618 C 546.248 308.452 546.714 308.212 547.313 308.212 C 547.969 308.212 548.512 308.539 548.73 308.695 L 548.73 308.505 C 548.73 308.505 549.337 307.945 550.253 307.945 C 550.949 307.945 551.517 308.313 551.707 308.452 C 551.959 308.287 552.425 308.046 553.025 308.046 C 553.622 308.046 554.123 308.316 554.374 308.481 L 554.374 308.339 C 554.374 308.339 555.342 307.778 556.799 307.778 C 558.166 307.778 559.223 308.339 559.223 308.339 L 559.223 308.436 C 559.489 308.281 559.904 308.106 560.415 308.106 C 561.274 308.106 561.938 308.666 561.938 308.666 L 561.938 308.762 C 561.995 308.711 562.586 308.205 563.456 308.205 C 564.017 308.205 564.494 308.444 564.758 308.609 C 564.975 308.452 565.486 308.14 566.168 308.14 C 567.027 308.14 567.691 308.7 567.691 308.7 L 567.691 308.703 C 567.93 308.536 568.414 308.271 569.046 308.271 C 569.644 308.271 570.148 308.543 570.398 308.71 L 570.398 307.611 C 570.398 307.611 571.005 307.028 571.92 307.028 C 572.779 307.028 573.442 307.611 573.442 307.611 L 573.442 308.691 C 573.67 308.529 574.17 308.238 574.829 308.238 C 575.688 308.238 576.351 308.799 576.351 308.799 L 576.351 330.031 L 592.129 330.031 L 592.876 314.787 L 591.989 307.803 L 585.737 305.2 L 586.258 303.167 C 586.258 303.167 597.305 302.54 597.305 302.698 C 597.305 302.854 596.471 310.201 596.471 310.201 L 607.466 313.172 L 610.592 318.122 C 610.592 318.122 610.592 326.386 610.592 330.031 L 628.979 330.031 C 628.911 329.853 628.638 329.083 628.638 328.02 C 628.638 327.249 628.8 326.605 628.906 326.268 L 628.684 326.268 C 628.684 326.268 628.377 325.436 628.377 324.219 C 628.377 323.5 628.499 322.895 628.59 322.541 L 628.013 322.541 C 628.013 322.541 627.705 321.71 627.705 320.493 C 627.705 319.349 628.013 318.488 628.013 318.488 L 628.327 318.488 C 628.245 318.125 628.154 317.578 628.154 316.916 C 628.154 316.145 628.293 315.501 628.385 315.164 L 627.865 315.164 C 627.865 315.164 627.556 314.332 627.556 313.116 C 627.556 311.971 627.865 311.11 627.865 311.11 L 648.349 311.11 C 648.349 311.11 648.614 312.08 648.614 313.206 C 648.614 313.916 648.49 314.568 648.412 314.911 L 648.945 314.911 C 648.945 314.911 649.21 315.88 649.21 317.007 C 649.21 318.05 648.945 318.965 648.945 318.965 L 648.603 318.965 C 648.677 319.354 648.761 319.944 648.761 320.583 C 648.761 321.246 648.655 321.856 648.577 322.214 L 649.168 322.214 C 649.168 322.214 649.434 323.183 649.434 324.31 C 649.434 325.021 649.31 325.671 649.232 326.014 L 652.668 326.014 C 652.668 326.014 652.973 326.984 652.973 328.11 C 652.973 329.029 652.738 329.847 652.68 330.031 L 656.645 330.031 L 656.645 315.737 L 666.09 315.737 L 666.09 330.031 L 673.681 330.031 L 673.681 319.76 L 669.616 319.76 L 669.616 314.471 L 672.527 314.471 C 671.656 313.706 671.106 312.582 671.106 311.329 C 671.106 309.021 672.978 307.149 675.286 307.149 C 677.595 307.149 679.466 309.021 679.466 311.329 C 679.466 312.582 678.916 313.706 678.044 314.471 L 681.004 314.471 L 681.004 319.76 L 677.117 319.76 L 677.117 330.031 L 748.687 330.031 C 750.172 329.37 752.156 328.321 752.44 327.324 C 752.902 325.703 752.717 320.197 752.717 320.197 C 752.717 320.197 745.313 320.521 743.738 316.403 C 742.163 312.283 745.126 309.923 745.126 309.923 C 745.126 309.923 737.861 307.193 738.461 304.323 C 739.063 301.454 740.081 300.943 740.081 300.943 C 740.081 300.943 738.878 297.103 745.081 294.649 C 751.282 292.198 753.505 295.251 753.505 295.251 C 753.505 295.251 756.745 289.975 762.067 292.289 C 767.388 294.604 763.872 301.406 763.872 301.406 C 763.872 301.406 769.563 305.802 769.472 310.432 C 769.38 315.061 759.288 317.05 759.288 317.05 C 759.288 317.05 757.114 324.038 758.549 325.891 C 759.449 327.052 762.08 328.851 763.914 330.031 L 795.743 330.031 L 795.743 333.198 L 519.02 333.198 L 519.02 363.541 C 520.305 363.227 521.462 364.503 521.462 364.503 L 530.589 364.539 L 530.664 359.39 L 535.592 359.319 L 535.483 368.374 C 535.483 368.374 538.148 369.724 538.257 372.023 C 538.292 372.749 538.289 373.391 538.271 373.93 L 549.484 373.93 L 547.691 339.206 L 576.319 337.73 L 578.188 373.93 L 594.948 373.93 L 594.948 359.57 L 630.993 359.57 L 630.993 373.93 L 732.127 373.93 C 729.848 372.894 728.263 370.597 728.263 367.931 C 728.263 364.345 731.127 361.43 734.693 361.345 C 734.135 360.599 733.806 359.672 733.806 358.668 C 733.806 356.191 735.814 354.181 738.292 354.181 C 738.691 354.181 739.076 354.234 739.443 354.331 C 739.074 353.728 738.863 353.017 738.863 352.258 C 738.863 350.514 739.982 349.032 741.542 348.491 C 740.869 347.658 740.464 346.597 740.464 345.443 C 740.464 342.768 742.632 340.6 745.308 340.6 C 747.982 340.6 750.149 342.768 750.149 345.443 C 750.149 346.412 749.866 347.314 749.376 348.072 C 749.877 347.887 750.417 347.787 750.981 347.787 C 751.336 347.787 751.68 347.827 752.011 347.902 C 751.316 347.064 750.897 345.987 750.897 344.811 C 750.897 342.138 753.066 339.969 755.741 339.969 C 758.415 339.969 760.583 342.138 760.583 344.811 C 760.583 346.457 759.764 347.912 758.51 348.787 C 759.967 348.847 761.226 349.668 761.902 350.864 C 762.173 348.585 764.113 346.817 766.465 346.817 C 768.822 346.817 770.765 348.592 771.028 350.879 C 771.752 350.307 772.665 349.964 773.659 349.964 C 776 349.964 777.896 351.862 777.896 354.202 C 777.896 354.93 777.712 355.615 777.39 356.214 C 777.443 356.212 777.495 356.211 777.548 356.211 C 779.888 356.211 781.785 358.109 781.785 360.449 C 781.785 361.754 781.196 362.92 780.268 363.697 C 782.654 364.419 784.39 366.634 784.39 369.253 C 784.39 371.173 783.46 372.874 782.025 373.93 L 795.743 373.93 L 795.743 377.099 L 519.02 377.099 L 519.02 449.282 L 514.069 449.371 L 383.297 449.371 L 383.297 103.869 Z M 755.134 350.325 C 755.332 350.076 755.558 349.852 755.81 349.656 C 755.787 349.656 755.765 349.656 755.741 349.656 C 755.352 349.656 754.974 349.61 754.612 349.523 C 754.812 349.771 754.987 350.039 755.134 350.325 Z M 766.559 356.004 C 767.321 356.69 767.877 357.6 768.125 358.63 C 768.731 357.843 769.682 357.336 770.752 357.336 C 770.77 357.336 770.787 357.336 770.805 357.336 C 770.114 356.704 769.63 355.848 769.474 354.882 C 768.691 355.562 767.674 355.982 766.559 356.004 Z M 773.587 358.936 C 773.654 358.765 773.73 358.598 773.816 358.438 C 773.765 358.439 773.712 358.44 773.659 358.44 C 773.503 358.44 773.349 358.432 773.198 358.416 C 773.344 358.576 773.475 358.751 773.587 358.936 Z M 761.948 354.809 C 762.319 354.723 762.707 354.679 763.105 354.679 C 763.149 354.679 763.194 354.679 763.237 354.681 C 762.895 354.342 762.605 353.95 762.382 353.519 C 762.308 353.979 762.159 354.413 761.948 354.809 Z M 754.217 355.811 C 754.405 355.786 754.597 355.775 754.791 355.775 C 755.032 355.775 755.268 355.793 755.499 355.829 C 755.255 355.596 755.04 355.332 754.86 355.043 C 754.674 355.322 754.458 355.578 754.217 355.811 Z M 758.426 357.655 C 758.543 357.406 758.679 357.168 758.831 356.942 C 758.669 356.962 758.504 356.972 758.336 356.972 C 758.151 356.972 757.969 356.96 757.792 356.937 C 758.027 357.152 758.241 357.393 758.426 357.655 Z M 742.559 357.277 C 742.892 356.829 743.306 356.442 743.775 356.138 C 743.478 356.209 743.168 356.247 742.85 356.247 C 742.563 356.247 742.282 356.216 742.011 356.157 C 742.243 356.5 742.428 356.876 742.559 357.277 Z M 746.304 355.394 C 746.715 355.394 747.113 355.447 747.493 355.546 C 747.054 355.052 746.719 354.465 746.521 353.818 C 746.221 354.522 745.726 355.123 745.102 355.549 C 745.485 355.448 745.889 355.394 746.304 355.394 Z M 747.033 349.969 C 746.786 350.064 746.527 350.139 746.261 350.191 C 746.393 350.408 746.503 350.636 746.591 350.875 C 746.706 350.555 746.854 350.252 747.033 349.969 Z M 740.863 365.237 C 741.347 364.403 742.02 363.692 742.821 363.159 C 742.378 362.662 742.039 362.068 741.841 361.413 C 741.211 362.226 740.308 362.817 739.271 363.047 C 739.942 363.656 740.486 364.4 740.863 365.237 Z M 751.753 365.32 C 752.076 364.912 752.451 364.551 752.868 364.242 C 751.843 363.75 751.037 362.877 750.629 361.806 C 750.424 362.313 750.132 362.774 749.773 363.175 C 750.59 363.723 751.27 364.458 751.753 365.32 Z M 751.656 357.067 C 751.435 357.099 751.211 357.116 750.981 357.116 C 750.572 357.116 750.173 357.062 749.793 356.962 C 750.184 357.403 750.493 357.917 750.694 358.482 C 750.921 357.949 751.25 357.469 751.656 357.067 Z M 761.473 365.985 C 761.614 365.601 761.789 365.233 761.994 364.885 C 760.569 364.573 759.364 363.673 758.649 362.45 C 758.47 362.762 758.252 363.049 758.004 363.306 C 759.476 363.725 760.712 364.699 761.473 365.985 Z M 773.792 365.979 C 774.277 365.271 774.914 364.676 775.656 364.242 C 774.786 363.806 774.084 363.08 773.683 362.189 C 773.366 362.789 772.871 363.279 772.269 363.591 C 772.938 364.259 773.462 365.073 773.792 365.979 Z M 770.854 373.93 L 775.146 373.93 C 774.329 373.329 773.676 372.518 773.264 371.576 C 772.681 372.555 771.848 373.369 770.854 373.93 Z M 759.634 373.93 L 764.414 373.93 C 763.32 373.313 762.424 372.39 761.837 371.278 C 761.381 372.366 760.608 373.288 759.634 373.93 Z M 749.202 373.93 L 753.134 373.93 C 752.41 373.452 751.798 372.821 751.344 372.081 C 750.782 372.849 750.05 373.484 749.202 373.93 Z M 737.574 373.93 L 743.367 373.93 C 742.178 373.304 741.215 372.306 740.631 371.091 C 739.947 372.338 738.875 373.34 737.574 373.93 Z M 762.941 251.824 L 776.95 251.824 L 776.95 269.307 L 762.941 269.307 L 762.941 251.824 Z M 605.017 321.612 L 598.087 321.405 L 598.438 330.031 L 605.65 330.031 L 605.017 321.612 Z M 878.711 110.333 L 1135.805 110.333 L 1135.805 250.063 L 1120.456 250.063 L 1119.031 253.504 L 1121.831 255.331 C 1121.831 255.331 1118.909 257.278 1118.909 257.4 C 1118.909 257.522 1123.17 260.078 1123.17 260.078 C 1123.17 260.078 1117.814 261.175 1118.056 261.54 C 1118.3 261.905 1122.684 266.653 1122.684 266.653 C 1122.684 266.653 1115.5 265.07 1115.5 265.313 C 1115.5 265.556 1120.127 270.548 1120.127 270.548 C 1120.127 270.548 1110.144 267.504 1110.022 267.504 C 1109.9 267.504 1114.648 273.714 1114.648 273.714 C 1114.648 273.714 1110.266 273.35 1110.387 274.08 C 1110.509 274.81 1111.362 278.585 1111.362 278.585 L 1099.308 277.975 L 1098.212 280.775 L 1101.835 297.545 L 1138.347 297.545 L 1138.347 309.232 L 1133.052 309.232 L 1133.052 428.32 L 845.108 428.32 L 845.108 309.232 L 839.514 309.232 L 839.514 297.545 L 968.587 297.545 L 968.587 294.224 L 978.928 294.224 L 978.928 297.545 L 986.41 297.545 L 986.41 256.066 L 995.577 256.066 L 995.577 297.545 L 1004.993 297.545 L 1004.993 295.193 L 1014.902 295.193 L 1014.902 297.545 L 1022.011 297.545 L 1022.011 287.545 L 1029.872 287.545 L 1029.872 297.545 L 1082.821 297.545 L 1084.21 280.653 L 1090.541 280.898 L 1080.437 275.907 L 1075.202 278.585 L 1075.687 273.35 L 1063.88 272.011 L 1067.166 269.697 L 1058.034 268.599 L 1061.687 263 L 1062.54 257.887 L 1075.931 268.48 L 1066.923 258.74 L 1070.819 253.869 L 1074.471 259.226 L 1079.099 257.643 L 1076.663 253.991 L 1082.507 252.895 L 1081.903 250.063 L 1041.232 250.063 L 1041.232 211.084 L 964.338 211.084 L 964.338 249.85 L 878.711 249.85 L 878.711 110.333 Z M 840.134 263.746 L 863.339 263.746 L 863.339 278.197 L 840.134 278.197 L 840.134 263.746 Z M 39.71 188.075 L 135.04 188.075 L 135.04 127.068 L 185.972 127.068 L 185.972 188.075 L 195.904 188.075 L 195.904 127.703 L 246.838 127.703 L 246.838 188.075 L 270.88 188.075 L 270.88 195.128 L 39.71 195.128 L 39.71 188.075 Z M 169.641 244.606 L 189.149 244.606 C 186.311 241.794 184.553 237.893 184.553 233.581 C 184.553 228.637 186.864 224.233 190.465 221.39 C 188.628 220.265 184.755 217.432 184.713 213.508 C 184.659 208.362 189.591 207.289 189.591 207.289 L 192.111 209.488 L 191.736 206.057 C 191.736 206.057 193.022 204.019 199.724 203.162 C 206.424 202.304 209.748 204.181 212.535 206.325 C 215.323 208.47 217.736 211.203 216.985 214.849 C 216.235 218.495 212.481 218.654 212.481 218.654 C 212.481 218.654 210.016 213.562 207.014 215.062 C 205.447 215.847 205.165 217.522 205.254 218.945 C 211.28 221.078 215.595 226.824 215.595 233.581 C 215.595 237.893 213.837 241.794 210.999 244.606 L 237.963 244.606 L 234.74 240.635 L 238.46 234.226 C 238.46 234.226 235.083 232.297 235.497 228.851 C 235.911 225.408 236.806 223.271 241.424 222.65 C 246.041 222.031 255.962 220.308 260.096 223.478 C 264.23 226.647 259.683 232.848 259.683 232.848 L 263.611 239.602 L 260.579 244.606 L 269.772 244.606 L 269.772 251.66 L 169.641 251.66 L 169.641 244.606 Z M 28.525 326.149 L 58.185 326.149 L 58.214 324.08 L 61.496 322.746 L 68.786 322.848 L 69.402 313.661 C 69.402 313.661 53.799 292.154 53.695 292.205 C 53.592 292.256 57.904 286.405 57.904 286.405 L 73.456 264.795 L 79.051 267.67 L 82.181 272.289 C 82.181 272.289 87.316 272.288 89.933 275.265 C 92.551 278.243 92.961 280.706 92.961 280.706 C 92.961 280.706 92.293 284.607 86.288 286.866 C 80.283 289.126 77.563 287.943 77.563 287.943 C 77.563 287.943 75.869 285.171 75.099 282.196 C 74.33 279.218 77.153 274.805 77.153 274.805 L 75.253 269.465 L 60.214 292.871 L 73.713 310.991 L 73.354 313.351 L 74.123 315.405 L 71.507 316.997 L 71.454 322.642 L 78.384 322.591 L 81.361 323.977 L 81.361 326.149 L 106.297 326.149 L 106.297 297.618 L 146.874 297.618 L 146.874 326.149 L 230.772 326.149 C 230.262 324.219 229.724 321.389 229.659 318.051 C 229.537 311.716 231.06 306.722 231.06 306.722 L 233.009 305.748 L 231.364 300.631 C 231.364 300.631 225.396 302.338 225.396 302.399 C 225.396 302.459 222.471 306.298 222.471 306.298 L 223.019 301.789 L 227.161 299.353 L 228.989 295.577 L 227.527 292.228 L 222.471 288.695 L 218.085 284.796 L 215.772 280.411 L 218.025 282.604 L 221.072 284.43 L 224.177 288.329 L 230.634 289.608 L 234.044 291.192 L 231.79 283.517 L 236.055 289.365 C 236.055 289.365 237.332 292.228 237.332 292.166 C 237.332 292.105 238.064 288.451 238.064 288.451 L 242.023 286.014 L 240.074 291.071 L 239.16 294.724 L 241.535 295.333 L 240.257 296.49 L 240.745 302.031 L 242.51 305.808 L 245.799 298.196 L 243.728 291.679 L 245.069 286.197 L 245.19 278.462 L 247.384 271.518 L 243.364 268.473 L 249.454 257.145 L 245.799 267.558 L 248.723 269.57 L 252.925 267.742 L 249.393 271.215 L 246.773 277.244 L 246.043 290.095 C 246.043 290.095 247.566 297.649 247.566 297.709 C 247.566 297.769 253.96 290.399 253.96 290.399 L 253.351 281.629 L 255.972 276.512 L 256.031 267.864 L 254.63 259.826 L 257.189 264.452 L 258.285 275.721 L 255.239 281.385 L 255.544 286.197 L 260.416 284.796 L 265.412 280.593 L 261.939 285.771 L 256.457 288.573 L 255.787 291.192 L 260.416 290.643 L 255.605 292.349 L 252.316 296.429 L 250.916 302.275 L 247.992 307.088 C 247.992 307.088 249.942 311.778 249.881 318.357 C 249.849 321.739 249.464 324.381 249.095 326.149 L 283.822 326.149 L 283.822 343.69 L 281.708 343.69 L 281.708 423.365 L 278.961 423.365 L 278.961 433.719 L 273.466 433.719 L 273.466 423.365 L 229.084 423.365 L 229.084 433.72 L 223.379 433.72 L 223.379 423.365 L 217.462 423.365 L 217.462 343.69 L 28.525 343.69 L 28.525 326.149 Z M 75.865 368.418 L 86.433 368.418 L 86.433 384.267 L 75.865 384.267 L 75.865 368.418 Z M 46.277 382.788 L 72.695 382.788 L 72.695 418.927 L 46.277 418.927 L 46.277 382.788 Z M 342.597 223.979 L 364.729 223.979 L 364.729 254.624 L 342.597 254.624 L 342.597 223.979 Z M 296.539 245.914 L 329.84 245.914 L 329.84 292.654 L 296.539 292.654 L 296.539 245.914 Z M 337.345 263.826 L 370.647 263.826 L 370.647 310.567 L 337.345 310.567 L 337.345 263.826 Z" style="fill: rgb(225, 244, 243);"/>
  <rect x="-41.934" y="-80.799" width="2472.035" height="191.213" style="fill: rgb(225, 244, 243);"/>
  <rect x="-24.996" y="425.232" width="2472.035" height="129.546" style="fill: rgb(225, 244, 243);"/>
  <path d="M 1537.299 101.204 L 1673.024 101.114 L 1673.024 175.4 C 1674.38 175.469 1675.382 175.906 1675.382 175.906 L 1675.382 179.793 C 1675.639 179.69 1676.431 179.411 1677.518 179.411 C 1678.545 179.411 1679.38 179.691 1679.652 179.794 L 1679.652 177.939 C 1679.652 177.939 1680.623 177.48 1682.085 177.48 C 1683.461 177.48 1684.523 177.939 1684.523 177.939 L 1684.523 179.277 C 1684.818 179.159 1685.674 178.866 1686.845 178.866 C 1687.824 178.866 1688.644 179.099 1689.036 179.234 L 1689.036 178.181 C 1689.036 178.181 1690.07 177.694 1691.626 177.694 C 1693.088 177.694 1694.218 178.181 1694.218 178.181 L 1694.218 195.663 L 1781.769 195.663 L 1781.769 173.99 C 1781.769 173.99 1782.963 173.426 1784.757 173.426 C 1786.444 173.426 1787.745 173.99 1787.745 173.99 L 1787.745 176.461 C 1788.167 176.31 1789.047 176.056 1790.197 176.056 C 1791.735 176.056 1792.921 176.57 1792.921 176.57 L 1792.921 195.663 L 1846.981 195.663 L 1846.981 176.524 C 1846.981 176.524 1848.016 176.036 1849.571 176.036 C 1851.034 176.036 1852.163 176.524 1852.163 176.524 L 1852.163 177.773 C 1852.601 177.631 1853.376 177.435 1854.357 177.435 C 1855.362 177.435 1856.21 177.667 1856.642 177.811 L 1856.642 177.201 C 1856.642 177.201 1857.677 176.714 1859.232 176.714 C 1860.694 176.714 1861.823 177.201 1861.823 177.201 L 1861.823 177.847 C 1862.278 177.711 1862.991 177.556 1863.868 177.556 C 1864.675 177.556 1865.382 177.705 1865.852 177.838 L 1865.852 177.201 C 1865.852 177.201 1866.886 176.714 1868.441 176.714 C 1869.903 176.714 1871.034 177.201 1871.034 177.201 L 1871.034 177.714 C 1871.286 177.609 1872.232 177.255 1873.557 177.255 C 1874.561 177.255 1875.409 177.486 1875.841 177.629 L 1875.841 176.613 C 1875.841 176.613 1876.907 176.111 1878.509 176.111 C 1880.015 176.111 1881.178 176.613 1881.178 176.613 L 1881.178 177.519 C 1881.475 177.399 1882.397 177.075 1883.667 177.075 C 1884.776 177.075 1885.693 177.355 1886.072 177.491 L 1886.072 177.141 C 1886.072 177.141 1887.107 176.653 1888.663 176.653 C 1890.125 176.653 1891.253 177.141 1891.253 177.141 L 1891.253 195.663 L 1949.745 195.663 L 1949.745 198.833 L 1673.024 198.833 L 1673.024 239.564 L 1790.967 239.564 L 1790.967 219.431 C 1790.967 219.431 1791.945 219.266 1793.628 219.122 C 1793.353 218.534 1793.199 217.878 1793.199 217.185 C 1793.199 214.658 1795.248 212.608 1797.775 212.608 C 1798.073 212.608 1798.365 212.637 1798.647 212.692 C 1798.646 212.658 1798.646 212.624 1798.646 212.589 C 1798.646 212.033 1798.831 211.522 1799.143 211.111 C 1798.117 210.444 1797.436 209.286 1797.436 207.969 C 1797.436 205.899 1799.112 204.222 1801.182 204.222 C 1803.249 204.222 1804.926 205.899 1804.926 207.969 C 1804.926 209.341 1804.189 210.541 1803.087 211.193 C 1803.362 211.59 1803.525 212.071 1803.525 212.589 C 1803.525 213.702 1802.78 214.64 1801.761 214.934 C 1802.137 215.598 1802.352 216.367 1802.352 217.185 C 1802.352 217.838 1802.216 218.459 1801.971 219.02 C 1804.492 219.17 1806.175 219.431 1806.175 219.431 L 1806.175 239.564 L 1821.098 239.564 C 1820.979 239.174 1820.741 238.237 1820.741 237.008 C 1820.741 235.469 1821.164 234.313 1821.164 234.313 L 1823.305 234.313 C 1823.2 233.951 1823.03 233.211 1823.03 232.262 C 1823.03 230.981 1823.383 230.018 1823.383 230.018 L 1823.403 230.018 C 1823.302 229.616 1823.18 228.964 1823.18 228.162 C 1823.18 227.089 1823.427 226.241 1823.508 225.991 L 1822.644 225.991 C 1822.644 225.991 1822.268 225.003 1822.268 223.556 C 1822.268 222.197 1822.644 221.175 1822.644 221.175 L 1824.484 221.175 C 1824.43 221.073 1824.181 220.581 1824.181 219.898 C 1824.181 219.174 1824.496 218.628 1824.496 218.628 L 1845.365 218.628 C 1845.365 218.628 1845.635 219.242 1845.635 219.955 C 1845.635 220.545 1845.42 221.068 1845.372 221.175 L 1847.64 221.175 C 1847.64 221.175 1847.963 222.327 1847.963 223.665 C 1847.963 224.907 1847.64 225.991 1847.64 225.991 L 1847.1 225.991 C 1847.167 226.256 1847.385 227.197 1847.385 228.264 C 1847.385 229.434 1847.081 230.456 1847.081 230.456 L 1847.033 230.456 C 1847.122 230.888 1847.235 231.593 1847.235 232.363 C 1847.235 233.188 1847.083 233.941 1846.995 234.313 L 1849.44 234.313 C 1849.44 234.313 1849.804 235.615 1849.804 237.13 C 1849.804 238.195 1849.595 239.161 1849.494 239.564 L 1859.457 239.564 L 1859.457 215.758 L 1896.332 215.758 L 1896.332 239.564 L 1949.745 239.564 L 1949.745 242.732 L 1673.024 242.732 L 1673.024 283.465 L 1690.239 283.465 L 1690.704 272.934 L 1691.223 261.179 C 1691.223 261.179 1692.084 260.627 1693.337 260.684 C 1694.516 260.735 1695.401 261.364 1695.401 261.364 L 1695.39 261.609 C 1695.625 261.559 1695.888 261.528 1696.173 261.528 C 1696.595 261.528 1696.979 261.607 1697.295 261.704 L 1697.295 261.219 C 1697.295 261.219 1698.094 260.655 1699.297 260.655 C 1700.426 260.655 1701.298 261.219 1701.298 261.219 L 1701.298 261.587 C 1701.648 261.431 1702.198 261.252 1702.878 261.252 C 1703.878 261.252 1704.677 261.695 1704.845 261.795 C 1705.179 261.64 1705.805 261.414 1706.602 261.443 C 1707.73 261.486 1708.581 262.08 1708.581 262.08 L 1708.518 263.822 C 1708.747 263.768 1709.01 263.731 1709.3 263.731 C 1710.297 263.731 1711.065 264.229 1711.065 264.229 L 1711.065 283.465 L 1739.844 283.465 L 1738.348 281.79 L 1740.465 278.786 L 1738.849 277.669 L 1741.543 275.705 L 1740.311 273.204 L 1743.506 272.279 L 1742.892 271.047 L 1744.547 269.622 L 1746.894 266.004 L 1748.667 270.316 L 1750.093 272.241 L 1750.205 274.55 L 1752.902 275.898 C 1752.902 275.898 1752.093 278.402 1752.093 278.44 C 1752.093 278.477 1753.635 281.057 1753.635 281.057 L 1753.271 283.465 L 1774.548 283.465 C 1774.471 283.104 1774.384 282.547 1774.384 281.874 C 1774.384 281.071 1774.524 280.406 1774.606 280.082 L 1773.869 280.082 C 1773.869 280.082 1773.562 279.25 1773.562 278.034 C 1773.562 276.89 1773.869 276.028 1773.869 276.028 L 1774.447 276.028 C 1774.393 275.693 1774.346 275.267 1774.346 274.78 C 1774.346 273.826 1774.543 273.069 1774.608 272.844 C 1774.543 272.625 1774.346 271.876 1774.346 270.861 C 1774.346 269.716 1774.63 268.855 1774.63 268.855 L 1774.853 268.855 C 1774.77 268.504 1774.661 267.895 1774.661 267.136 C 1774.661 265.992 1774.943 265.131 1774.943 265.131 L 1793.906 265.131 C 1793.906 265.131 1794.15 266.1 1794.15 267.226 C 1794.15 268.271 1793.906 269.184 1793.906 269.184 L 1793.662 269.184 C 1793.736 269.563 1793.837 270.224 1793.837 270.951 C 1793.837 271.828 1793.663 272.615 1793.609 272.843 C 1793.663 273.083 1793.838 273.921 1793.838 274.871 C 1793.838 275.295 1793.797 275.7 1793.749 276.028 L 1794.356 276.028 C 1794.356 276.028 1794.621 276.998 1794.621 278.124 C 1794.621 279.168 1794.356 280.082 1794.356 280.082 L 1793.679 280.082 C 1793.75 280.429 1793.874 281.156 1793.874 281.964 C 1793.874 282.552 1793.798 283.099 1793.73 283.465 L 1811.351 283.465 L 1811.351 250.247 L 1838.754 250.247 L 1838.754 283.465 L 1878.956 283.465 L 1878.956 264.543 L 1875.815 264.543 L 1886.022 253.689 L 1896.229 264.543 L 1893.135 264.543 L 1893.135 283.465 L 1949.745 283.465 L 1949.745 286.633 L 1673.024 286.633 L 1673.024 307.96 C 1673.37 308.01 1673.674 308.095 1673.909 308.178 L 1673.909 305.574 C 1673.909 305.574 1675.279 305.013 1677.344 305.013 C 1678.988 305.013 1680.315 305.417 1680.68 305.539 C 1680.946 305.385 1681.362 305.209 1681.874 305.209 C 1682.607 305.209 1683.198 305.619 1683.355 305.738 C 1683.58 305.577 1684.082 305.28 1684.749 305.28 C 1685.441 305.28 1686.006 305.643 1686.2 305.785 C 1686.38 305.643 1686.917 305.28 1687.655 305.28 C 1688.514 305.28 1689.177 305.84 1689.177 305.84 L 1689.177 305.899 C 1689.406 305.737 1689.904 305.447 1690.562 305.447 C 1691.086 305.447 1691.538 305.657 1691.81 305.82 L 1691.81 305.607 C 1691.81 305.607 1692.416 305.047 1693.333 305.047 C 1694.19 305.047 1694.855 305.607 1694.855 305.607 L 1694.855 306.317 C 1695.12 306.18 1695.493 306.048 1695.939 306.048 C 1696.334 306.048 1696.687 306.166 1696.954 306.295 L 1696.954 305.374 C 1696.954 305.374 1697.559 304.812 1698.477 304.812 C 1699.335 304.812 1699.997 305.374 1699.997 305.374 L 1699.997 305.953 C 1700.25 305.787 1700.716 305.547 1701.315 305.547 C 1701.971 305.547 1702.514 305.874 1702.733 306.03 L 1702.733 305.84 C 1702.733 305.84 1703.339 305.28 1704.256 305.28 C 1704.951 305.28 1705.519 305.649 1705.709 305.787 C 1705.961 305.621 1706.428 305.381 1707.028 305.381 C 1707.624 305.381 1708.126 305.651 1708.378 305.816 L 1708.378 305.675 C 1708.378 305.675 1709.344 305.114 1710.801 305.114 C 1712.168 305.114 1713.226 305.675 1713.226 305.675 L 1713.226 305.77 C 1713.492 305.616 1713.908 305.441 1714.419 305.441 C 1715.278 305.441 1715.94 306.002 1715.94 306.002 L 1715.94 306.096 C 1715.997 306.046 1716.589 305.539 1717.459 305.539 C 1718.02 305.539 1718.496 305.778 1718.76 305.945 C 1718.977 305.787 1719.488 305.474 1720.17 305.474 C 1721.029 305.474 1721.693 306.035 1721.693 306.035 L 1721.693 306.037 C 1721.933 305.871 1722.417 305.606 1723.048 305.606 C 1723.646 305.606 1724.15 305.878 1724.401 306.044 L 1724.401 304.945 C 1724.401 304.945 1725.007 304.363 1725.923 304.363 C 1726.782 304.363 1727.445 304.945 1727.445 304.945 L 1727.445 306.026 C 1727.674 305.863 1728.172 305.573 1728.832 305.573 C 1729.69 305.573 1730.354 306.133 1730.354 306.133 L 1730.354 327.365 L 1746.131 327.365 L 1746.878 312.122 L 1745.992 305.139 L 1739.739 302.534 L 1740.26 300.502 C 1740.26 300.502 1751.307 299.876 1751.307 300.032 C 1751.307 300.19 1750.473 307.536 1750.473 307.536 L 1761.468 310.506 L 1764.594 315.457 C 1764.594 315.457 1764.594 323.721 1764.594 327.365 L 1782.982 327.365 C 1782.914 327.189 1782.641 326.419 1782.641 325.355 C 1782.641 324.584 1782.803 323.94 1782.909 323.604 L 1782.688 323.604 C 1782.688 323.604 1782.38 322.772 1782.38 321.554 C 1782.38 320.836 1782.501 320.229 1782.592 319.876 L 1782.015 319.876 C 1782.015 319.876 1781.708 319.045 1781.708 317.829 C 1781.708 316.683 1782.015 315.822 1782.015 315.822 L 1782.33 315.822 C 1782.247 315.46 1782.156 314.913 1782.156 314.251 C 1782.156 313.479 1782.296 312.837 1782.389 312.498 L 1781.867 312.498 C 1781.867 312.498 1781.56 311.667 1781.56 310.451 C 1781.56 309.306 1781.867 308.445 1781.867 308.445 L 1802.351 308.445 C 1802.351 308.445 1802.616 309.415 1802.616 310.541 C 1802.616 311.252 1802.493 311.902 1802.414 312.246 L 1802.947 312.246 C 1802.947 312.246 1803.212 313.215 1803.212 314.341 C 1803.212 315.386 1802.947 316.299 1802.947 316.299 L 1802.606 316.299 C 1802.679 316.688 1802.763 317.279 1802.763 317.918 C 1802.763 318.581 1802.657 319.192 1802.58 319.549 L 1803.171 319.549 C 1803.171 319.549 1803.436 320.517 1803.436 321.645 C 1803.436 322.356 1803.312 323.006 1803.235 323.349 L 1806.671 323.349 C 1806.671 323.349 1806.977 324.319 1806.977 325.445 C 1806.977 326.365 1806.741 327.181 1806.684 327.365 L 1810.647 327.365 L 1810.647 313.072 L 1820.093 313.072 L 1820.093 327.365 L 1827.684 327.365 L 1827.684 317.095 L 1823.618 317.095 L 1823.618 311.806 L 1826.53 311.806 C 1825.658 311.04 1825.108 309.917 1825.108 308.664 C 1825.108 306.356 1826.98 304.484 1829.289 304.484 C 1831.598 304.484 1833.47 306.356 1833.47 308.664 C 1833.47 309.917 1832.919 311.04 1832.048 311.806 L 1835.006 311.806 L 1835.006 317.095 L 1831.119 317.095 L 1831.119 327.365 L 1902.689 327.365 C 1904.175 326.705 1906.158 325.656 1906.443 324.658 C 1906.905 323.038 1906.719 317.533 1906.719 317.533 C 1906.719 317.533 1899.315 317.857 1897.74 313.738 C 1896.166 309.618 1899.129 307.257 1899.129 307.257 C 1899.129 307.257 1891.863 304.527 1892.464 301.658 C 1893.066 298.789 1894.083 298.278 1894.083 298.278 C 1894.083 298.278 1892.881 294.438 1899.083 291.984 C 1905.286 289.532 1907.507 292.586 1907.507 292.586 C 1907.507 292.586 1910.748 287.309 1916.069 289.623 C 1921.39 291.939 1917.874 298.742 1917.874 298.742 C 1917.874 298.742 1923.566 303.137 1923.475 307.766 C 1923.382 312.396 1913.291 314.385 1913.291 314.385 C 1913.291 314.385 1911.116 321.373 1912.551 323.225 C 1913.451 324.386 1916.082 326.186 1917.917 327.365 L 1949.745 327.365 L 1949.745 330.534 L 1673.024 330.534 L 1673.024 360.876 C 1674.307 360.562 1675.465 361.838 1675.465 361.838 L 1684.592 361.874 L 1684.666 356.725 L 1689.595 356.653 L 1689.485 365.709 C 1689.485 365.709 1692.15 367.058 1692.26 369.358 C 1692.295 370.084 1692.292 370.726 1692.273 371.265 L 1703.486 371.265 L 1701.693 336.541 L 1730.322 335.064 L 1732.19 371.265 L 1748.951 371.265 L 1748.951 356.905 L 1784.995 356.905 L 1784.995 371.265 L 1886.129 371.265 C 1883.85 370.229 1882.266 367.932 1882.266 365.266 C 1882.266 361.68 1885.13 358.764 1888.696 358.681 C 1888.138 357.933 1887.808 357.007 1887.808 356.003 C 1887.808 353.525 1889.818 351.517 1892.295 351.517 C 1892.693 351.517 1893.079 351.569 1893.446 351.666 C 1893.077 351.062 1892.865 350.352 1892.865 349.594 C 1892.865 347.848 1893.985 346.366 1895.544 345.825 C 1894.871 344.992 1894.467 343.932 1894.467 342.778 C 1894.467 340.103 1896.634 337.935 1899.311 337.935 C 1901.985 337.935 1904.153 340.103 1904.153 342.778 C 1904.153 343.746 1903.869 344.65 1903.379 345.406 C 1903.88 345.223 1904.421 345.122 1904.985 345.122 C 1905.338 345.122 1905.682 345.163 1906.013 345.237 C 1905.318 344.398 1904.9 343.322 1904.9 342.147 C 1904.9 339.473 1907.069 337.304 1909.744 337.304 C 1912.419 337.304 1914.586 339.473 1914.586 342.147 C 1914.586 343.793 1913.766 345.247 1912.513 346.121 C 1913.97 346.181 1915.229 347.003 1915.904 348.199 C 1916.175 345.919 1918.115 344.152 1920.468 344.152 C 1922.825 344.152 1924.767 345.927 1925.031 348.215 C 1925.754 347.642 1926.667 347.299 1927.661 347.299 C 1930.002 347.299 1931.899 349.197 1931.899 351.537 C 1931.899 352.265 1931.715 352.951 1931.393 353.549 C 1931.445 353.547 1931.498 353.546 1931.55 353.546 C 1933.891 353.546 1935.788 355.444 1935.788 357.783 C 1935.788 359.088 1935.199 360.255 1934.272 361.032 C 1936.657 361.755 1938.393 363.969 1938.393 366.588 C 1938.393 368.508 1937.462 370.208 1936.028 371.265 L 1949.745 371.265 L 1949.745 374.434 L 1673.024 374.434 L 1673.024 446.617 L 1668.072 446.706 L 1537.299 446.706 L 1537.299 101.204 Z M 1909.137 347.661 C 1909.334 347.412 1909.561 347.187 1909.812 346.99 C 1909.789 346.99 1909.767 346.99 1909.744 346.99 C 1909.355 346.99 1908.976 346.945 1908.615 346.859 C 1908.815 347.106 1908.989 347.374 1909.137 347.661 Z M 1920.561 353.339 C 1921.323 354.026 1921.88 354.935 1922.128 355.965 C 1922.733 355.178 1923.685 354.671 1924.754 354.671 C 1924.772 354.671 1924.79 354.671 1924.807 354.671 C 1924.116 354.04 1923.633 353.184 1923.478 352.216 C 1922.693 352.898 1921.676 353.316 1920.561 353.339 Z M 1927.59 356.272 C 1927.656 356.1 1927.733 355.933 1927.819 355.773 C 1927.767 355.774 1927.714 355.775 1927.661 355.775 C 1927.505 355.775 1927.352 355.767 1927.201 355.751 C 1927.348 355.911 1927.477 356.085 1927.59 356.272 Z M 1915.95 352.144 C 1916.322 352.059 1916.709 352.013 1917.108 352.013 C 1917.152 352.013 1917.196 352.013 1917.24 352.015 C 1916.897 351.677 1916.608 351.286 1916.384 350.853 C 1916.312 351.314 1916.162 351.747 1915.95 352.144 Z M 1908.219 353.146 C 1908.408 353.121 1908.6 353.109 1908.794 353.109 C 1909.034 353.109 1909.271 353.128 1909.501 353.165 C 1909.257 352.931 1909.042 352.667 1908.863 352.379 C 1908.677 352.658 1908.46 352.914 1908.219 353.146 Z M 1912.429 354.989 C 1912.545 354.74 1912.682 354.502 1912.834 354.278 C 1912.671 354.297 1912.507 354.308 1912.338 354.308 C 1912.155 354.308 1911.972 354.295 1911.795 354.272 C 1912.03 354.487 1912.244 354.728 1912.429 354.989 Z M 1896.561 354.613 C 1896.895 354.164 1897.308 353.778 1897.778 353.474 C 1897.48 353.544 1897.17 353.581 1896.852 353.581 C 1896.565 353.581 1896.284 353.551 1896.013 353.492 C 1896.246 353.835 1896.431 354.21 1896.561 354.613 Z M 1900.307 352.728 C 1900.717 352.728 1901.117 352.781 1901.495 352.882 C 1901.057 352.388 1900.721 351.8 1900.524 351.152 C 1900.224 351.857 1899.729 352.457 1899.104 352.885 C 1899.489 352.782 1899.891 352.728 1900.307 352.728 Z M 1901.035 347.304 C 1900.788 347.399 1900.53 347.474 1900.264 347.526 C 1900.395 347.743 1900.505 347.971 1900.594 348.211 C 1900.708 347.89 1900.857 347.587 1901.035 347.304 Z M 1894.865 362.573 C 1895.35 361.738 1896.022 361.027 1896.823 360.494 C 1896.38 359.997 1896.041 359.403 1895.844 358.749 C 1895.213 359.561 1894.311 360.152 1893.274 360.383 C 1893.945 360.99 1894.49 361.735 1894.865 362.573 Z M 1905.756 362.654 C 1906.079 362.247 1906.453 361.885 1906.87 361.577 C 1905.846 361.084 1905.039 360.212 1904.632 359.141 C 1904.427 359.647 1904.135 360.11 1903.775 360.509 C 1904.592 361.058 1905.273 361.793 1905.756 362.654 Z M 1905.658 354.402 C 1905.437 354.434 1905.213 354.45 1904.985 354.45 C 1904.574 354.45 1904.176 354.397 1903.796 354.297 C 1904.187 354.738 1904.495 355.251 1904.697 355.816 C 1904.924 355.283 1905.254 354.804 1905.658 354.402 Z M 1915.476 363.32 C 1915.616 362.936 1915.791 362.568 1915.997 362.22 C 1914.571 361.907 1913.367 361.008 1912.651 359.786 C 1912.472 360.097 1912.254 360.385 1912.007 360.642 C 1913.478 361.06 1914.714 362.034 1915.476 363.32 Z M 1927.795 363.313 C 1928.279 362.607 1928.916 362.012 1929.658 361.577 C 1928.788 361.14 1928.087 360.415 1927.685 359.525 C 1927.369 360.124 1926.874 360.615 1926.272 360.926 C 1926.94 361.594 1927.465 362.408 1927.795 363.313 Z M 1924.857 371.265 L 1929.148 371.265 C 1928.332 370.664 1927.678 369.852 1927.266 368.912 C 1926.683 369.89 1925.85 370.704 1924.857 371.265 Z M 1913.637 371.265 L 1918.416 371.265 C 1917.323 370.648 1916.426 369.726 1915.84 368.614 C 1915.383 369.7 1914.611 370.623 1913.637 371.265 Z M 1903.205 371.265 L 1907.136 371.265 C 1906.413 370.787 1905.801 370.156 1905.347 369.416 C 1904.784 370.184 1904.052 370.82 1903.205 371.265 Z M 1891.577 371.265 L 1897.37 371.265 C 1896.181 370.639 1895.217 369.64 1894.634 368.425 C 1893.951 369.672 1892.877 370.675 1891.577 371.265 Z M 1916.943 249.158 L 1930.953 249.158 L 1930.953 266.641 L 1916.943 266.641 L 1916.943 249.158 Z M 1759.02 318.947 L 1752.09 318.739 L 1752.44 327.365 L 1759.652 327.365 L 1759.02 318.947 Z M 2032.713 107.669 L 2289.807 107.669 L 2289.807 247.398 L 2274.459 247.398 L 2273.034 250.839 L 2275.834 252.666 C 2275.834 252.666 2272.911 254.614 2272.911 254.735 C 2272.911 254.858 2277.174 257.414 2277.174 257.414 C 2277.174 257.414 2271.816 258.511 2272.059 258.875 C 2272.303 259.239 2276.686 263.989 2276.686 263.989 C 2276.686 263.989 2269.503 262.405 2269.503 262.649 C 2269.503 262.891 2274.13 267.884 2274.13 267.884 C 2274.13 267.884 2264.146 264.84 2264.024 264.84 C 2263.902 264.84 2268.651 271.049 2268.651 271.049 C 2268.651 271.049 2264.268 270.684 2264.39 271.416 C 2264.513 272.144 2265.364 275.919 2265.364 275.919 L 2253.31 275.311 L 2252.214 278.111 L 2255.837 294.881 L 2292.35 294.881 L 2292.35 306.568 L 2287.054 306.568 L 2287.054 425.655 L 1999.111 425.655 L 1999.111 306.568 L 1993.516 306.568 L 1993.516 294.881 L 2122.59 294.881 L 2122.59 291.558 L 2132.931 291.558 L 2132.931 294.881 L 2140.412 294.881 L 2140.412 253.401 L 2149.579 253.401 L 2149.579 294.881 L 2158.996 294.881 L 2158.996 292.528 L 2168.904 292.528 L 2168.904 294.881 L 2176.013 294.881 L 2176.013 284.88 L 2183.875 284.88 L 2183.875 294.881 L 2236.824 294.881 L 2238.212 277.988 L 2244.543 278.233 L 2234.439 273.241 L 2229.204 275.919 L 2229.691 270.684 L 2217.882 269.345 L 2221.169 267.032 L 2212.037 265.935 L 2215.69 260.334 L 2216.542 255.221 L 2229.933 265.814 L 2220.925 256.075 L 2224.821 251.203 L 2228.474 256.561 L 2233.101 254.978 L 2230.665 251.326 L 2236.509 250.23 L 2235.906 247.398 L 2195.234 247.398 L 2195.234 208.418 L 2118.34 208.418 L 2118.34 247.186 L 2032.713 247.186 L 2032.713 107.669 Z M 1994.137 261.08 L 2017.342 261.08 L 2017.342 275.531 L 1994.137 275.531 L 1994.137 261.08 Z M 1193.712 185.409 L 1289.042 185.409 L 1289.042 124.403 L 1339.974 124.403 L 1339.974 185.409 L 1349.906 185.409 L 1349.906 125.038 L 1400.84 125.038 L 1400.84 185.409 L 1424.883 185.409 L 1424.883 192.464 L 1193.712 192.464 L 1193.712 185.409 Z M 1323.643 241.942 L 1343.151 241.942 C 1340.314 239.13 1338.555 235.228 1338.555 230.916 C 1338.555 225.972 1340.867 221.567 1344.468 218.726 C 1342.63 217.601 1338.757 214.767 1338.716 210.843 C 1338.662 205.698 1343.595 204.625 1343.595 204.625 L 1346.114 206.824 L 1345.738 203.391 C 1345.738 203.391 1347.024 201.355 1353.726 200.498 C 1360.427 199.64 1363.752 201.516 1366.538 203.659 C 1369.326 205.804 1371.738 208.538 1370.987 212.184 C 1370.238 215.829 1366.484 215.99 1366.484 215.99 C 1366.484 215.99 1364.02 210.897 1361.018 212.398 C 1359.449 213.182 1359.168 214.858 1359.257 216.28 C 1365.282 218.413 1369.598 224.159 1369.598 230.916 C 1369.598 235.228 1367.839 239.13 1365.002 241.942 L 1391.967 241.942 L 1388.742 237.97 L 1392.463 231.561 C 1392.463 231.561 1389.086 229.632 1389.5 226.187 C 1389.913 222.743 1390.81 220.607 1395.426 219.984 C 1400.043 219.365 1409.964 217.643 1414.098 220.813 C 1418.232 223.983 1413.685 230.182 1413.685 230.182 L 1417.614 236.937 L 1414.582 241.942 L 1423.774 241.942 L 1423.774 248.995 L 1323.643 248.995 L 1323.643 241.942 Z M 1182.527 323.484 L 1212.188 323.484 L 1212.216 321.415 L 1215.499 320.081 L 1222.788 320.183 L 1223.405 310.996 C 1223.405 310.996 1207.801 289.489 1207.697 289.539 C 1207.594 289.591 1211.907 283.739 1211.907 283.739 L 1227.458 262.13 L 1233.053 265.004 L 1236.185 269.624 C 1236.185 269.624 1241.318 269.623 1243.936 272.601 C 1246.553 275.579 1246.964 278.042 1246.964 278.042 C 1246.964 278.042 1246.296 281.943 1240.291 284.202 C 1234.287 286.461 1231.565 285.279 1231.565 285.279 C 1231.565 285.279 1229.872 282.507 1229.101 279.531 C 1228.332 276.553 1231.155 272.139 1231.155 272.139 L 1229.255 266.801 L 1214.217 290.207 L 1227.716 308.325 L 1227.358 310.687 L 1228.126 312.74 L 1225.509 314.331 L 1225.458 319.977 L 1232.387 319.925 L 1235.364 321.312 L 1235.364 323.484 L 1260.3 323.484 L 1260.3 294.953 L 1300.876 294.953 L 1300.876 323.484 L 1384.776 323.484 C 1384.264 321.554 1383.726 318.724 1383.662 315.387 C 1383.539 309.052 1385.063 304.058 1385.063 304.058 L 1387.011 303.083 L 1385.367 297.967 C 1385.367 297.967 1379.398 299.672 1379.398 299.733 C 1379.398 299.793 1376.475 303.632 1376.475 303.632 L 1377.022 299.124 L 1381.164 296.688 L 1382.992 292.912 L 1381.53 289.562 L 1376.475 286.029 L 1372.088 282.13 L 1369.774 277.746 L 1372.028 279.938 L 1375.075 281.765 L 1378.179 285.664 L 1384.636 286.944 L 1388.048 288.527 L 1385.792 280.852 L 1390.057 286.7 C 1390.057 286.7 1391.334 289.562 1391.334 289.501 C 1391.334 289.441 1392.066 285.786 1392.066 285.786 L 1396.025 283.349 L 1394.076 288.405 L 1393.163 292.059 L 1395.539 292.669 L 1394.26 293.825 L 1394.747 299.367 L 1396.512 303.143 L 1399.801 295.531 L 1397.731 289.014 L 1399.071 283.531 L 1399.193 275.796 L 1401.386 268.853 L 1397.366 265.807 L 1403.456 254.479 L 1399.801 264.893 L 1402.726 266.904 L 1406.928 265.078 L 1403.395 268.549 L 1400.776 274.578 L 1400.045 287.43 C 1400.045 287.43 1401.569 294.983 1401.569 295.044 C 1401.569 295.103 1407.963 287.735 1407.963 287.735 L 1407.353 278.964 L 1409.974 273.847 L 1410.033 265.199 L 1408.632 257.16 L 1411.191 261.788 L 1412.287 273.056 L 1409.242 278.72 L 1409.547 283.531 L 1414.419 282.13 L 1419.415 277.928 L 1415.942 283.106 L 1410.461 285.907 L 1409.789 288.527 L 1414.419 287.979 L 1409.608 289.684 L 1406.319 293.763 L 1404.919 299.611 L 1401.995 304.423 C 1401.995 304.423 1403.944 309.113 1403.883 315.692 C 1403.851 319.074 1403.466 321.716 1403.097 323.484 L 1437.825 323.484 L 1437.825 341.026 L 1435.711 341.026 L 1435.711 420.699 L 1432.963 420.699 L 1432.963 431.055 L 1427.469 431.055 L 1427.469 420.699 L 1383.087 420.699 L 1383.087 431.056 L 1377.381 431.056 L 1377.381 420.699 L 1371.464 420.699 L 1371.464 341.026 L 1182.527 341.026 L 1182.527 323.484 Z M 1229.868 365.752 L 1240.435 365.752 L 1240.435 381.602 L 1229.868 381.602 L 1229.868 365.752 Z M 1200.28 380.123 L 1226.697 380.123 L 1226.697 416.262 L 1200.28 416.262 L 1200.28 380.123 Z M 1496.6 221.314 L 1518.732 221.314 L 1518.732 251.958 L 1496.6 251.958 L 1496.6 221.314 Z M 1450.541 243.25 L 1483.842 243.25 L 1483.842 289.99 L 1450.541 289.99 L 1450.541 243.25 Z M 1491.348 261.161 L 1524.65 261.161 L 1524.65 307.903 L 1491.348 307.903 L 1491.348 261.161 Z" style="fill: rgb(225, 244, 243);"/>
</svg>