<?xml version="1.0" encoding="utf-8"?>
<svg viewBox="0 0 2300 500" xmlns="http://www.w3.org/2000/svg" xmlns:xlink="http://www.w3.org/1999/xlink">
  <defs>
    <linearGradient gradientUnits="userSpaceOnUse" x1="1128.616" y1="-99.771" x2="1128.616" y2="549.99" id="gradient-0">
      <stop offset="0" style="stop-color: rgb(163, 210, 202);"/>
      <stop offset="1" style="stop-color: rgb(94, 170, 168);"/>
    </linearGradient>
    <pattern x="0" y="0" width="25" height="25" patternUnits="userSpaceOnUse" viewBox="0 0 100 100" id="pattern-0">
      <rect width="100.221" height="25.453" style="fill-opacity: 0.3; fill: rgb(94, 170, 168);"/>
    </pattern>
    <pattern id="pattern-0-0" patternTransform="matrix(1, 0, 0, 1, 1139.577516, 239.625484)" xlink:href="#pattern-0"/>
  </defs>
  <rect x="-5.141" y="-29.979" width="2325.207" height="538.767" style="fill: rgb(247, 243, 233);"/>
  <rect x="-10.526" y="-17.258" width="2325.207" height="538.767" style="fill: url(#pattern-0-0); fill-opacity: 0.31;"/>
  <path d="M 728.512 -18.457 L 999.192 -18.457 L 999.192 36.317 C 1001.917 36.459 1003.931 37.333 1003.931 37.333 L 1003.931 45.144 C 1004.445 44.937 1006.036 44.377 1008.222 44.377 C 1010.284 44.377 1011.962 44.94 1012.507 45.146 L 1012.507 41.42 C 1012.507 41.42 1014.461 40.497 1017.399 40.497 C 1020.162 40.497 1022.295 41.42 1022.295 41.42 L 1022.295 44.109 C 1022.889 43.873 1024.61 43.282 1026.961 43.282 C 1028.929 43.282 1030.577 43.75 1031.363 44.02 L 1031.363 41.907 C 1031.363 41.907 1033.442 40.927 1036.568 40.927 C 1039.506 40.927 1041.775 41.907 1041.775 41.907 L 1041.775 77.032 L 1217.688 77.032 L 1217.688 33.484 C 1217.688 33.484 1220.085 32.351 1223.691 32.351 C 1227.081 32.351 1229.695 33.484 1229.695 33.484 L 1229.695 38.45 C 1230.541 38.146 1232.308 37.635 1234.619 37.635 C 1237.71 37.635 1240.094 38.67 1240.094 38.67 L 1240.094 77.032 L 1348.713 77.032 L 1348.713 38.577 C 1348.713 38.577 1350.792 37.597 1353.917 37.597 C 1356.855 37.597 1359.125 38.577 1359.125 38.577 L 1359.125 41.087 C 1360.004 40.799 1361.56 40.408 1363.533 40.408 C 1365.551 40.408 1367.255 40.871 1368.123 41.16 L 1368.123 39.937 C 1368.123 39.937 1370.202 38.956 1373.328 38.956 C 1376.266 38.956 1378.535 39.937 1378.535 39.937 L 1378.535 41.234 C 1379.447 40.962 1380.878 40.65 1382.642 40.65 C 1384.264 40.65 1385.682 40.949 1386.627 41.216 L 1386.627 39.937 C 1386.627 39.937 1388.705 38.956 1391.831 38.956 C 1394.769 38.956 1397.039 39.937 1397.039 39.937 L 1397.039 40.967 C 1397.545 40.756 1399.447 40.045 1402.109 40.045 C 1404.127 40.045 1405.831 40.508 1406.699 40.797 L 1406.699 38.756 C 1406.699 38.756 1408.841 37.747 1412.06 37.747 C 1415.087 37.747 1417.423 38.756 1417.423 38.756 L 1417.423 40.575 C 1418.018 40.335 1419.872 39.682 1422.424 39.682 C 1424.652 39.682 1426.495 40.246 1427.256 40.518 L 1427.256 39.816 C 1427.256 39.816 1429.334 38.835 1432.46 38.835 C 1435.398 38.835 1437.667 39.816 1437.667 39.816 L 1437.667 77.032 L 1555.19 77.032 L 1555.19 83.398 L 999.192 83.398 L 999.192 165.238 L 1236.166 165.238 L 1236.166 124.788 C 1236.166 124.788 1238.133 124.454 1241.513 124.166 C 1240.96 122.984 1240.651 121.665 1240.651 120.274 C 1240.651 115.195 1244.768 111.078 1249.847 111.078 C 1250.446 111.078 1251.031 111.135 1251.598 111.245 C 1251.595 111.177 1251.594 111.109 1251.594 111.04 C 1251.594 109.924 1251.967 108.894 1252.596 108.07 C 1250.531 106.728 1249.165 104.401 1249.165 101.755 C 1249.165 97.599 1252.534 94.23 1256.69 94.23 C 1260.846 94.23 1264.215 97.599 1264.215 101.755 C 1264.215 104.514 1262.731 106.926 1260.517 108.236 C 1261.072 109.03 1261.398 109.997 1261.398 111.04 C 1261.398 113.275 1259.901 115.161 1257.856 115.751 C 1258.612 117.086 1259.043 118.63 1259.043 120.274 C 1259.043 121.585 1258.769 122.831 1258.275 123.96 C 1263.342 124.262 1266.723 124.788 1266.723 124.788 L 1266.723 165.238 L 1296.707 165.238 C 1296.469 164.454 1295.989 162.572 1295.989 160.102 C 1295.989 157.011 1296.839 154.687 1296.839 154.687 L 1301.141 154.687 C 1300.932 153.96 1300.588 152.473 1300.588 150.567 C 1300.588 147.992 1301.298 146.057 1301.298 146.057 L 1301.338 146.057 C 1301.136 145.251 1300.89 143.94 1300.89 142.33 C 1300.89 140.175 1301.387 138.469 1301.549 137.969 L 1299.814 137.969 C 1299.814 137.969 1299.06 135.982 1299.06 133.076 C 1299.06 130.345 1299.814 128.289 1299.814 128.289 L 1303.511 128.289 C 1303.4 128.085 1302.903 127.099 1302.903 125.725 C 1302.903 124.27 1303.533 123.175 1303.533 123.175 L 1345.464 123.175 C 1345.464 123.175 1346.005 124.407 1346.005 125.839 C 1346.005 127.024 1345.574 128.077 1345.481 128.289 L 1350.037 128.289 C 1350.037 128.289 1350.686 130.603 1350.686 133.293 C 1350.686 135.788 1350.037 137.969 1350.037 137.969 L 1348.952 137.969 C 1349.087 138.501 1349.524 140.391 1349.524 142.534 C 1349.524 144.883 1348.913 146.939 1348.913 146.939 L 1348.816 146.939 C 1348.994 147.806 1349.222 149.223 1349.222 150.771 C 1349.222 152.428 1348.918 153.94 1348.739 154.687 L 1353.654 154.687 C 1353.654 154.687 1354.386 157.304 1354.386 160.347 C 1354.386 162.489 1353.964 164.429 1353.761 165.238 L 1373.78 165.238 L 1373.78 117.406 L 1447.869 117.406 L 1447.869 165.238 L 1555.19 165.238 L 1555.19 171.604 L 999.192 171.604 L 999.192 253.445 L 1033.781 253.445 L 1034.715 232.286 L 1035.757 208.668 C 1035.757 208.668 1037.486 207.559 1040.007 207.671 C 1042.376 207.775 1044.153 209.039 1044.153 209.039 L 1044.131 209.531 C 1044.603 209.433 1045.132 209.369 1045.706 209.369 C 1046.55 209.369 1047.323 209.526 1047.96 209.723 L 1047.96 208.748 C 1047.96 208.748 1049.564 207.615 1051.98 207.615 C 1054.25 207.615 1056 208.748 1056 208.748 L 1056 209.488 C 1056.704 209.173 1057.809 208.812 1059.174 208.812 C 1061.186 208.812 1062.791 209.703 1063.129 209.905 C 1063.798 209.593 1065.059 209.141 1066.658 209.199 C 1068.926 209.282 1070.635 210.477 1070.635 210.477 L 1070.508 213.978 C 1070.969 213.87 1071.497 213.796 1072.078 213.796 C 1074.08 213.796 1075.627 214.796 1075.627 214.796 L 1075.627 253.445 L 1133.449 253.445 L 1130.443 250.08 L 1134.696 244.045 L 1131.449 241.801 L 1136.863 237.854 L 1134.387 232.828 L 1140.807 230.969 L 1139.572 228.496 L 1142.898 225.631 L 1147.616 218.361 L 1151.174 227.025 L 1154.039 230.893 L 1154.268 235.534 L 1159.686 238.242 C 1159.686 238.242 1158.059 243.272 1158.059 243.348 C 1158.059 243.424 1161.156 248.61 1161.156 248.61 L 1160.426 253.445 L 1203.178 253.445 C 1203.023 252.718 1202.848 251.602 1202.848 250.249 C 1202.848 248.635 1203.129 247.301 1203.296 246.649 L 1201.813 246.649 C 1201.813 246.649 1201.196 244.978 1201.196 242.533 C 1201.196 240.235 1201.813 238.504 1201.813 238.504 L 1202.973 238.504 C 1202.864 237.83 1202.772 236.975 1202.772 235.995 C 1202.772 234.079 1203.168 232.558 1203.3 232.104 C 1203.169 231.666 1202.772 230.163 1202.772 228.12 C 1202.772 225.822 1203.341 224.091 1203.341 224.091 L 1203.791 224.091 C 1203.624 223.386 1203.402 222.162 1203.402 220.637 C 1203.402 218.339 1203.972 216.607 1203.972 216.607 L 1242.073 216.607 C 1242.073 216.607 1242.564 218.555 1242.564 220.819 C 1242.564 222.916 1242.073 224.753 1242.073 224.753 L 1241.584 224.753 C 1241.729 225.512 1241.933 226.841 1241.933 228.302 C 1241.933 230.065 1241.586 231.645 1241.476 232.103 C 1241.585 232.584 1241.934 234.268 1241.934 236.177 C 1241.934 237.031 1241.853 237.843 1241.756 238.504 L 1242.977 238.504 C 1242.977 238.504 1243.509 240.452 1243.509 242.715 C 1243.509 244.812 1242.977 246.649 1242.977 246.649 L 1241.615 246.649 C 1241.758 247.345 1242.01 248.807 1242.01 250.43 C 1242.01 251.612 1241.855 252.711 1241.719 253.445 L 1277.122 253.445 L 1277.122 186.702 L 1332.183 186.702 L 1332.183 253.445 L 1412.957 253.445 L 1412.957 215.426 L 1406.645 215.426 L 1427.154 193.619 L 1447.662 215.426 L 1441.446 215.426 L 1441.446 253.445 L 1555.19 253.445 L 1555.19 259.811 L 999.192 259.811 L 999.192 302.661 C 999.888 302.762 1000.497 302.934 1000.968 303.099 L 1000.968 297.868 C 1000.968 297.868 1003.721 296.741 1007.872 296.741 C 1011.176 296.741 1013.842 297.552 1014.575 297.798 C 1015.111 297.488 1015.945 297.136 1016.973 297.136 C 1018.447 297.136 1019.635 297.959 1019.949 298.198 C 1020.4 297.874 1021.41 297.276 1022.75 297.276 C 1024.139 297.276 1025.274 298.006 1025.664 298.291 C 1026.028 298.006 1027.107 297.276 1028.588 297.276 C 1030.313 297.276 1031.647 298.403 1031.647 298.403 L 1031.647 298.522 C 1032.106 298.194 1033.107 297.613 1034.429 297.613 C 1035.483 297.613 1036.39 298.034 1036.937 298.361 L 1036.937 297.935 C 1036.937 297.935 1038.156 296.808 1039.996 296.808 C 1041.721 296.808 1043.055 297.935 1043.055 297.935 L 1043.055 299.361 C 1043.587 299.087 1044.336 298.82 1045.232 298.82 C 1046.025 298.82 1046.736 299.058 1047.272 299.315 L 1047.272 297.464 C 1047.272 297.464 1048.491 296.337 1050.331 296.337 C 1052.056 296.337 1053.39 297.464 1053.39 297.464 L 1053.39 298.629 C 1053.895 298.295 1054.832 297.814 1056.035 297.814 C 1057.354 297.814 1058.444 298.472 1058.884 298.783 L 1058.884 298.403 C 1058.884 298.403 1060.103 297.276 1061.943 297.276 C 1063.341 297.276 1064.483 298.016 1064.865 298.297 C 1065.369 297.964 1066.308 297.48 1067.513 297.48 C 1068.711 297.48 1069.72 298.023 1070.225 298.355 L 1070.225 298.068 C 1070.225 298.068 1072.167 296.942 1075.096 296.942 C 1077.843 296.942 1079.966 298.068 1079.966 298.068 L 1079.966 298.262 C 1080.502 297.952 1081.336 297.601 1082.363 297.601 C 1084.088 297.601 1085.421 298.727 1085.421 298.727 L 1085.421 298.917 C 1085.535 298.816 1086.723 297.798 1088.471 297.798 C 1089.598 297.798 1090.558 298.279 1091.088 298.612 C 1091.521 298.294 1092.548 297.667 1093.92 297.667 C 1095.646 297.667 1096.979 298.794 1096.979 298.794 L 1096.979 298.798 C 1097.462 298.466 1098.434 297.932 1099.701 297.932 C 1100.903 297.932 1101.916 298.479 1102.419 298.811 L 1102.419 296.604 C 1102.419 296.604 1103.638 295.433 1105.478 295.433 C 1107.203 295.433 1108.537 296.604 1108.537 296.604 L 1108.537 298.776 C 1108.995 298.449 1109.998 297.865 1111.322 297.865 C 1113.047 297.865 1114.381 298.992 1114.381 298.992 L 1114.381 341.651 L 1146.082 341.651 L 1147.581 311.024 L 1145.801 296.993 L 1133.238 291.76 L 1134.285 287.676 C 1134.285 287.676 1156.481 286.418 1156.481 286.733 C 1156.481 287.049 1154.806 301.809 1154.806 301.809 L 1176.897 307.777 L 1183.177 317.724 C 1183.177 317.724 1183.177 334.33 1183.177 341.651 L 1220.121 341.651 C 1219.984 341.297 1219.439 339.75 1219.439 337.612 C 1219.439 336.062 1219.763 334.769 1219.975 334.092 L 1219.531 334.092 C 1219.531 334.092 1218.914 332.421 1218.914 329.976 C 1218.914 328.532 1219.157 327.313 1219.339 326.605 L 1218.181 326.605 C 1218.181 326.605 1217.564 324.934 1217.564 322.489 C 1217.564 320.191 1218.181 318.459 1218.181 318.459 L 1218.814 318.459 C 1218.647 317.731 1218.465 316.631 1218.465 315.302 C 1218.465 313.751 1218.746 312.459 1218.929 311.782 L 1217.883 311.782 C 1217.883 311.782 1217.265 310.111 1217.265 307.666 C 1217.265 305.368 1217.883 303.636 1217.883 303.636 L 1259.04 303.636 C 1259.04 303.636 1259.572 305.585 1259.572 307.848 C 1259.572 309.276 1259.325 310.584 1259.168 311.273 L 1260.239 311.273 C 1260.239 311.273 1260.771 313.221 1260.771 315.484 C 1260.771 317.581 1260.239 319.418 1260.239 319.418 L 1259.551 319.418 C 1259.699 320.201 1259.87 321.385 1259.87 322.671 C 1259.87 324.002 1259.656 325.229 1259.5 325.947 L 1260.688 325.947 C 1260.688 325.947 1261.22 327.895 1261.22 330.158 C 1261.22 331.586 1260.973 332.893 1260.816 333.582 L 1267.72 333.582 C 1267.72 333.582 1268.334 335.53 1268.334 337.793 C 1268.334 339.639 1267.859 341.282 1267.745 341.651 L 1275.709 341.651 L 1275.709 312.933 L 1294.687 312.933 L 1294.687 341.651 L 1309.94 341.651 L 1309.94 321.015 L 1301.769 321.015 L 1301.769 310.39 L 1307.622 310.39 C 1305.87 308.85 1304.764 306.593 1304.764 304.078 C 1304.764 299.439 1308.525 295.678 1313.164 295.678 C 1317.803 295.678 1321.564 299.439 1321.564 304.078 C 1321.564 306.593 1320.458 308.85 1318.706 310.39 L 1324.652 310.39 L 1324.652 321.015 L 1316.841 321.015 L 1316.841 341.651 L 1460.644 341.651 C 1463.627 340.325 1467.612 338.217 1468.184 336.214 C 1469.113 332.958 1468.741 321.894 1468.741 321.894 C 1468.741 321.894 1453.863 322.546 1450.699 314.27 C 1447.535 305.994 1453.49 301.251 1453.49 301.251 C 1453.49 301.251 1438.89 295.764 1440.099 289.999 C 1441.309 284.235 1443.352 283.21 1443.352 283.21 C 1443.352 283.21 1440.936 275.491 1453.398 270.563 C 1465.86 265.636 1470.323 271.773 1470.323 271.773 C 1470.323 271.773 1476.832 261.17 1487.524 265.821 C 1498.216 270.471 1491.153 284.139 1491.153 284.139 C 1491.153 284.139 1502.589 292.972 1502.405 302.273 C 1502.22 311.574 1481.944 315.572 1481.944 315.572 C 1481.944 315.572 1477.574 329.613 1480.458 333.334 C 1482.267 335.668 1487.552 339.282 1491.24 341.651 L 1555.19 341.651 L 1555.19 348.017 L 999.192 348.017 L 999.192 408.981 C 1001.771 408.353 1004.097 410.915 1004.097 410.915 L 1022.435 410.988 L 1022.584 400.643 L 1032.487 400.497 L 1032.267 418.691 C 1032.267 418.691 1037.621 421.403 1037.841 426.025 C 1037.91 427.483 1037.906 428.774 1037.869 429.857 L 1060.397 429.857 L 1056.798 360.088 L 1114.317 357.121 L 1118.069 429.857 L 1151.747 429.857 L 1151.747 401.003 L 1224.168 401.003 L 1224.168 429.857 L 1427.37 429.857 C 1422.791 427.775 1419.607 423.16 1419.607 417.803 C 1419.607 410.6 1425.363 404.74 1432.526 404.572 C 1431.407 403.07 1430.745 401.208 1430.745 399.192 C 1430.745 394.214 1434.781 390.178 1439.759 390.178 C 1440.558 390.178 1441.332 390.282 1442.07 390.477 C 1441.33 389.264 1440.904 387.838 1440.904 386.313 C 1440.904 382.808 1443.154 379.829 1446.289 378.742 C 1444.934 377.069 1444.122 374.939 1444.122 372.619 C 1444.122 367.245 1448.479 362.888 1453.853 362.888 C 1459.227 362.888 1463.584 367.245 1463.584 372.619 C 1463.584 374.566 1463.012 376.38 1462.027 377.901 C 1463.033 377.532 1464.121 377.33 1465.255 377.33 C 1465.965 377.33 1466.657 377.409 1467.322 377.559 C 1465.926 375.874 1465.086 373.711 1465.086 371.352 C 1465.086 365.978 1469.443 361.621 1474.817 361.621 C 1480.191 361.621 1484.548 365.978 1484.548 371.352 C 1484.548 374.657 1482.9 377.578 1480.381 379.336 C 1483.307 379.459 1485.838 381.109 1487.197 383.511 C 1487.74 378.931 1491.637 375.379 1496.363 375.379 C 1501.1 375.379 1505.004 378.947 1505.533 383.542 C 1506.985 382.391 1508.821 381.704 1510.818 381.704 C 1515.521 381.704 1519.333 385.516 1519.333 390.219 C 1519.333 391.681 1518.964 393.058 1518.315 394.26 C 1518.42 394.256 1518.526 394.254 1518.632 394.254 C 1523.335 394.254 1527.147 398.066 1527.147 402.769 C 1527.147 405.39 1525.963 407.734 1524.1 409.296 C 1528.892 410.747 1532.38 415.197 1532.38 420.461 C 1532.38 424.316 1530.51 427.733 1527.628 429.857 L 1555.19 429.857 L 1555.19 436.223 L 999.192 436.223 L 999.192 518.497 L 989.242 518.497 L 989.242 518.678 L 726.489 518.678 L 726.489 -18.276 L 728.512 -18.276 Z M 1473.597 382.428 C 1473.996 381.929 1474.451 381.477 1474.954 381.082 C 1474.908 381.083 1474.863 381.083 1474.817 381.083 C 1474.036 381.083 1473.276 380.991 1472.549 380.817 C 1472.95 381.315 1473.302 381.854 1473.597 382.428 Z M 1496.552 393.839 C 1498.083 395.218 1499.201 397.046 1499.699 399.116 C 1500.915 397.534 1502.827 396.514 1504.977 396.514 C 1505.013 396.514 1505.049 396.514 1505.085 396.515 C 1503.694 395.247 1502.724 393.525 1502.412 391.583 C 1500.836 392.951 1498.792 393.794 1496.552 393.839 Z M 1510.675 399.731 C 1510.807 399.385 1510.961 399.051 1511.135 398.728 C 1511.03 398.732 1510.924 398.734 1510.818 398.734 C 1510.505 398.734 1510.197 398.717 1509.893 398.684 C 1510.186 399.006 1510.449 399.356 1510.675 399.731 Z M 1487.288 391.437 C 1488.035 391.266 1488.813 391.176 1489.612 391.176 C 1489.701 391.176 1489.79 391.177 1489.878 391.179 C 1489.19 390.5 1488.607 389.713 1488.159 388.845 C 1488.013 389.769 1487.714 390.642 1487.288 391.437 Z M 1471.755 393.451 C 1472.133 393.402 1472.519 393.377 1472.91 393.377 C 1473.393 393.377 1473.867 393.415 1474.329 393.489 C 1473.84 393.018 1473.408 392.488 1473.047 391.909 C 1472.672 392.468 1472.238 392.985 1471.755 393.451 Z M 1480.212 397.155 C 1480.446 396.655 1480.719 396.178 1481.026 395.725 C 1480.7 395.765 1480.368 395.785 1480.031 395.785 C 1479.66 395.785 1479.295 395.76 1478.938 395.713 C 1479.412 396.146 1479.84 396.63 1480.212 397.155 Z M 1448.331 396.397 C 1449.001 395.496 1449.829 394.72 1450.774 394.109 C 1450.177 394.25 1449.555 394.325 1448.916 394.325 C 1448.338 394.325 1447.774 394.264 1447.23 394.147 C 1447.696 394.835 1448.069 395.591 1448.331 396.397 Z M 1455.856 392.612 C 1456.681 392.612 1457.482 392.719 1458.244 392.919 C 1457.364 391.927 1456.69 390.747 1456.292 389.446 C 1455.691 390.861 1454.694 392.067 1453.44 392.926 C 1454.211 392.721 1455.021 392.612 1455.856 392.612 Z M 1457.32 381.714 C 1456.822 381.904 1456.304 382.055 1455.77 382.161 C 1456.032 382.594 1456.255 383.053 1456.433 383.534 C 1456.663 382.892 1456.962 382.282 1457.32 381.714 Z M 1444.923 412.391 C 1445.897 410.715 1447.247 409.285 1448.857 408.215 C 1447.967 407.215 1447.287 406.023 1446.888 404.709 C 1445.623 406.341 1443.809 407.527 1441.724 407.991 C 1443.073 409.213 1444.168 410.709 1444.923 412.391 Z M 1466.805 412.555 C 1467.453 411.739 1468.206 411.01 1469.044 410.389 C 1466.985 409.401 1465.363 407.647 1464.546 405.496 C 1464.134 406.514 1463.548 407.444 1462.825 408.247 C 1464.466 409.349 1465.834 410.826 1466.805 412.555 Z M 1466.607 395.975 C 1466.165 396.039 1465.714 396.072 1465.255 396.072 C 1464.43 396.072 1463.629 395.965 1462.866 395.765 C 1463.651 396.649 1464.271 397.682 1464.678 398.817 C 1465.135 397.746 1465.794 396.783 1466.607 395.975 Z M 1486.335 413.894 C 1486.616 413.121 1486.967 412.381 1487.381 411.683 C 1484.518 411.056 1482.098 409.246 1480.658 406.792 C 1480.297 407.417 1479.862 407.994 1479.365 408.512 C 1482.32 409.352 1484.804 411.308 1486.335 413.894 Z M 1511.086 413.881 C 1512.059 412.459 1513.339 411.264 1514.83 410.39 C 1513.08 409.515 1511.672 408.055 1510.866 406.266 C 1510.23 407.471 1509.236 408.457 1508.025 409.082 C 1509.368 410.426 1510.423 412.06 1511.086 413.881 Z M 1505.183 429.857 L 1513.806 429.857 C 1512.165 428.648 1510.852 427.018 1510.025 425.127 C 1508.851 427.094 1507.179 428.728 1505.183 429.857 Z M 1482.639 429.857 L 1492.243 429.857 C 1490.047 428.616 1488.244 426.763 1487.064 424.529 C 1486.147 426.714 1484.595 428.567 1482.639 429.857 Z M 1461.679 429.857 L 1469.579 429.857 C 1468.125 428.898 1466.895 427.629 1465.982 426.143 C 1464.853 427.685 1463.381 428.96 1461.679 429.857 Z M 1438.315 429.857 L 1449.955 429.857 C 1447.565 428.598 1445.63 426.592 1444.458 424.151 C 1443.086 426.656 1440.928 428.669 1438.315 429.857 Z M 1489.284 184.515 L 1517.432 184.515 L 1517.432 219.643 L 1489.284 219.643 Z M 1171.976 324.736 L 1158.053 324.319 L 1158.756 341.651 L 1173.248 341.651 Z M 1721.892 -99.771 L 2238.453 -99.771 L 2238.453 180.979 L 2207.615 180.979 L 2204.752 187.892 L 2210.378 191.563 C 2210.378 191.563 2204.506 195.475 2204.506 195.721 C 2204.506 195.966 2213.068 201.102 2213.068 201.102 C 2213.068 201.102 2202.305 203.305 2202.793 204.038 C 2203.282 204.771 2212.089 214.312 2212.089 214.312 C 2212.089 214.312 2197.657 211.132 2197.657 211.62 C 2197.657 212.108 2206.953 222.139 2206.953 222.139 C 2206.953 222.139 2186.894 216.023 2186.649 216.023 C 2186.405 216.023 2195.945 228.5 2195.945 228.5 C 2195.945 228.5 2187.138 227.766 2187.383 229.234 C 2187.629 230.701 2189.34 238.284 2189.34 238.284 L 2165.123 237.061 L 2162.92 242.687 L 2170.201 276.381 L 2243.562 276.381 L 2243.562 299.863 L 2232.923 299.863 L 2232.923 539.139 L 1654.375 539.139 L 1654.375 299.863 L 1643.137 299.863 L 1643.137 276.381 L 1902.476 276.381 L 1902.476 269.708 L 1923.252 269.708 L 1923.252 276.381 L 1938.285 276.381 L 1938.285 193.039 L 1956.704 193.039 L 1956.704 276.381 L 1975.622 276.381 L 1975.622 271.656 L 1995.531 271.656 L 1995.531 276.381 L 2009.814 276.381 L 2009.814 256.29 L 2025.611 256.29 L 2025.611 276.381 L 2131.997 276.381 L 2134.788 242.442 L 2147.509 242.933 L 2127.206 232.903 L 2116.687 238.284 L 2117.665 227.766 L 2093.938 225.076 L 2100.543 220.428 L 2082.196 218.224 L 2089.534 206.972 L 2091.246 196.698 L 2118.155 217.981 L 2100.053 198.411 L 2107.881 188.625 L 2115.22 199.389 L 2124.517 196.209 L 2119.623 188.871 L 2131.366 186.67 L 2130.152 180.979 L 2048.434 180.979 L 2048.434 102.66 L 1893.936 102.66 L 1893.936 180.551 L 1721.892 180.551 Z M 1644.383 208.469 L 1691.007 208.469 L 1691.007 237.506 L 1644.383 237.506 Z M 36.142 56.43 L 227.682 56.43 L 227.682 -66.146 L 330.018 -66.146 L 330.018 56.43 L 349.974 56.43 L 349.974 -64.871 L 452.31 -64.871 L 452.31 56.43 L 500.618 56.43 L 500.618 70.603 L 36.142 70.603 Z M 297.206 170.016 L 336.402 170.016 C 330.699 164.365 327.166 156.526 327.166 147.862 C 327.166 137.928 331.811 129.079 339.047 123.368 C 335.353 121.108 327.571 115.416 327.488 107.532 C 327.381 97.192 337.29 95.037 337.29 95.037 L 342.352 99.455 L 341.599 92.56 C 341.599 92.56 344.183 88.467 357.647 86.744 C 371.111 85.021 377.79 88.791 383.39 93.099 C 388.992 97.407 393.839 102.901 392.33 110.225 C 390.823 117.55 383.282 117.873 383.282 117.873 C 383.282 117.873 378.328 107.641 372.297 110.655 C 369.147 112.23 368.582 115.597 368.761 118.455 C 380.866 122.74 389.538 134.288 389.538 147.862 C 389.538 156.526 386.005 164.365 380.302 170.016 L 434.482 170.016 L 428.003 162.035 L 435.479 149.159 C 435.479 149.159 428.695 145.283 429.526 138.361 C 430.356 131.44 432.156 127.146 441.433 125.9 C 450.709 124.654 470.644 121.194 478.95 127.563 C 487.257 133.931 478.12 146.39 478.12 146.39 L 486.012 159.959 L 479.922 170.016 L 498.39 170.016 L 498.39 184.189 L 297.206 184.189 Z M 13.67 333.853 L 73.264 333.853 L 73.319 329.695 L 79.918 327.014 L 94.563 327.221 L 95.801 308.761 C 95.801 308.761 64.45 265.548 64.243 265.651 C 64.036 265.754 72.7 253.997 72.7 253.997 L 103.947 210.579 L 115.189 216.354 L 121.479 225.636 C 121.479 225.636 131.794 225.635 137.054 231.618 C 142.312 237.599 143.137 242.549 143.137 242.549 C 143.137 242.549 141.797 250.388 129.73 254.925 C 117.664 259.464 112.199 257.09 112.199 257.09 C 112.199 257.09 108.795 251.521 107.248 245.54 C 105.702 239.558 111.374 230.689 111.374 230.689 L 107.557 219.964 L 77.34 266.991 L 104.463 303.397 L 103.743 308.141 L 105.289 312.266 L 100.029 315.464 L 99.926 326.807 L 113.848 326.704 L 119.83 329.489 L 119.83 333.853 L 169.932 333.853 L 169.932 276.529 L 251.46 276.529 L 251.46 333.853 L 420.033 333.853 C 419.004 329.974 417.925 324.288 417.796 317.584 C 417.55 304.855 420.61 294.821 420.61 294.821 L 424.525 292.862 L 421.222 282.583 C 421.222 282.583 409.229 286.01 409.229 286.133 C 409.229 286.254 403.354 293.966 403.354 293.966 L 404.456 284.909 L 412.777 280.014 L 416.449 272.426 L 413.512 265.696 L 403.354 258.598 L 394.543 250.765 L 389.892 241.955 L 394.42 246.36 L 400.541 250.03 L 406.781 257.863 L 419.753 260.433 L 426.606 263.615 L 422.077 248.196 L 430.645 259.944 C 430.645 259.944 433.213 265.696 433.213 265.573 C 433.213 265.451 434.683 258.109 434.683 258.109 L 442.638 253.213 L 438.72 263.371 L 436.884 270.713 L 441.658 271.937 L 439.089 274.261 L 440.067 285.397 L 443.616 292.985 L 450.225 277.688 L 446.064 264.594 L 448.756 253.581 L 449 238.038 L 453.407 224.087 L 445.33 217.968 L 457.567 195.207 L 450.225 216.131 L 456.099 220.172 L 464.543 216.5 L 457.446 223.476 L 452.183 235.59 L 450.714 261.413 C 450.714 261.413 453.774 276.588 453.774 276.71 C 453.774 276.831 466.622 262.024 466.622 262.024 L 465.399 244.402 L 470.662 234.122 L 470.783 216.744 L 467.969 200.592 L 473.109 209.891 L 475.311 232.532 L 469.193 243.912 L 469.805 253.581 L 479.594 250.765 L 489.631 242.321 L 482.655 252.723 L 471.641 258.352 L 470.294 263.615 L 479.594 262.513 L 469.928 265.94 L 463.319 274.139 L 460.505 285.886 L 454.631 295.555 C 454.631 295.555 458.547 304.979 458.424 318.196 C 458.361 324.992 457.586 330.3 456.847 333.853 L 526.621 333.853 L 526.621 369.098 L 522.375 369.098 L 522.375 529.182 L 516.854 529.182 L 516.854 549.989 L 505.814 549.989 L 505.814 529.182 L 416.641 529.182 L 416.641 549.99 L 405.176 549.99 L 405.176 529.182 L 393.288 529.182 L 393.288 369.098 L 13.67 369.098 Z M 108.787 418.78 L 130.018 418.78 L 130.018 450.626 L 108.787 450.626 Z M 49.339 447.653 L 102.417 447.653 L 102.417 520.265 L 49.339 520.265 Z M 644.714 128.57 L 689.182 128.57 L 689.182 190.141 L 644.714 190.141 Z M 552.171 172.642 L 619.081 172.642 L 619.081 266.555 L 552.171 266.555 Z M 634.163 208.633 L 701.073 208.633 L 701.073 302.546 L 634.163 302.546 Z" style="fill: url(#gradient-0); fill-opacity: 0.37;"/>
</svg>