<?xml version="1.0" encoding="utf-8"?>
<svg viewBox="0 0 2300 500" xmlns="http://www.w3.org/2000/svg" xmlns:bx="https://boxy-svg.com">
  <rect x="728.512" y="-18.457" width="270.68" height="536.954" style="fill: rgb(248, 240, 223);"/>
  <rect y="77.032" width="566.989" height="6.366" style="fill: rgb(248, 240, 223);" x="988.201"/>
  <rect x="988.201" y="165.238" width="566.989" height="6.366" style="fill: rgb(248, 240, 223);"/>
  <rect x="988.201" y="253.445" width="566.989" height="6.366" style="fill: rgb(248, 240, 223);"/>
  <rect x="988.201" y="341.651" width="566.989" height="6.366" style="fill: rgb(248, 240, 223);"/>
  <rect x="988.201" y="429.857" width="566.989" height="6.366" style="fill: rgb(248, 240, 223);"/>
  <path d="M 992.982 37.333 C 992.982 37.333 995.168 36.298 998.457 36.298 C 1001.547 36.298 1003.931 37.333 1003.931 37.333 L 1003.931 57.959 L 1003.931 78.586 L 998.457 78.586 L 992.982 78.586 L 992.982 57.959 L 992.982 37.333 Z" style="fill: rgb(248, 240, 223);"/>
  <path d="M 1003.753 45.22 C 1003.753 45.22 1005.539 44.377 1008.222 44.377 C 1010.746 44.377 1012.694 45.22 1012.694 45.22 L 1012.694 62.065 L 1012.694 78.907 L 1008.222 78.907 L 1003.753 78.907 L 1003.753 62.065 L 1003.753 45.22 Z" style="fill: rgb(248, 240, 223);"/>
  <path d="M 1012.507 41.42 C 1012.507 41.42 1014.461 40.497 1017.399 40.497 C 1020.162 40.497 1022.295 41.42 1022.295 41.42 L 1022.295 59.863 L 1022.295 78.299 L 1017.399 78.299 L 1012.507 78.299 L 1012.507 59.863 L 1012.507 41.42 Z" style="fill: rgb(248, 240, 223);"/>
  <path d="M 1022.069 44.205 C 1022.069 44.205 1024.023 43.282 1026.961 43.282 C 1029.724 43.282 1031.857 44.205 1031.857 44.205 L 1031.857 62.648 L 1031.857 81.084 L 1026.961 81.084 L 1022.069 81.084 L 1022.069 62.648 L 1022.069 44.205 Z" style="fill: rgb(248, 240, 223);"/>
  <path d="M 1031.363 41.907 C 1031.363 41.907 1033.442 40.927 1036.568 40.927 C 1039.506 40.927 1041.775 41.907 1041.775 41.907 L 1041.775 61.527 L 1041.775 81.138 L 1036.568 81.138 L 1031.363 81.138 L 1031.363 61.527 L 1031.363 41.907 Z" style="fill: rgb(248, 240, 223);"/>
  <path d="M 1217.688 33.484 C 1217.688 33.484 1220.085 32.351 1223.691 32.351 C 1227.081 32.351 1229.695 33.484 1229.695 33.484 L 1229.695 56.107 L 1229.695 78.726 L 1223.691 78.726 L 1217.688 78.726 L 1217.688 56.107 L 1217.688 33.484 Z" style="fill: rgb(248, 240, 223);"/>
  <path d="M 1229.144 38.67 C 1229.144 38.67 1231.331 37.635 1234.619 37.635 C 1237.71 37.635 1240.094 38.67 1240.094 38.67 L 1240.094 59.296 L 1240.094 79.922 L 1234.619 79.922 L 1229.144 79.922 L 1229.144 59.296 L 1229.144 38.67 Z" style="fill: rgb(248, 240, 223);"/>
  <path d="M 1348.713 38.577 C 1348.713 38.577 1350.792 37.597 1353.917 37.597 C 1356.855 37.597 1359.125 38.577 1359.125 38.577 L 1359.125 58.198 L 1359.125 77.809 L 1353.917 77.809 L 1348.713 77.809 L 1348.713 58.198 L 1348.713 38.577 Z" style="fill: rgb(248, 240, 223);"/>
  <path d="M 1358.329 41.388 C 1358.329 41.388 1360.408 40.408 1363.533 40.408 C 1366.471 40.408 1368.741 41.388 1368.741 41.388 L 1368.741 61.009 L 1368.741 80.62 L 1363.533 80.62 L 1358.329 80.62 L 1358.329 61.009 L 1358.329 41.388 Z" style="fill: rgb(248, 240, 223);"/>
  <path d="M 1368.123 39.937 C 1368.123 39.937 1370.202 38.956 1373.328 38.956 C 1376.266 38.956 1378.535 39.937 1378.535 39.937 L 1378.535 59.557 L 1378.535 79.168 L 1373.328 79.168 L 1368.123 79.168 L 1368.123 59.557 L 1368.123 39.937 Z" style="fill: rgb(248, 240, 223);"/>
  <path d="M 1377.437 41.63 C 1377.437 41.63 1379.516 40.65 1382.642 40.65 C 1385.579 40.65 1387.849 41.63 1387.849 41.63 L 1387.849 61.25 L 1387.849 80.861 L 1382.642 80.861 L 1377.437 80.861 L 1377.437 61.25 L 1377.437 41.63 Z" style="fill: rgb(248, 240, 223);"/>
  <path d="M 1386.627 39.937 C 1386.627 39.937 1388.705 38.956 1391.831 38.956 C 1394.769 38.956 1397.039 39.937 1397.039 39.937 L 1397.039 59.557 L 1397.039 79.168 L 1391.831 79.168 L 1386.627 79.168 L 1386.627 59.557 L 1386.627 39.937 Z" style="fill: rgb(248, 240, 223);"/>
  <path d="M 1396.905 41.025 C 1396.905 41.025 1398.983 40.045 1402.109 40.045 C 1405.047 40.045 1407.317 41.025 1407.317 41.025 L 1407.317 60.646 L 1407.317 80.257 L 1402.109 80.257 L 1396.905 80.257 L 1396.905 60.646 L 1396.905 41.025 Z" style="fill: rgb(248, 240, 223);"/>
  <path d="M 1406.699 38.756 C 1406.699 38.756 1408.841 37.747 1412.06 37.747 C 1415.087 37.747 1417.423 38.756 1417.423 38.756 L 1417.423 58.968 L 1417.423 79.168 L 1412.06 79.168 L 1406.699 79.168 L 1406.699 58.968 L 1406.699 38.756 Z" style="fill: rgb(248, 240, 223);"/>
  <path d="M 1417.219 40.662 C 1417.219 40.662 1419.298 39.682 1422.424 39.682 C 1425.362 39.682 1427.631 40.662 1427.631 40.662 L 1427.631 60.283 L 1427.631 79.894 L 1422.424 79.894 L 1417.219 79.894 L 1417.219 60.283 L 1417.219 40.662 Z" style="fill: rgb(248, 240, 223);"/>
  <path d="M 1427.256 39.816 C 1427.256 39.816 1429.334 38.835 1432.46 38.835 C 1435.398 38.835 1437.667 39.816 1437.667 39.816 L 1437.667 59.436 L 1437.667 79.047 L 1432.46 79.047 L 1427.256 79.047 L 1427.256 59.436 L 1427.256 39.816 Z" style="fill: rgb(248, 240, 223);"/>
  <rect x="1373.78" y="117.406" width="74.089" height="49.134" style="fill: rgb(248, 240, 223);"/>
  <path d="M 1319.712 131.813 C 1319.712 131.813 1321.959 130.963 1325.247 130.963 C 1328.338 130.963 1330.662 131.813 1330.662 131.813 L 1330.662 152.439 L 1330.662 188.628 C 1330.662 188.628 1328.045 189.36 1325.002 189.36 C 1322.182 189.36 1319.712 188.628 1319.712 188.628 L 1319.712 152.439 L 1319.712 131.813 Z" style="fill: rgb(248, 240, 223);" transform="matrix(0, -1, 1, 0, 1165.025513, 1485.348511)"/>
  <path d="M 1320.345 127.01 C 1320.345 127.01 1322.217 126.3 1324.955 126.3 C 1327.53 126.3 1329.465 127.01 1329.465 127.01 L 1329.465 144.186 L 1329.465 174.323 C 1329.465 174.323 1327.285 174.934 1324.751 174.934 C 1322.402 174.934 1320.345 174.323 1320.345 174.323 L 1320.345 144.186 L 1320.345 127.01 Z" style="fill: rgb(248, 240, 223);" transform="matrix(0, -1, 1, 0, 1174.287964, 1475.521973)"/>
  <path d="M 1320.648 118.772 C 1320.648 118.772 1322.519 118.062 1325.257 118.062 C 1327.832 118.062 1329.767 118.772 1329.767 118.772 L 1329.767 135.948 L 1329.767 166.085 C 1329.767 166.085 1327.587 166.696 1325.053 166.696 C 1322.704 166.696 1320.648 166.085 1320.648 166.085 L 1320.648 135.948 L 1320.648 118.772 Z" style="fill: rgb(248, 240, 223);" transform="matrix(0, -1, 1, 0, 1182.828461, 1467.586456)"/>
  <path d="M 1320.033 108.07 C 1320.033 108.07 1322.02 107.316 1324.926 107.316 C 1327.657 107.316 1329.713 108.07 1329.713 108.07 L 1329.713 126.303 L 1329.713 158.293 C 1329.713 158.293 1327.399 158.942 1324.709 158.942 C 1322.214 158.942 1320.033 158.293 1320.033 158.293 L 1320.033 126.303 L 1320.033 108.07 Z" style="fill: rgb(248, 240, 223);" transform="matrix(0, -1, 1, 0, 1191.743984, 1458.001987)"/>
  <path d="M 1321.877 104.83 C 1321.877 104.83 1322.933 104.2 1324.48 104.2 C 1325.935 104.2 1327.03 104.83 1327.03 104.83 L 1327.03 120.052 L 1327.03 146.761 C 1327.03 146.761 1325.798 147.302 1324.366 147.302 C 1323.038 147.302 1321.877 146.761 1321.877 146.761 L 1321.877 120.052 L 1321.877 104.83 Z" style="fill: rgb(248, 240, 223);" transform="matrix(0, -1, 1, 0, 1198.702492, 1450.204491)"/>
  <path d="M 1236.166 124.788 C 1236.166 124.788 1242.268 123.753 1251.445 123.753 C 1260.071 123.753 1266.723 124.788 1266.723 124.788 L 1266.723 145.414 L 1266.723 166.041 L 1251.445 166.041 L 1236.166 166.041 L 1236.166 145.414 L 1236.166 124.788 Z" style="fill: rgb(248, 240, 223);"/>
  <ellipse style="fill: rgb(248, 240, 223);" cx="1249.847" cy="120.274" rx="9.196" ry="9.196"/>
  <ellipse style="fill: rgb(248, 240, 223);" cx="1256.496" cy="111.04" rx="4.902" ry="4.902"/>
  <ellipse style="fill: rgb(248, 240, 223);" cx="1256.69" cy="101.755" rx="7.525" ry="7.525"/>
  <path d="M 1034.737 208.831 C 1034.737 208.831 1036.415 207.647 1038.939 207.647 C 1041.31 207.647 1043.141 208.831 1043.141 208.831 L 1043.141 232.472 L 1043.141 256.106 L 1038.939 256.106 L 1034.737 256.106 L 1034.737 232.472 L 1034.737 208.831 Z" style="fill: rgb(248, 240, 223);" transform="matrix(0.999028, 0.044081, -0.044081, 0.999028, 11.231239, -45.572081)"/>
  <path d="M 1041.686 210.502 C 1041.686 210.502 1043.29 209.369 1045.706 209.369 C 1047.976 209.369 1049.726 210.502 1049.726 210.502 L 1049.726 233.124 L 1049.726 255.743 L 1045.706 255.743 L 1041.686 255.743 L 1041.686 233.124 L 1041.686 210.502 Z" style="fill: rgb(248, 240, 223);"/>
  <path d="M 1047.96 208.748 C 1047.96 208.748 1049.564 207.615 1051.98 207.615 C 1054.25 207.615 1056 208.748 1056 208.748 L 1056 231.37 L 1056 253.989 L 1051.98 253.989 L 1047.96 253.989 L 1047.96 231.37 L 1047.96 208.748 Z" style="fill: rgb(248, 240, 223);"/>
  <path d="M 1055.154 209.945 C 1055.154 209.945 1056.758 208.812 1059.174 208.812 C 1061.443 208.812 1063.194 209.945 1063.194 209.945 L 1063.194 232.567 L 1063.194 255.186 L 1059.174 255.186 L 1055.154 255.186 L 1055.154 232.567 L 1055.154 209.945 Z" style="fill: rgb(248, 240, 223);"/>
  <path d="M 1061.797 210.317 C 1061.797 210.317 1063.401 209.184 1065.817 209.184 C 1068.086 209.184 1069.837 210.317 1069.837 210.317 L 1069.837 232.939 L 1069.837 255.558 L 1065.817 255.558 L 1061.797 255.558 L 1061.797 232.939 L 1061.797 210.317 Z" style="fill: rgb(248, 240, 223);" transform="matrix(0.999341, 0.036293, -0.036293, 0.999341, 9.135611, -38.528616)"/>
  <path d="M 1068.529 214.796 C 1068.529 214.796 1069.945 213.796 1072.078 213.796 C 1074.08 213.796 1075.627 214.796 1075.627 214.796 L 1075.627 234.763 L 1075.627 254.728 L 1072.078 254.728 L 1068.529 254.728 L 1068.529 234.763 L 1068.529 214.796 Z" style="fill: rgb(248, 240, 223);"/>
  <path style="fill: rgb(248, 240, 223);" d="M 1135.625 255.88 L 1130.443 250.08 L 1134.696 244.045 L 1131.449 241.801 L 1136.863 237.854 L 1134.387 232.828 L 1140.807 230.969 L 1139.572 228.496 L 1142.898 225.631 L 1147.616 218.361 L 1151.174 227.025 L 1154.039 230.893 L 1154.268 235.534 L 1159.686 238.242 C 1159.686 238.242 1158.059 243.272 1158.059 243.348 C 1158.059 243.424 1161.156 248.61 1161.156 248.61 L 1160.151 255.262 L 1135.625 255.88 Z"/>
  <path d="M 1218.356 231.281 C 1218.356 231.281 1220.027 230.711 1222.472 230.711 C 1224.77 230.711 1226.502 231.281 1226.502 231.281 L 1226.502 245.115 L 1226.502 269.383 C 1226.502 269.383 1224.554 269.873 1222.291 269.873 C 1220.193 269.873 1218.356 269.383 1218.356 269.383 L 1218.356 245.115 L 1218.356 231.281 Z" style="fill: rgb(248, 240, 223);" transform="matrix(0, -1, 1, 0, 972.136963, 1472.720947)"/>
  <path d="M 1218.28 222.037 C 1218.28 222.037 1219.951 221.42 1222.396 221.42 C 1224.694 221.42 1226.425 222.037 1226.425 222.037 L 1226.425 236.982 L 1226.425 263.201 C 1226.425 263.201 1224.477 263.733 1222.214 263.733 C 1220.117 263.733 1218.28 263.201 1218.28 263.201 L 1218.28 236.982 L 1218.28 222.037 Z" style="fill: rgb(248, 240, 223);" transform="matrix(0, -1, 1, 0, 979.776039, 1464.929039)"/>
  <path d="M 1218.28 217.027 C 1218.28 217.027 1219.951 216.457 1222.396 216.457 C 1224.694 216.457 1226.425 217.027 1226.425 217.027 L 1226.425 230.861 L 1226.425 255.129 C 1226.425 255.129 1224.477 255.619 1222.214 255.619 C 1220.117 255.619 1218.28 255.129 1218.28 255.129 L 1218.28 230.861 L 1218.28 217.027 Z" style="fill: rgb(248, 240, 223);" transform="matrix(0, -1, 1, 0, 986.314537, 1458.390541)"/>
  <path d="M 1218.28 209.152 C 1218.28 209.152 1219.951 208.583 1222.396 208.583 C 1224.694 208.583 1226.425 209.152 1226.425 209.152 L 1226.425 222.986 L 1226.425 247.254 C 1226.425 247.254 1224.477 247.744 1222.214 247.744 C 1220.117 247.744 1218.28 247.254 1218.28 247.254 L 1218.28 222.986 L 1218.28 209.152 Z" style="fill: rgb(248, 240, 223);" transform="matrix(0, -1, 1, 0, 994.189041, 1450.516037)"/>
  <path d="M 1218.91 201.669 C 1218.91 201.669 1220.581 201.099 1223.026 201.099 C 1225.324 201.099 1227.056 201.669 1227.056 201.669 L 1227.056 215.503 L 1227.056 239.77 C 1227.056 239.77 1225.108 240.261 1222.844 240.261 C 1220.747 240.261 1218.91 239.77 1218.91 239.77 L 1218.91 215.503 L 1218.91 201.669 Z" style="fill: rgb(248, 240, 223);" transform="matrix(0, -1, 1, 0, 1002.303032, 1443.663033)"/>
  <rect x="1277.122" y="186.702" width="55.061" height="69.162" style="fill: rgb(248, 240, 223);"/>
  <rect x="1412.957" y="213.198" width="28.489" height="42.685" style="fill: rgb(248, 240, 223);"/>
  <path d="M 1427.154 193.619 L 1447.662 215.426 L 1406.645 215.426 L 1427.154 193.619 Z" style="fill: rgb(248, 240, 223);" bx:shape="triangle 1406.645 193.619 41.017 21.807 0.5 0 1@f0dc8a47"/>
  <rect x="1489.284" y="184.515" width="28.148" height="35.128" style="fill: rgb(248, 240, 223);"/>
  <rect x="1309.94" y="318.564" width="6.901" height="25.516" style="fill: rgb(248, 240, 223);"/>
  <rect x="1301.769" y="310.39" width="22.883" height="10.625" style="fill: rgb(248, 240, 223);"/>
  <ellipse style="fill: rgb(248, 240, 223);" cx="1313.164" cy="304.078" rx="8.4" ry="8.4"/>
  <rect x="1275.709" y="312.933" width="18.978" height="31.146" style="fill: rgb(248, 240, 223);"/>
  <path d="M 1239.813 313.92 C 1239.813 313.92 1241.485 313.207 1243.929 313.207 C 1246.227 313.207 1247.959 313.92 1247.959 313.92 L 1247.959 331.192 L 1247.959 361.488 C 1247.959 361.488 1246.011 362.102 1243.748 362.102 C 1241.65 362.102 1239.813 361.488 1239.813 361.488 L 1239.813 331.192 L 1239.813 313.92 Z" style="fill: rgb(248, 240, 223);" transform="matrix(0, -1, 1, 0, 906.231491, 1581.540482)"/>
  <path d="M 1235.994 309.483 C 1235.994 309.483 1237.665 308.866 1240.11 308.866 C 1242.408 308.866 1244.139 309.483 1244.139 309.483 L 1244.139 324.428 L 1244.139 350.64 C 1244.139 350.64 1242.191 351.172 1239.928 351.172 C 1237.83 351.172 1235.994 350.64 1235.994 350.64 L 1235.994 324.428 L 1235.994 309.483 Z" style="fill: rgb(248, 240, 223);" transform="matrix(0, -1, 1, 0, 910.047531, 1570.085526)"/>
  <path d="M 1234.644 301.996 C 1234.644 301.996 1236.315 301.379 1238.76 301.379 C 1241.058 301.379 1242.79 301.996 1242.79 301.996 L 1242.79 316.941 L 1242.79 343.154 C 1242.79 343.154 1240.842 343.685 1238.578 343.685 C 1236.481 343.685 1234.644 343.154 1234.644 343.154 L 1234.644 316.941 L 1234.644 301.996 Z" style="fill: rgb(248, 240, 223);" transform="matrix(0, -1, 1, 0, 916.185043, 1561.249039)"/>
  <path d="M 1235.545 294.809 C 1235.545 294.809 1237.216 294.192 1239.661 294.192 C 1241.959 294.192 1243.69 294.809 1243.69 294.809 L 1243.69 309.754 L 1243.69 335.966 C 1243.69 335.966 1241.742 336.498 1239.479 336.498 C 1237.382 336.498 1235.545 335.966 1235.545 335.966 L 1235.545 309.754 L 1235.545 294.809 Z" style="fill: rgb(248, 240, 223);" transform="matrix(0, -1, 1, 0, 924.272507, 1554.962479)"/>
  <path d="M 1234.345 287.173 C 1234.345 287.173 1236.016 286.555 1238.461 286.555 C 1240.759 286.555 1242.491 287.173 1242.491 287.173 L 1242.491 302.117 L 1242.491 328.33 C 1242.491 328.33 1240.542 328.862 1238.279 328.862 C 1236.182 328.862 1234.345 328.33 1234.345 328.33 L 1234.345 302.117 L 1234.345 287.173 Z" style="fill: rgb(248, 240, 223);" transform="matrix(0, -1, 1, 0, 930.709473, 1546.126465)"/>
  <path style="fill: rgb(248, 240, 223);" d="M 1145.801 296.993 L 1133.238 291.76 L 1134.285 287.676 C 1134.285 287.676 1156.481 286.418 1156.481 286.733 C 1156.481 287.049 1154.806 301.809 1154.806 301.809 L 1176.897 307.777 L 1183.177 317.724 C 1183.177 317.724 1183.177 345.258 1183.177 345.047 C 1183.177 344.837 1173.44 344.21 1173.44 344.21 L 1171.976 324.736 L 1158.053 324.319 L 1158.89 344.942 L 1145.906 345.258 L 1147.581 311.024 L 1145.801 296.993 Z"/>
  <path d="M 993.965 303.543 C 993.965 303.543 995.57 302.572 997.985 302.572 C 1000.255 302.572 1002.006 303.543 1002.006 303.543 L 1002.006 322.909 L 1002.006 342.275 L 997.985 342.275 L 993.965 342.275 L 993.965 322.909 L 993.965 303.543 Z" style="fill: rgb(248, 240, 223);"/>
  <path d="M 1000.968 297.868 C 1000.968 297.868 1003.721 296.741 1007.872 296.741 C 1011.768 296.741 1014.776 297.868 1014.776 297.868 L 1014.776 320.379 L 1014.776 342.889 L 1007.872 342.889 L 1000.968 342.889 L 1000.968 320.379 L 1000.968 297.868 Z" style="fill: rgb(248, 240, 223);"/>
  <path d="M 1013.914 298.263 C 1013.914 298.263 1015.133 297.136 1016.973 297.136 C 1018.698 297.136 1020.031 298.263 1020.031 298.263 L 1020.031 320.773 L 1020.031 343.284 L 1016.973 343.284 L 1013.914 343.284 L 1013.914 320.773 L 1013.914 298.263 Z" style="fill: rgb(248, 240, 223);"/>
  <path d="M 1019.691 298.403 C 1019.691 298.403 1020.91 297.276 1022.75 297.276 C 1024.475 297.276 1025.809 298.403 1025.809 298.403 L 1025.809 320.913 L 1025.809 343.424 L 1022.75 343.424 L 1019.691 343.424 L 1019.691 320.913 L 1019.691 298.403 Z" style="fill: rgb(248, 240, 223);"/>
  <path d="M 1025.529 298.403 C 1025.529 298.403 1026.748 297.276 1028.588 297.276 C 1030.313 297.276 1031.647 298.403 1031.647 298.403 L 1031.647 320.913 L 1031.647 343.424 L 1028.588 343.424 L 1025.529 343.424 L 1025.529 320.913 L 1025.529 298.403 Z" style="fill: rgb(248, 240, 223);"/>
  <path d="M 1031.37 298.74 C 1031.37 298.74 1032.589 297.613 1034.429 297.613 C 1036.154 297.613 1037.487 298.74 1037.487 298.74 L 1037.487 321.251 L 1037.487 343.762 L 1034.429 343.762 L 1031.37 343.762 L 1031.37 321.251 L 1031.37 298.74 Z" style="fill: rgb(248, 240, 223);"/>
  <path d="M 1036.937 297.935 C 1036.937 297.935 1038.156 296.808 1039.996 296.808 C 1041.721 296.808 1043.055 297.935 1043.055 297.935 L 1043.055 320.445 L 1043.055 342.956 L 1039.996 342.956 L 1036.937 342.956 L 1036.937 320.445 L 1036.937 297.935 Z" style="fill: rgb(248, 240, 223);"/>
  <path d="M 1042.173 299.946 C 1042.173 299.946 1043.392 298.82 1045.232 298.82 C 1046.957 298.82 1048.291 299.946 1048.291 299.946 L 1048.291 322.457 L 1048.291 344.968 L 1045.232 344.968 L 1042.173 344.968 L 1042.173 322.457 L 1042.173 299.946 Z" style="fill: rgb(248, 240, 223);"/>
  <path d="M 1047.272 297.464 C 1047.272 297.464 1048.491 296.337 1050.331 296.337 C 1052.056 296.337 1053.39 297.464 1053.39 297.464 L 1053.39 319.974 L 1053.39 342.485 L 1050.331 342.485 L 1047.272 342.485 L 1047.272 319.974 L 1047.272 297.464 Z" style="fill: rgb(248, 240, 223);"/>
  <path d="M 1052.976 298.941 C 1052.976 298.941 1054.195 297.814 1056.035 297.814 C 1057.761 297.814 1059.094 298.941 1059.094 298.941 L 1059.094 321.451 L 1059.094 343.962 L 1056.035 343.962 L 1052.976 343.962 L 1052.976 321.451 L 1052.976 298.941 Z" style="fill: rgb(248, 240, 223);"/>
  <path d="M 1058.884 298.403 C 1058.884 298.403 1060.103 297.276 1061.943 297.276 C 1063.668 297.276 1065.002 298.403 1065.002 298.403 L 1065.002 320.913 L 1065.002 343.424 L 1061.943 343.424 L 1058.884 343.424 L 1058.884 320.913 L 1058.884 298.403 Z" style="fill: rgb(248, 240, 223);"/>
  <path d="M 1064.455 298.606 C 1064.455 298.606 1065.674 297.48 1067.513 297.48 C 1069.239 297.48 1070.572 298.606 1070.572 298.606 L 1070.572 321.117 L 1070.572 343.628 L 1067.513 343.628 L 1064.455 343.628 L 1064.455 321.117 L 1064.455 298.606 Z" style="fill: rgb(248, 240, 223);"/>
  <path d="M 1070.225 298.068 C 1070.225 298.068 1072.167 296.942 1075.096 296.942 C 1077.843 296.942 1079.966 298.068 1079.966 298.068 L 1079.966 320.579 L 1079.966 343.09 L 1075.096 343.09 L 1070.225 343.09 L 1070.225 320.579 L 1070.225 298.068 Z" style="fill: rgb(248, 240, 223);"/>
  <path d="M 1079.304 298.727 C 1079.304 298.727 1080.523 297.601 1082.363 297.601 C 1084.088 297.601 1085.421 298.727 1085.421 298.727 L 1085.421 321.238 L 1085.421 343.749 L 1082.363 343.749 L 1079.304 343.749 L 1079.304 321.238 L 1079.304 298.727 Z" style="fill: rgb(248, 240, 223);"/>
  <path d="M 1085.412 298.925 C 1085.412 298.925 1086.631 297.798 1088.471 297.798 C 1090.196 297.798 1091.53 298.925 1091.53 298.925 L 1091.53 321.435 L 1091.53 343.946 L 1088.471 343.946 L 1085.412 343.946 L 1085.412 321.435 L 1085.412 298.925 Z" style="fill: rgb(248, 240, 223);"/>
  <path d="M 1090.861 298.794 C 1090.861 298.794 1092.08 297.667 1093.92 297.667 C 1095.646 297.667 1096.979 298.794 1096.979 298.794 L 1096.979 321.305 L 1096.979 343.816 L 1093.92 343.816 L 1090.861 343.816 L 1090.861 321.305 L 1090.861 298.794 Z" style="fill: rgb(248, 240, 223);"/>
  <path d="M 1096.642 299.058 C 1096.642 299.058 1097.861 297.932 1099.701 297.932 C 1101.426 297.932 1102.76 299.058 1102.76 299.058 L 1102.76 321.569 L 1102.76 344.08 L 1099.701 344.08 L 1096.642 344.08 L 1096.642 321.569 L 1096.642 299.058 Z" style="fill: rgb(248, 240, 223);"/>
  <path d="M 1102.419 296.604 C 1102.419 296.604 1103.638 295.433 1105.478 295.433 C 1107.203 295.433 1108.537 296.604 1108.537 296.604 L 1108.537 320.013 L 1108.537 343.421 L 1105.478 343.421 L 1102.419 343.421 L 1102.419 320.013 L 1102.419 296.604 Z" style="fill: rgb(248, 240, 223);"/>
  <path d="M 1108.263 298.992 C 1108.263 298.992 1109.482 297.865 1111.322 297.865 C 1113.047 297.865 1114.381 298.992 1114.381 298.992 L 1114.381 321.502 L 1114.381 344.013 L 1111.322 344.013 L 1108.263 344.013 L 1108.263 321.502 L 1108.263 298.992 Z" style="fill: rgb(248, 240, 223);"/>
  <path style="fill: rgb(248, 240, 223);" d="M 1457.304 343.004 C 1457.304 343.004 1467.254 339.471 1468.184 336.214 C 1469.113 332.958 1468.741 321.894 1468.741 321.894 C 1468.741 321.894 1453.863 322.546 1450.699 314.27 C 1447.535 305.994 1453.49 301.251 1453.49 301.251 C 1453.49 301.251 1438.89 295.764 1440.099 289.999 C 1441.309 284.235 1443.352 283.21 1443.352 283.21 C 1443.352 283.21 1440.936 275.491 1453.398 270.563 C 1465.86 265.636 1470.323 271.773 1470.323 271.773 C 1470.323 271.773 1476.832 261.17 1487.524 265.821 C 1498.216 270.471 1491.153 284.139 1491.153 284.139 C 1491.153 284.139 1502.589 292.972 1502.405 302.273 C 1502.22 311.574 1481.944 315.572 1481.944 315.572 C 1481.944 315.572 1477.574 329.613 1480.458 333.334 C 1483.341 337.055 1495.058 344.026 1495.058 344.026 C 1495.058 344.026 1456.651 343.189 1457.304 343.004 Z"/>
  <path style="fill: rgb(248, 240, 223);" d="M 999.914 432.554 C 999.914 432.554 993.679 430.647 993.093 425.073 C 992.507 419.5 996.394 417.443 996.394 417.443 C 996.394 417.443 993.972 413.481 997.202 410.18 C 1000.433 406.879 1004.097 410.915 1004.097 410.915 L 1022.435 410.988 L 1022.584 400.643 L 1032.487 400.497 L 1032.267 418.691 C 1032.267 418.691 1037.621 421.403 1037.841 426.025 C 1038.06 430.647 1037.548 433.582 1037.548 433.582 L 999.914 432.554 Z"/>
  <rect x="634.327" y="406.556" width="57.595" height="73.774" style="fill: rgb(248, 240, 223);" transform="matrix(0.998672, -0.051513, 0.051513, 0.998672, 402.37085, -13.252196)"/>
  <rect x="1151.747" y="401.003" width="72.421" height="30.968" style="fill: rgb(248, 240, 223);"/>
  <ellipse style="fill: rgb(248, 240, 223);" cx="1453.853" cy="372.619" rx="9.731" ry="9.731"/>
  <ellipse style="fill: rgb(248, 240, 223);" cx="1465.255" cy="386.701" rx="9.371" ry="9.371"/>
  <ellipse style="fill: rgb(248, 240, 223);" cx="1432.842" cy="417.803" rx="13.235" ry="13.235"/>
  <ellipse style="fill: rgb(248, 240, 223);" cx="1455.817" cy="418.71" rx="12.592" ry="12.592"/>
  <ellipse style="fill: rgb(248, 240, 223);" cx="1476.109" cy="419.936" rx="11.876" ry="11.876"/>
  <ellipse style="fill: rgb(248, 240, 223);" cx="1498.713" cy="418.389" rx="13.165" ry="13.165"/>
  <ellipse style="fill: rgb(248, 240, 223);" cx="1520.717" cy="420.461" rx="11.663" ry="11.663"/>
  <ellipse style="fill: rgb(248, 240, 223);" cx="1518.632" cy="402.769" rx="8.515" ry="8.515"/>
  <ellipse style="fill: rgb(248, 240, 223);" cx="1504.977" cy="403.167" rx="6.653" ry="6.653"/>
  <ellipse style="fill: rgb(248, 240, 223);" cx="1489.612" cy="401.55" rx="10.374" ry="10.374"/>
  <ellipse style="fill: rgb(248, 240, 223);" cx="1472.91" cy="402.321" rx="8.944" ry="8.944"/>
  <ellipse style="fill: rgb(248, 240, 223);" cx="1455.856" cy="401.983" rx="9.371" ry="9.371"/>
  <ellipse style="fill: rgb(248, 240, 223);" cx="1439.759" cy="399.192" rx="9.014" ry="9.014"/>
  <ellipse style="fill: rgb(248, 240, 223);" cx="1448.916" cy="386.313" rx="8.012" ry="8.012"/>
  <ellipse style="fill: rgb(248, 240, 223);" cx="1480.031" cy="387.557" rx="8.228" ry="8.228"/>
  <ellipse style="fill: rgb(248, 240, 223);" cx="1496.363" cy="384.61" rx="9.231" ry="9.231"/>
  <ellipse style="fill: rgb(248, 240, 223);" cx="1510.818" cy="390.219" rx="8.515" ry="8.515"/>
  <ellipse style="fill: rgb(248, 240, 223);" cx="1474.817" cy="371.352" rx="9.731" ry="9.731"/>
  <rect x="726.489" y="-18.276" width="262.753" height="536.954" style="fill: rgb(248, 240, 223);"/>
  <rect x="1721.892" y="-99.771" width="172.044" height="280.322" style="fill: rgb(248, 240, 223);"/>
  <rect x="1871.68" y="-99.771" width="200.292" height="202.431" style="fill: rgb(248, 240, 223);"/>
  <rect x="2048.434" y="-99.771" width="190.019" height="280.75" style="fill: rgb(248, 240, 223);"/>
  <rect x="1643.137" y="276.381" width="600.425" height="23.482" style="fill: rgb(248, 240, 223);"/>
  <rect x="1938.285" y="193.039" width="18.419" height="94.391" style="fill: rgb(248, 240, 223);"/>
  <rect x="1902.476" y="269.708" width="20.776" height="9.737" style="fill: rgb(248, 240, 223);"/>
  <rect x="1975.622" y="271.656" width="19.909" height="9.521" style="fill: rgb(248, 240, 223);"/>
  <rect x="2009.814" y="256.29" width="15.797" height="26.617" style="fill: rgb(248, 240, 223);"/>
  <path style="fill: rgb(248, 240, 223);" d="M 2131.609 281.093 L 2134.788 242.442 L 2147.509 242.933 L 2127.206 232.903 L 2116.687 238.284 L 2117.665 227.766 L 2093.938 225.076 L 2100.543 220.428 L 2082.196 218.224 L 2089.534 206.972 L 2091.246 196.698 L 2118.155 217.981 L 2100.053 198.411 L 2107.881 188.625 L 2115.22 199.389 L 2124.517 196.209 L 2119.623 188.871 L 2131.366 186.67 L 2128.184 171.748 L 2211.844 170.769 L 2204.752 187.892 L 2210.378 191.563 C 2210.378 191.563 2204.506 195.475 2204.506 195.721 C 2204.506 195.966 2213.068 201.102 2213.068 201.102 C 2213.068 201.102 2202.305 203.305 2202.793 204.038 C 2203.282 204.771 2212.089 214.312 2212.089 214.312 C 2212.089 214.312 2197.657 211.132 2197.657 211.62 C 2197.657 212.108 2206.953 222.139 2206.953 222.139 C 2206.953 222.139 2186.894 216.023 2186.649 216.023 C 2186.405 216.023 2195.945 228.5 2195.945 228.5 C 2195.945 228.5 2187.138 227.766 2187.383 229.234 C 2187.629 230.701 2189.34 238.284 2189.34 238.284 L 2165.123 237.061 L 2162.92 242.687 L 2171.483 282.316 L 2131.609 281.093 Z"/>
  <rect x="1654.375" y="292.879" width="578.548" height="246.26" style="fill: rgb(248, 240, 223);"/>
  <rect x="1644.383" y="208.469" width="46.624" height="29.037" style="fill: rgb(248, 240, 223);"/>
  <rect x="36.142" y="56.43" width="464.476" height="14.173" style="fill: rgb(248, 240, 223);"/>
  <rect x="297.206" y="170.016" width="201.184" height="14.173" style="fill: rgb(248, 240, 223);"/>
  <rect x="13.67" y="333.853" width="512.951" height="35.245" style="fill: rgb(248, 240, 223);"/>
  <rect x="393.288" y="364.426" width="129.087" height="164.756" style="fill: rgb(248, 240, 223);"/>
  <rect x="405.176" y="525.786" width="11.465" height="24.204" style="fill: rgb(248, 240, 223);"/>
  <rect x="505.814" y="526.634" width="11.04" height="23.355" style="fill: rgb(248, 240, 223);"/>
  <rect x="108.787" y="418.78" width="21.231" height="31.846" style="fill: rgb(248, 240, 223);"/>
  <rect x="49.339" y="447.653" width="53.078" height="72.612" style="fill: rgb(248, 240, 223);"/>
  <rect x="169.932" y="276.529" width="81.528" height="61.571" style="fill: rgb(248, 240, 223);"/>
  <rect x="227.682" y="-66.146" width="102.336" height="127.813" style="fill: rgb(248, 240, 223);"/>
  <rect x="349.974" y="-64.871" width="102.336" height="126.115" style="fill: rgb(248, 240, 223);"/>
  <ellipse style="fill: rgb(248, 240, 223);" cx="358.352" cy="147.862" rx="31.186" ry="31.186"/>
  <path style="fill: rgb(248, 240, 223);" d="M 437.556 173.803 L 428.003 162.035 L 435.479 149.159 C 435.479 149.159 428.695 145.283 429.526 138.361 C 430.356 131.44 432.156 127.146 441.433 125.9 C 450.709 124.654 470.644 121.194 478.95 127.563 C 487.257 133.931 478.12 146.39 478.12 146.39 L 486.012 159.959 L 476.875 175.049 L 437.556 173.803 Z"/>
  <path style="fill: rgb(248, 240, 223);" d="M 340.952 124.443 C 340.952 124.443 327.597 117.873 327.488 107.532 C 327.381 97.192 337.29 95.037 337.29 95.037 L 342.352 99.455 L 341.599 92.56 C 341.599 92.56 344.183 88.467 357.647 86.744 C 371.111 85.021 377.79 88.791 383.39 93.099 C 388.992 97.407 393.839 102.901 392.33 110.225 C 390.823 117.55 383.282 117.873 383.282 117.873 C 383.282 117.873 378.328 107.641 372.297 110.655 C 366.265 113.671 369.711 123.259 369.711 123.259 L 340.952 124.443 Z"/>
  <path style="fill: rgb(248, 240, 223);" d="M 421.957 339.366 L 455.486 339 C 455.486 339 458.301 331.41 458.424 318.196 C 458.547 304.979 454.631 295.555 454.631 295.555 L 460.505 285.886 L 463.319 274.139 L 469.928 265.94 L 479.594 262.513 L 470.294 263.615 L 471.641 258.352 L 482.655 252.723 L 489.631 242.321 L 479.594 250.765 L 469.805 253.581 L 469.193 243.912 L 475.311 232.532 L 473.109 209.891 L 467.969 200.592 L 470.783 216.744 L 470.662 234.122 L 465.399 244.402 L 466.622 262.024 C 466.622 262.024 453.774 276.831 453.774 276.71 C 453.774 276.588 450.714 261.413 450.714 261.413 L 452.183 235.59 L 457.446 223.476 L 464.543 216.5 L 456.099 220.172 L 450.225 216.131 L 457.567 195.207 L 445.33 217.968 L 453.407 224.087 L 449 238.038 L 448.756 253.581 L 446.064 264.594 L 450.225 277.688 L 443.616 292.985 L 440.067 285.397 L 439.089 274.261 L 441.658 271.937 L 436.884 270.713 L 438.72 263.371 L 442.638 253.213 L 434.683 258.109 C 434.683 258.109 433.213 265.451 433.213 265.573 C 433.213 265.696 430.645 259.944 430.645 259.944 L 422.077 248.196 L 426.606 263.615 L 419.753 260.433 L 406.781 257.863 L 400.541 250.03 L 394.42 246.36 L 389.892 241.955 L 394.543 250.765 L 403.354 258.598 L 413.512 265.696 L 416.449 272.426 L 412.777 280.014 L 404.456 284.909 L 403.354 293.966 C 403.354 293.966 409.229 286.254 409.229 286.133 C 409.229 286.01 421.222 282.583 421.222 282.583 L 424.525 292.862 L 420.61 294.821 C 420.61 294.821 417.55 304.855 417.796 317.584 C 418.04 330.311 421.711 339.366 421.957 339.366 Z"/>
  <path style="fill: rgb(248, 240, 223);" d="M 73.215 337.534 L 119.83 338.358 L 119.83 329.489 L 113.848 326.704 L 99.926 326.807 L 100.029 315.464 L 105.289 312.266 L 103.743 308.141 L 104.463 303.397 L 77.34 266.991 L 107.557 219.964 L 111.374 230.689 C 111.374 230.689 105.702 239.558 107.248 245.54 C 108.795 251.521 112.199 257.09 112.199 257.09 C 112.199 257.09 117.664 259.464 129.73 254.925 C 141.797 250.388 143.137 242.549 143.137 242.549 C 143.137 242.549 142.312 237.599 137.054 231.618 C 131.794 225.635 121.479 225.636 121.479 225.636 L 115.189 216.354 L 103.947 210.579 L 72.7 253.997 C 72.7 253.997 64.036 265.754 64.243 265.651 C 64.45 265.548 95.801 308.761 95.801 308.761 L 94.563 327.221 L 79.918 327.014 L 73.319 329.695 L 73.215 337.534 Z"/>
  <rect x="644.714" y="128.57" width="44.468" height="61.571" style="fill: rgb(248, 240, 223);"/>
  <rect x="552.171" y="172.642" width="66.91" height="93.913" style="fill: rgb(248, 240, 223);"/>
  <rect x="634.163" y="208.633" width="66.91" height="93.913" style="fill: rgb(248, 240, 223);"/>
</svg>