<svg width="250" height="250" xmlns="http://www.w3.org/2000/svg">

 <g>
  <title>Layer 1</title>
  <path id="svg_4" stroke=" rgb(51, 51, 51)" fill=" rgb(51, 51, 51)" stroke-width=" 8px" d="m169.8,164.332c0,0 13.533,11.658 12.127,22.453c-1.405,10.797 -11.177,23.586 -11.177,23.586c0,0 10.448,12.94 13.543,18.488c0.152,0.265 0.29,0.515 0.411,0.748c2.722,5.246 0.599,8.698 -1.406,10.797c-2.006,2.098 -8.246,0.638 -16.647,-9.885c-3.945,-4.941 -5.166,-6.632 -5.931,-7.676c0.007,-0.011 0.014,-0.023 0.022,-0.034c-1.016,-1.387 -1.131,-1.561 -4.293,-5.052c-5.598,-6.18 -5.161,-11.148 -5.161,-11.148l-12.84,1.143c0,0 0.526,12.105 -7.089,18.487c0,0 -9.905,9.137 -14.539,10.094c-3.843,0.793 -13.645,-0.034 -16.881,-0.339c-1.537,1.639 -3,3 -4.031,3.541c-3.268,1.712 -7.99,-1.106 -9.272,-4.08c-0.769,-1.784 -0.06,-4.16 1.011,-6.356c-2.569,-2.894 -12.987,-15.136 -15.594,-26.08c-2.978,-12.511 -3.388,-23.7 0.883,-24.717c4.273,-1.018 6.94,2.604 9.91,17.502c2.496,12.531 10.457,20.612 12.925,22.865c1.177,-1.172 2.045,-1.997 2.045,-1.997c0.044,0.079 0.616,-0.323 1.541,-0.726c0.916,-1.37 1.601,-2.897 1.189,-4.044c-0.96,-2.673 -9.289,-14.362 -10.435,-19.441c-1.146,-5.08 -3.479,-10.263 0.244,-15.214c3.724,-4.949 11.654,-7.936 11.654,-7.936c0,0 5.58,-7.971 5.557,-22.258c-8.01,-25.13 -26.556,-33.351 -40.048,-38.547c-13.492,-5.197 -18.45,-4.815 -23.045,-4.586c-4.595,0.229 -17.906,-0.992 -17.906,-0.992l16.532,-18.478c0,0 -2.786,-8.637 -1.984,-12.813c0.802,-4.177 13.321,-16.485 16.114,-17.448c2.793,-0.962 12.451,6.273 12.451,6.273c0,0 -1.344,-7.753 -1.478,-11.109c-0.043,-1.088 0.187,-3.236 0.578,-5.789c-0.026,-0.013 -0.052,-0.025 -0.077,-0.038c0.801,-5.349 2.354,-12.673 3.584,-15.695c1.784,-4.377 10.947,-8.446 13.397,-4.147c0.589,1.033 0.888,2.694 0.992,4.684c0.421,6.275 -1.239,16.179 -1.741,19.698c-0.648,4.54 4.453,14.122 4.453,14.122l9.829,-11.604c0,0 -6.769,-15.064 -5.749,-21.252c0.154,-0.933 0.243,-1.858 0.288,-2.775c-0.015,-0.004 -0.029,-0.008 -0.044,-0.012c0.331,-5.304 -0.897,-10.344 0.256,-15.095c1.326,-5.463 8.817,-6.914 12.318,-5.188c1.419,0.7 2.007,3.922 2.233,7.878c0.376,5.858 -0.095,13.499 0.166,16.889c0.431,5.577 18.679,25.62 18.917,28.718c0.24,3.098 -3.393,14.225 -3.393,14.225c0,0 26.153,27.513 34.439,46.257c6.478,14.66 11.152,44.103 11.152,44.103zm-52.536,52.23c1.054,-1.8 2.115,-8.179 2.115,-8.179c0,0 -3.709,3.657 -4.997,5.834c-1.287,2.177 -3.105,6.995 -3.105,6.995c0.288,0.126 4.933,-2.852 5.987,-4.65z"/>
  <path id="svg_20" stroke-width=" 3px" stroke=" rgb(255, 255, 255)" fill=" rgb(255, 255, 255)" d="m164.88012,217.77587c2.98907,-2.54587 5.9228,-3.85345 8.56099,-4.43796c3.42809,4.36402 9.42414,12.18187 11.32857,15.85136c2.72198,5.24551 0.59924,8.69776 -1.40532,10.7971c-2.00603,2.09799 -8.24659,0.63792 -16.64706,-9.88509c-3.94498,-4.94125 -5.16685,-6.63235 -5.93171,-7.67632c0.97702,-1.55392 2.30644,-3.12564 4.09454,-4.6491z"/>
  <path id="svg_21" stroke-width=" 3px" stroke=" rgb(255, 255, 255)" fill=" rgb(255, 255, 255)" d="m104.5056,23.82163c-4.60886,3.01571 -8.31348,2.96887 -10.72759,2.30545c0.33101,-5.30416 -0.89753,-10.34359 0.25578,-15.09473c1.3262,-5.46309 8.81749,-6.91395 12.31862,-5.18834c2.17833,1.07523 2.39877,8.0996 2.35785,14.59484c-1.0638,1.08284 -2.43499,2.22465 -4.20466,3.38278zm-28.88598,20.58112c-2.8145,0.20093 -5.0885,-0.41563 -6.85039,-1.29421c0.80109,-5.34984 2.35381,-12.67393 3.58405,-15.69577c1.78365,-4.37643 10.9464,-8.44549 13.39621,-4.14696c1.6014,2.80812 1.05636,10.25442 0.30589,16.3445c-2.57131,2.15144 -6.27225,4.4947 -10.43577,4.79244z"/>
  <path id="svg_22" stroke-width=" 3px" stroke=" rgb(255, 255, 255)" fill=" rgb(255, 255, 255)" d="m97.88194,216.25403c0,0 -6.11465,5.80987 -7.8756,8.50071c-1.76095,2.69084 -4.58638,7.30826 -3.30462,10.28207c1.28176,2.97381 6.00434,5.79244 9.27184,4.08002c3.2675,-1.71243 10.86976,-11.66402 11.40396,-12.57537c0.5342,-0.91135 3.89411,-5.2404 3.89411,-5.2404c0,0 -1.25959,-3.65288 -5.42841,-5.76568c-4.16882,-2.11281 -7.84744,0.9231 -7.96129,0.71865z"/>
 </g>
</svg>