<svg width="250" height="250" xmlns="http://www.w3.org/2000/svg">

 <g>
  <title>Layer 1</title>
  <path id="svg_3" fill=" rgb(51, 51, 51)" stroke=" rgb(51, 51, 51)" stroke-width=" 8px" d="m171.275,86.749c2.776,3.664 1.366,4.917 0.195,6.278c-1.173,1.364 -1.606,0.674 -1.899,1.18c-0.295,0.507 0.645,1.6 -0.27,3.523c-0.917,1.923 -2.12,2.521 -3.756,3.382c-0.948,0.498 -2.476,0.368 -4.105,-0.147c-2.021,3.851 -3.722,3.933 -7.096,15.138c-4.559,15.146 0.996,39.79 2.682,44.729c1.686,4.939 5.854,7.79 8.071,15.46c2.219,7.671 7.537,19.444 9.812,24.242c0.403,0.854 0.912,1.7 1.502,2.524c-0.023,0.008 -0.047,0.017 -0.072,0.025c2.732,3.767 7.145,7.107 11.042,9.004c4.786,2.33 20.571,3.875 20.844,9.653c0.272,5.777 -3.756,4.401 -4.636,7.083c-1.271,3.876 2.776,7.909 -0.664,12.217c-3.439,4.307 -10.902,-0.36 -17.179,-3.199c-5.132,-2.324 -17.02,-5.098 -25.074,-8.358c0,0.008 0.001,0.016 0.001,0.023c-1.739,-0.71 -3.294,-1.443 -4.559,-2.198c-7.115,-4.254 -23.202,-24.624 -27.837,-24.254c-4.636,0.369 -20.997,-12.353 -20.997,-12.353c0,0 -9.065,7.279 -10.85,16.907c-1.786,9.629 3.503,8.356 11.955,17.138c8.452,8.781 24.001,-2.542 29.18,-4.784c5.18,-2.242 10.726,6.866 7.332,12.904c-3.394,6.039 -21.567,12.151 -28.289,10.04c-6.723,-2.112 -27.961,-0.481 -37.457,-23.929c-9.496,-23.449 13.007,-48.754 13.007,-48.754c0.522,0.62 -19.178,-25.266 -14.339,-51.122c4.839,-25.857 25.231,-40.008 32.739,-47.035c7.508,-7.027 14.385,-13.134 6.551,-20.133c-7.832,-6.999 -8.63,-17.569 -8.026,-18.544c1.166,-1.887 10.544,2.853 15.264,0.926c2.829,-1.155 2.907,-3.894 6.147,-6.801c3.24,-2.905 6.338,-2.334 7.912,-5.035c1.472,-2.524 -0.225,-4.97 0.454,-8.756c0.677,-3.785 3.405,-7.528 4.736,-7.123c0.869,0.263 0.556,4.043 1.133,6.449c0.578,2.405 0.985,4.083 2.485,5.358c3.773,3.208 6.886,-0.22 14.308,4.001c8.894,5.06 11.45,17.788 9.73,27.431c-1.72,9.642 -14.453,16.088 -14.453,16.088c0,0 4.808,8.204 6.802,16.999c2.049,0.085 5.32,0.716 7.674,3.823zm0.484,128.793c-0.015,-1.314 -2.638,-2.151 -3.589,-2.814c0.733,0.861 3.244,2.78 3.244,2.78c0,0 -4.907,0.575 -7.952,4.062c3.18,-2.971 8.311,-2.635 8.297,-4.028z"/>
  <path id="svg_5" stroke-width=" 3px" stroke=" rgb(255, 255, 255)" fill=" rgb(255, 255, 255)" d="m187.44602,211.6794c4.78512,2.32838 20.57185,3.87441 20.84368,9.65347c0.27272,5.77701 -3.75666,4.40063 -4.63547,7.0817c-1.271,3.87661 2.77508,7.91085 -0.66413,12.21809c-3.43986,4.30647 -10.90429,-0.35973 -17.18056,-3.20006c-5.16198,-2.3366 -17.16248,-5.13033 -25.21881,-8.41586c-0.08499,-1.90363 0.10637,-4.28176 1.00196,-6.86061c2.16942,-6.24869 10.24805,-5.27348 10.23003,-7.02303c-0.01475,-1.50655 -3.46572,-2.38687 -3.88541,-3.09499c-0.42033,-0.70888 -0.2453,-3.86412 2.86056,-6.47893c1.82221,-1.53411 4.02217,-2.47512 5.53044,-2.98935c2.72527,3.81157 7.18356,7.1942 11.1177,9.10958z"/>
  <path id="svg_6" fill=" rgb(255, 255, 255)" stroke-width=" 2px" d="m158.39341,58.03225c2.09544,2.10389 5.71524,0.45511 6.89243,-1.12159c1.17578,-1.57682 0.27553,-3.89606 0.32066,-3.93406c0.04743,-0.03993 3.16534,-0.46355 4.31852,-1.87624c1.15447,-1.41116 1.35182,-3.76819 -0.04538,-5.81285c-1.39796,-2.04402 -10.27795,-2.32366 -11.99443,0.14498c-1.7162,2.47363 -1.12155,10.95742 0.50819,12.59976z"/>
  <path id="svg_7" fill=" rgb(255, 255, 255)" d="m150.31779,45.96208c0.463,0.72908 -0.56473,3.12439 -1.63643,3.19714c-0.7045,0.05056 -0.24587,-1.08922 -0.85352,-1.66193c-0.54433,-0.51304 -1.10597,-0.89398 -1.12648,-1.39564c-0.02161,-0.51507 3.07089,-1.00415 3.61642,-0.13957zm-6.54902,4.14332c-0.45496,-0.72013 0.3976,-2.96311 0.99577,-2.68652c0.70214,0.32373 0.25645,1.04009 0.94559,1.68962c0.43954,0.41427 1.19975,0.69243 1.08244,1.22221c-0.18358,0.82462 -2.51471,0.57881 -3.0238,-0.22531z"/>
  <path id="svg_8" fill=" rgb(255, 255, 255)" d="m158.89822,38.02772c0.57187,0.51692 2.57845,0.27599 2.69203,-0.6112c0.07448,-0.58402 -0.91841,-0.4464 -1.356,-1.05921c-0.39168,-0.54851 -0.79732,-0.98752 -1.20336,-1.09325c-0.41952,-0.11084 -0.80973,2.15105 -0.13268,2.76365zm3.69514,-4.76808c-0.56478,-0.51215 -2.58441,-0.02105 -2.3871,0.53231c0.22973,0.64695 0.73963,0.41801 1.31334,1.0442c0.46945,0.51632 0.45518,1.13476 0.89216,1.13238c0.67982,-0.0099 0.81229,-2.14059 0.18161,-2.70889z"/>
  <path id="svg_9" fill=" rgb(51, 51, 51)" d="m160.97697,51.92162c-1.52879,0.10013 -2.35769,-0.42949 -2.25772,-1.07313c0.19436,-1.2473 0.84126,-2.71481 1.66521,-3.54967c0.82407,-0.83627 2.99439,-2.63076 4.15142,-1.95516c1.15727,0.67278 1.23909,4.10982 0.20443,5.23319c-1.0339,1.12272 -1.15093,1.17158 -3.76333,1.34477z"/>
  <path id="svg_10" stroke-width=" 3px" stroke=" rgb(255, 255, 255)" fill=" rgb(255, 255, 255)" d="m157.26361,86.89368c0.31161,-1.15692 0.13596,-1.04267 1.00359,-2.35988c0.86404,-1.317 2.60292,-1.96442 4.42428,-2.01943c1.82034,-0.05801 5.87225,0.16179 8.64821,3.82599c2.77536,3.66341 1.36541,4.91725 0.19319,6.27954c-1.17142,1.36168 -1.60456,0.67237 -1.89871,1.18c-0.29376,0.50483 0.64534,1.5987 -0.26956,3.52254c-0.91671,1.92146 -2.12003,2.52069 -3.75628,3.38142c-1.63406,0.86032 -5.0048,-0.15278 -7.62594,-1.78772c-2.61914,-1.63394 -4.65466,-3.92832 -4.06969,-6.99479c0.58277,-3.06606 2.80509,-3.00581 3.35091,-5.02767z"/>
 </g>
</svg>