<?xml version="1.0" encoding="utf-8"?>
<svg viewBox="0 0 250 1000" xmlns="http://www.w3.org/2000/svg" xmlns:bx="https://boxy-svg.com">
  <defs>
    <bx:grid x="0" y="-0.559" width="250.279" height="250.278"/>
  </defs>
  <path style="stroke: rgb(0, 0, 0); stroke-width: 2px;" d="M 127.361 357.913 C 128.295 361.183 128.062 375.898 128.062 375.898 C 128.062 375.898 117.784 361.651 117.083 357.679 C 116.382 353.707 124.091 344.832 124.091 344.832 C 124.792 345.299 126.427 354.643 127.361 357.913 Z M 74.61 356.322 C 74.376 353.52 67.835 344.877 65.967 344.176 C 64.098 343.475 63.164 348.38 61.996 350.716 C 60.828 353.051 57.09 364.964 54.521 364.73 C 51.952 364.497 52.185 352.118 52.886 346.278 C 53.587 340.438 52.886 335.534 49.616 331.796 C 46.346 328.058 42.375 331.329 38.404 334.832 C 34.434 338.336 36.068 352.351 35.601 359.359 C 35.134 366.367 41.908 405.374 41.674 414.718 C 41.44 424.061 57.557 436.908 66.901 449.989 C 76.245 463.07 108.246 470.778 133.24 470.778 C 158.233 470.778 166.408 459.567 176.452 454.428 C 186.497 449.288 207.053 420.557 211.257 414.718 C 215.461 408.878 213.592 386.689 213.592 380.382 C 213.592 374.074 199.577 353.753 189.767 344.176 C 179.956 334.599 158 331.562 158 331.562 C 158 331.562 158.699 327.591 155.896 323.62 C 153.094 319.649 137.679 306.568 133.006 300.729 C 128.334 294.889 124.364 295.123 120.86 297.692 C 117.355 300.261 128.334 316.378 128.334 316.378 C 128.334 316.378 115.721 307.036 108.947 305.635 C 102.172 304.233 102.873 310.072 102.64 312.875 C 102.406 315.678 114.786 328.291 114.786 328.291 C 114.786 328.291 109.882 332.497 108.013 334.365 C 106.143 336.234 98.669 351.184 97.968 355.388 C 97.268 359.592 98.903 365.898 98.903 365.898 C 98.669 366.6 74.843 359.125 74.61 356.322 Z M 181.319 363.518 C 185.524 367.49 189.261 377.299 189.261 377.299 C 189.261 377.299 178.282 371.695 175.947 367.723 C 173.611 363.752 167.771 351.372 167.771 351.372 C 167.771 351.138 177.113 359.546 181.319 363.518 Z" transform="matrix(-0.349868, 0.936799, -0.936799, -0.349868, 527.595779, 400.597376)"/>
  <path style="stroke: rgb(0, 0, 0); stroke-width: 2px;" d="M 232.958 567.513 C 236.591 577.346 230.196 589.008 222.486 595.43 C 214.776 601.852 200.546 598.501 200.546 598.501 C 200.546 598.501 197.006 619.161 186.927 625.777 C 176.848 632.393 179.083 627.344 165.517 636.204 C 151.951 645.064 140.046 668.043 138.108 673.026 C 136.17 678.009 137.556 682.992 134.233 690.467 C 130.91 697.942 127.311 710.676 125.927 715.938 C 125.681 716.874 125.522 717.872 125.44 718.907 C 123.918 718.315 121.574 717.6 119.134 717.6 C 114.974 717.6 112.756 719.958 112.617 720.79 C 112.478 721.622 113.31 725.366 113.31 725.366 C 113.31 725.366 106.793 721.068 100.969 724.534 C 98.566 725.964 96.847 727.701 95.658 729.249 C 94.763 727.546 94.027 725.946 93.535 724.52 C 90.766 716.491 91.598 689.915 87.721 687.146 C 83.845 684.377 79.416 663.613 79.416 663.613 C 79.416 663.613 67.511 663.336 59.759 669.703 C 52.007 676.071 56.99 678.563 57.821 691.021 C 58.651 703.479 78.307 704.865 83.845 706.525 C 89.383 708.185 87.721 718.982 81.077 721.474 C 74.432 723.967 56.159 716.768 52.284 710.678 C 48.408 704.587 30.689 691.853 38.718 667.212 C 46.747 642.571 81.077 637.588 81.077 637.588 C 81.077 638.419 82.718 605.134 103.569 588.064 C 124.42 570.994 149.737 573.359 160.257 572.805 C 170.777 572.251 180.196 572.003 178.675 561.35 C 177.154 550.697 183.503 541.887 184.619 541.521 C 186.778 540.812 191 550.714 195.97 552.318 C 198.949 553.279 200.818 551.183 205.274 551.044 C 209.73 550.905 211.781 553.396 214.797 552.318 C 217.616 551.311 217.9 548.274 220.929 545.755 C 223.958 543.236 228.564 542.103 229.341 543.298 C 229.848 544.078 227.108 546.833 225.974 549.099 C 224.84 551.365 224.052 552.949 224.386 554.938 C 225.226 559.941 229.927 559.309 232.958 567.513 Z" transform="matrix(0.764991, -0.644041, 0.644041, 0.764991, -377.398799, 236.47454)"/>
  <path style="stroke: rgb(0, 0, 0); stroke-width: 2px;" d="M 60.345 897.257 C 60.345 897.257 46.187 882.583 42.326 882.306 C 38.463 882.03 29.968 870.956 37.692 867.91 C 45.415 864.864 48.761 867.079 54.166 872.063 C 59.572 877.048 78.106 885.352 78.106 885.352 L 79.909 879.262 C 79.909 879.262 58.544 876.493 57.513 867.356 C 56.484 858.219 71.67 856.282 81.453 861.542 C 91.236 866.802 99.988 860.158 106.165 860.989 C 112.344 861.819 127.531 869.848 127.531 869.848 C 127.531 869.848 149.927 861.265 149.927 860.989 C 149.927 860.712 153.274 846.592 156.877 841.609 C 160.48 836.626 166.401 830.258 166.401 830.258 C 166.401 830.258 147.868 810.879 146.837 807.002 C 145.808 803.125 148.897 796.759 155.076 799.251 C 161.253 801.743 178.758 815.031 182.362 818.631 C 185.965 822.23 189.826 830.535 189.826 830.535 C 189.826 830.535 192.659 823.337 196.005 821.399 C 199.35 819.46 206.301 816.139 206.301 816.139 C 206.301 816.139 203.728 799.251 204.5 792.33 C 205.272 785.407 208.361 776.825 212.222 777.932 C 216.082 779.04 219.945 785.961 220.974 803.127 C 222.005 820.291 218.658 825.829 214.281 832.75 C 209.905 839.672 211.964 851.576 211.964 851.576 C 211.964 851.576 227.668 838.841 230.756 829.428 C 233.844 820.014 236.677 802.573 235.648 798.144 C 234.619 793.714 229.47 785.684 234.876 783.746 C 240.281 781.808 246.459 787.898 248.519 798.697 C 250.579 809.495 250.32 829.704 241.826 843.547 C 233.331 857.39 218.915 872.894 218.915 872.894 C 218.915 872.894 215.826 888.951 205.272 902.517 C 194.719 916.083 183.133 926.879 162.798 932.416 C 142.462 937.953 121.61 932.97 114.402 933.247 C 107.194 933.524 104.363 931.864 101.017 933.801 C 97.671 935.738 94.325 944.599 91.493 946.259 C 88.66 947.919 84.799 951.797 84.799 951.797 L 79.136 936.016 C 79.136 936.016 63.692 925.772 60.603 919.958 C 57.512 914.144 54.939 910.269 55.196 906.392 C 55.453 902.516 60.345 896.426 60.345 897.257 Z" transform="matrix(-0.662516, 0.749047, -0.749047, -0.662516, 883.986611, 1331.351425)"/>
  <path style="stroke: rgb(0, 0, 0); stroke-width: 2px;" d="M 162.489 156.556 C 170.726 137.791 173.373 99.923 173.373 99.923 C 173.373 99.923 184.035 95.093 186.159 92.825 C 188.284 90.558 190.755 63.566 194.579 59.483 C 198.403 55.403 212.053 45.021 210.965 41.274 C 209.875 37.526 203.748 32.978 198.822 35.687 C 193.896 38.396 190.815 43.686 185.56 47.11 C 180.306 50.535 173.76 65.697 173.76 65.697 L 158.564 66.277 C 158.564 66.277 162.191 56.046 165.978 53.46 C 169.764 50.873 182.687 42.541 184.204 37.832 C 185.722 33.123 176.535 29.109 172.102 30.747 C 167.67 32.386 156.119 39.62 153.734 41.982 C 151.348 44.346 146.535 50.571 146.535 50.571 C 146.535 50.571 145.354 38.561 142.759 37.15 C 140.163 35.739 122.632 34.81 119.009 37.038 C 115.386 39.265 110.894 47.151 110.894 47.151 L 86.102 47.425 C 86.102 47.425 94.185 58.07 97.456 61.306 C 100.726 64.542 104.355 67.942 109.627 81.405 C 114.9 94.867 121.353 114.1 108.218 136.972 C 97.692 146.633 88.044 147.896 88.044 147.896 C 88.044 147.896 80.488 144.061 74.323 144.654 C 68.157 145.249 65.907 150.469 62.932 154.743 C 59.958 159.017 56.956 173.052 55.632 175.565 C 54.307 178.078 47.438 177.588 47.438 177.588 C 47.438 177.588 46.572 163.887 55.562 151.639 C 64.55 139.392 65.422 134.979 61.787 132.514 C 58.153 130.049 50.174 137.904 42.954 148.546 C 35.735 159.189 34.154 178.509 34.154 178.509 C 34.154 178.509 28.317 179.054 29.102 185.301 C 29.887 191.549 36.812 190.531 36.812 190.531 C 36.812 190.531 44.757 201.289 48.591 204.063 C 52.425 206.836 65.852 207.977 65.852 207.977 C 75.701 209.288 84.277 200.729 84.277 200.729 L 93.787 209.431 C 93.787 209.431 89.827 212.462 89.046 220.764 C 88.264 229.065 88.707 223.304 86.614 236.605 C 84.52 249.906 87.655 255.496 90.557 255.56 C 93.459 255.622 97.439 254.858 99.472 249.309 C 101.504 243.761 104.148 226.33 104.148 226.33 C 104.148 226.33 120.18 224.908 129.095 218.657 C 138.009 212.407 137.476 194.554 137.476 194.554 C 137.476 194.554 156.045 171.231 162.489 156.556 Z M 56.006 189.766 C 56.006 189.766 60.788 187.856 63.263 187.336 C 65.739 186.817 70.94 187.085 70.94 187.085 C 70.94 187.085 65.517 190.608 63.478 191.045 C 61.44 191.481 56.107 190.064 56.006 189.766 Z" transform="matrix(0.674986, -0.737831, 0.737831, 0.674986, -66.475966, 135.027214)"/>
  <path style="fill: rgb(255, 255, 255); stroke: rgb(0, 0, 0); stroke-width: 2px;" d="M 200.928 719.89 C 203.142 724.873 214.493 736.499 210.894 741.207 C 207.296 745.914 205.046 742.178 202.588 743.699 C 199.035 745.898 199.544 751.729 194.007 752.836 C 188.47 753.942 185.7 745.36 182.655 738.993 C 180.151 733.756 172.59 723.649 168.444 715.759 C 169.633 714.211 171.352 712.474 173.755 711.044 C 179.579 707.578 185.265 713.672 186.406 712.289 C 187.388 711.099 185.264 708.132 185.403 707.3 C 185.542 706.468 187.76 704.11 191.92 704.11 C 194.36 704.11 196.704 704.825 198.226 705.417 C 197.847 710.201 199.108 715.794 200.928 719.89 Z" transform="matrix(0.764991, -0.644041, 0.644041, 0.764991, -424.541662, 293.589061)"/>
  <path style="stroke: rgb(0, 0, 0); stroke-width: 2px; fill: rgb(255, 255, 255);" d="M 158.901 552.652 C 159.154 555.684 163.079 556.78 165.041 556.321 C 167.003 555.861 167.828 553.45 167.889 553.45 C 167.952 553.45 170.675 555.175 172.511 554.829 C 174.346 554.484 176.056 552.767 176.31 550.243 C 176.564 547.719 169.789 541.641 166.815 542.443 C 163.838 543.249 158.707 550.291 158.901 552.652 Z" transform="matrix(0.764991, -0.644041, 0.644041, 0.764991, -314.444631, 237.058421)"/>
  <path d="M 155.244 548.249 C 155.025 549.107 152.518 550.023 151.71 549.276 C 151.178 548.786 152.35 548.327 152.35 547.471 C 152.35 546.705 152.239 546.019 152.598 545.651 C 152.967 545.273 155.505 547.235 155.244 548.249 Z M 147.554 546.278 C 147.77 545.433 150.042 544.492 150.256 545.133 C 150.508 545.884 149.661 546.055 149.661 547.024 C 149.661 547.643 149.988 548.405 149.51 548.69 C 148.767 549.132 147.311 547.222 147.554 546.278 Z" style="fill: rgb(212, 217, 119);" transform="matrix(0.68588, -0.727714, 0.727714, 0.68588, -350.675728, 282.06997)"/>
  <path d="M 168.454 533.797 C 168.285 533.025 166.469 532.032 165.846 532.704 C 165.437 533.146 166.346 533.623 166.346 534.394 C 166.346 535.085 166.422 535.692 166.698 536.023 C 166.983 536.364 168.654 534.711 168.454 533.797 Z M 162.535 535.573 C 162.701 536.335 164.677 537.128 164.842 536.55 C 165.035 535.874 164.474 535.761 164.369 534.897 C 164.284 534.188 164.665 533.68 164.299 533.422 C 163.726 533.025 162.348 534.723 162.535 535.573 Z" style="fill: rgb(212, 217, 119);" transform="matrix(-0.813815, 0.581124, -0.581124, -0.813815, 610.853384, 873.520277)"/>
  <path style="fill: rgb(129, 68, 83);" d="M 164.178 549.633 C 162.914 548.703 162.614 547.741 163.117 547.303 C 164.093 546.454 165.567 545.731 166.764 545.619 C 167.961 545.508 170.846 545.534 171.307 546.826 C 171.77 548.117 169.567 550.865 168.015 551.063 C 166.464 551.26 166.34 551.222 164.178 549.633 Z" transform="matrix(0.764991, -0.644041, 0.644041, 0.764991, -313.891088, 236.507043)"/>
  <path style="stroke: rgb(0, 0, 0); fill: rgb(255, 255, 255); stroke-width: 2px;" d="M 166.053 584.263 C 167.023 583.511 166.809 583.496 168.333 582.957 C 169.853 582.416 171.673 582.963 173.194 584.045 C 174.717 585.124 177.889 587.81 177.889 592.519 C 177.889 597.227 175.963 597.379 174.163 597.766 C 172.363 598.153 172.436 597.323 171.883 597.555 C 171.33 597.786 171.421 599.26 169.483 600.264 C 167.546 601.267 166.193 601.011 164.324 600.702 C 162.457 600.393 160.331 597.482 159.203 594.525 C 158.075 591.57 157.832 588.438 160.207 586.295 C 162.58 584.152 164.357 585.577 166.053 584.263 Z" transform="matrix(0.797087, -0.603864, 0.603864, 0.797087, -323.28788, 221.625411)"/>
  <path style="stroke: rgb(0, 0, 0); stroke-width: 2px; fill: rgb(255, 255, 255);" d="M 150.935 948.964 C 154.753 949.163 157.494 950.299 159.443 951.693 C 158.857 956.989 157.944 963.498 156.726 967.017 C 154.448 973.599 149.544 981.289 146.021 979.359 C 142.5 977.428 140.257 969.826 143.036 952.856 C 143.234 951.648 143.44 950.502 143.655 949.414 C 145.674 949.025 148.091 948.816 150.935 948.964 Z" transform="matrix(0.481191, -0.876616, 0.876616, 0.481191, -767.170169, 632.313575)"/>
  <path style="stroke: rgb(0, 0, 0); stroke-width: 2px; fill: rgb(255, 255, 255);" d="M 159.741 900.986 C 163.486 899.432 166.867 899.324 169.674 899.836 C 172.995 905.463 182.355 921.594 182.48 924.891 C 182.629 928.899 178.213 934.428 172.735 930.636 C 167.85 927.253 156.063 913.502 151.644 907.518 C 153.124 905.16 155.6 902.704 159.741 900.986 Z" transform="matrix(0.481191, -0.876616, 0.876616, 0.481191, -716.072264, 621.541667)"/>
  <path style="stroke: rgb(0, 0, 0); stroke-width: 2px; fill: rgb(255, 255, 255);" d="M 166.338 795.858 C 169.703 792.544 173.487 791.147 176.502 790.59 C 182.126 793.088 193.395 798.985 192.637 805.863 C 191.627 815.002 176.388 813.545 168.004 806.259 C 166.205 804.696 164.333 803.678 162.442 803.021 C 162.822 800.766 163.905 798.254 166.338 795.858 Z M 197.421 787.822 C 199.734 786.826 201.724 786.523 203.375 786.584 C 206.172 790.505 209.119 794.134 210.744 794.626 C 214.452 795.747 220.297 808.42 212.093 809.69 C 203.888 810.959 201.113 808.061 196.939 802.009 C 195.556 800.004 192.849 797.327 189.847 794.643 C 190.589 792.846 192.507 789.938 197.421 787.822 Z" transform="matrix(0.481191, -0.876616, 0.876616, 0.481191, -602.533824, 580.720273)"/>
  <g transform="matrix(0.2606, -0.965447, 0.965447, 0.2606, -477.981781, 822.063477)">
    <path style="stroke: rgb(0, 0, 0); stroke-width: 2px; fill: rgb(255, 255, 255);" d="M 194.579 612.735 C 194.832 615.767 198.757 616.863 200.719 616.404 C 202.681 615.944 203.506 613.533 203.567 613.533 C 203.63 613.533 206.353 615.258 208.189 614.912 C 210.024 614.567 211.734 612.85 211.988 610.326 C 212.242 607.802 205.467 601.724 202.493 602.526 C 199.516 603.332 194.385 610.374 194.579 612.735 Z"/>
    <path d="M 196.123 598.401 C 195.904 599.259 193.397 600.175 192.589 599.428 C 192.057 598.938 193.229 598.479 193.229 597.623 C 193.229 596.857 193.118 596.171 193.477 595.803 C 193.846 595.425 196.384 597.387 196.123 598.401 Z M 188.433 596.43 C 188.649 595.585 190.921 594.644 191.135 595.285 C 191.387 596.036 190.54 596.207 190.54 597.176 C 190.54 597.795 190.867 598.557 190.389 598.842 C 189.646 599.284 188.19 597.374 188.433 596.43 Z" style="fill: rgb(212, 217, 119);" transform="matrix(0.99337, -0.11496, 0.11496, 0.99337, -67.401032, 26.06442)"/>
    <path d="M 214.147 595.994 C 213.978 595.222 212.162 594.229 211.539 594.901 C 211.13 595.343 212.039 595.82 212.039 596.591 C 212.039 597.282 212.115 597.889 212.391 598.22 C 212.676 598.561 214.347 596.908 214.147 595.994 Z M 208.228 597.77 C 208.394 598.532 210.37 599.325 210.535 598.747 C 210.728 598.071 210.167 597.958 210.062 597.094 C 209.977 596.385 210.358 595.877 209.992 595.619 C 209.419 595.222 208.041 596.92 208.228 597.77 Z" style="fill: rgb(212, 217, 119);" transform="matrix(-0.996829, -0.079576, 0.079576, -0.996829, 374.212636, 1208.537023)"/>
    <path style="fill: rgb(129, 68, 83);" d="M 200.634 609.651 C 199.37 608.721 199.07 607.759 199.573 607.321 C 200.549 606.472 202.023 605.749 203.22 605.637 C 204.417 605.526 207.302 605.552 207.763 606.844 C 208.226 608.135 206.023 610.883 204.471 611.081 C 202.92 611.278 202.796 611.24 200.634 609.651 Z"/>
  </g>
  <path style="stroke: rgb(0, 0, 0); stroke-width: 2px; fill: rgb(255, 255, 255);" d="M 200.035 400.26 C 200.035 400.26 212.415 412.873 212.181 415.676 C 211.948 418.479 212.649 424.318 205.874 422.916 C 199.1 421.515 186.487 412.173 186.487 412.173 C 186.487 412.173 197.466 428.29 193.961 430.859 C 190.457 433.428 186.487 433.662 181.815 427.822 C 177.142 421.983 161.727 408.902 158.925 404.931 C 156.664 401.729 156.682 398.526 156.773 397.406 C 158.106 396.467 159.712 395.557 161.64 394.759 C 170.782 390.976 179.138 395.074 179.138 395.074 C 179.138 395.074 180.399 392.079 184.97 391.133 C 189.541 390.187 194.58 393.041 194.58 393.041 L 200.035 400.26 Z" transform="matrix(0.349868, -0.936799, 0.936799, 0.349868, -265.812552, 440.50562)"/>
  <path style="stroke: rgb(0, 0, 0); stroke-width: 2px; fill: rgb(255, 255, 255);" d="M 192.906 313.578 C 196.553 313.384 199.72 314.376 202.273 315.717 C 202.215 321.218 201.754 326.51 199.522 328.48 C 195.551 331.983 191.58 335.254 188.31 331.516 C 185.04 327.778 184.339 322.874 185.04 317.034 C 185.077 316.722 185.113 316.392 185.148 316.046 C 187.042 314.77 189.573 313.755 192.906 313.578 Z" transform="matrix(0.349868, -0.936799, 0.936799, 0.349868, -177.104859, 391.530704)"/>
  <path style="stroke: rgb(0, 0, 0); fill: rgb(255, 255, 255); stroke-width: 2px;" d="M 175.293 213.961 C 179.189 214.448 182.134 215.73 184.346 217.282 C 183.44 222.757 181.719 232.458 180.297 236.34 C 178.264 241.889 174.284 242.653 171.382 242.591 C 168.48 242.527 165.345 236.937 167.439 223.636 C 168.422 217.39 168.845 215.347 169.099 214.078 C 170.905 213.75 172.962 213.67 175.293 213.961 Z" transform="matrix(0.674986, -0.737831, 0.737831, 0.674986, -111.307272, 203.691798)"/>
  <path style="stroke: rgb(0, 0, 0); fill: rgb(255, 255, 255); stroke-width: 2px;" d="M 100.677 36.983 C 95.341 35.618 92.875 32.853 91.735 30.624 C 95.872 27.288 98.761 22.98 103.045 20.624 C 107.971 17.915 114.098 22.463 115.188 26.211 C 115.865 28.544 110.831 33.448 106.011 37.802 C 104.494 37.748 102.726 37.507 100.677 36.983 Z M 65.994 29.562 C 63.946 27.621 62.866 25.527 62.325 23.634 C 66.813 20.614 73.265 16.816 76.325 15.684 C 80.758 14.046 89.945 18.06 88.427 22.769 C 87.436 25.846 81.574 30.47 76.574 34.027 C 73.251 33.582 69.024 32.433 65.994 29.562 Z" transform="matrix(0.674986, -0.737831, 0.737831, 0.674986, 9.262833, 74.141243)"/>
  <path style="stroke: rgb(0, 0, 0); fill: rgb(255, 255, 255); stroke-width: 2px;" d="M 105.704 220.684 C 105.704 220.684 97.29 220.094 94.116 220.611 C 90.942 221.128 85.628 222.16 84.299 225.113 C 82.97 228.066 84.078 233.453 87.547 234.708 C 91.016 235.963 103.49 234.855 104.523 234.634 C 105.556 234.413 111.018 233.97 111.018 233.97 C 111.018 233.97 112.863 230.575 111.608 226.073 C 110.353 221.571 105.63 220.906 105.704 220.684 Z" transform="matrix(0.674986, -0.737831, 0.737831, 0.674986, -136.294283, 146.287113)"/>
</svg>