<svg width="250" height="250" xmlns="http://www.w3.org/2000/svg">

 <g>
  <title>Layer 1</title>
  <path id="svg_1" stroke=" rgb(51, 51, 51)" fill=" rgb(51, 51, 51)" stroke-width=" 8px" d="m199.124,131.584c2.544,1.199 8.259,2.585 4.576,8.442c-3.541,5.63 -15.847,13.749 -16.79,14.366c0.737,-0.17 2.036,-0.459 3.625,-0.767c5.572,-1.112 15.589,-2.666 16.438,0.34c1.18,4.181 0.01,7.982 -7.095,10.316c-7.105,2.334 -24.752,12.199 -29.453,13.434c-0.36,0.095 -0.713,0.17 -1.058,0.229c-4.469,0.997 -7.723,-0.917 -7.723,-0.917c0,0 -10.527,19.506 -22.931,25.346c-12.404,5.839 -36.344,11.859 -42.254,9.652c-5.908,-2.207 -27.349,-8.219 -31.349,-14.201c-3.999,-5.981 -23.722,-35.29 -25.023,-46.498c-1.3,-11.207 -8.942,-22.788 -0.198,-46.202c8.745,-23.414 27.162,-50.696 42.685,-54.872c15.523,-4.177 33.197,-14.781 41.868,-11.293c8.672,3.488 47.583,10.79 53.985,13.679c6.402,2.89 20.103,6.262 21.996,11.207c1.423,3.719 2.722,7.391 1.306,9.731c-0.461,0.826 -1.242,1.494 -2.452,1.951c-4.646,1.755 -9.485,0.696 -14.711,-2.004c-0.279,-0.143 -0.576,-0.293 -0.888,-0.446c-0.013,-0.056 -0.027,-0.113 -0.039,-0.169c-5.564,-2.717 -15.812,-6.612 -16.863,-4.425c-1.118,2.325 8.734,9.995 10.513,11.906c1.78,1.911 6.048,4.503 4.737,6.008c-1.31,1.505 -11.695,4.609 -14.402,3.847c-2.707,-0.762 -18.046,18.943 -17.47,19.408c0,0 6.479,0.674 10.173,2.801c3.693,2.127 15.083,14.36 16.18,16.765c1.096,2.405 3.32,8.47 3.32,8.47c0,0 11.386,-5.066 16.542,-5.979c1.279,-0.277 2.267,-0.355 2.755,-0.125zm-38.048,9.034c0,0 -5.617,-10.327 -9.583,-11.06c-3.966,-0.733 -20.909,3.911 -20.909,3.911c0,0 13.704,5.367 17.094,5.636c3.39,0.269 12.715,2.006 13.398,1.513zm-21.409,38.631c0,0 -13.641,1.14 -18.178,1.939c-4.538,0.798 -13.629,9.122 -13.629,9.122c0,0 10.497,-0.069 15.689,-2.618c5.192,-2.551 16.337,-8.361 16.118,-8.443z"/>
  <path id="svg_18" stroke-width=" 3px" stroke=" rgb(255, 255, 255)" fill=" rgb(255, 255, 255)" d="m180.49849,137.15113c0,0 16.14721,-7.18469 18.69119,-5.9848c2.54433,1.19895 8.25956,2.58514 4.57581,8.44144c-3.68246,5.85571 -16.84692,14.40309 -16.84692,14.40309c0,0 18.93959,-4.64629 20.11994,-0.464c1.1807,4.18135 0.01093,7.98232 -7.09456,10.31581c-7.1049,2.33478 -24.75239,12.19892 -29.45275,13.4345c-3.79068,0.99783 -6.78495,-0.13966 -7.80233,-0.61677c-0.41328,-1.57728 -0.70388,-3.40016 -0.7769,-5.4855c-0.34542,-9.88777 6.41708,-16.2819 6.41708,-16.2819c0,0 -2.36453,-2.22916 -1.65149,-6.84224c0.71303,-4.61308 5.14964,-8.33509 5.14964,-8.33509l8.67128,-2.58454z"/>
  <path id="svg_19" stroke-width=" 3px" stroke=" rgb(255, 255, 255)" fill=" rgb(255, 255, 255)" d="m184.14633,64.52741c1.09423,-3.48438 3.13157,-6.10415 5.28103,-8.02663c5.13304,1.97896 9.92929,4.26232 10.99388,7.0425c1.89228,4.94562 3.56723,9.81006 -1.0786,11.56559c-4.64582,1.75553 -9.48514,0.69647 -14.71079,-2.00346c-0.27934,-0.14382 -0.57588,-0.293 -0.88777,-0.44684c-0.53271,-2.22073 -0.59804,-4.94688 0.40226,-8.13116z"/>
 </g>
</svg>