<?xml version="1.0" encoding="utf-8"?>
<svg viewBox="0 0 250 1000" xmlns="http://www.w3.org/2000/svg" xmlns:bx="https://boxy-svg.com">
  <defs>
    <bx:grid x="0" y="-0.559" width="250.279" height="250.278"/>
  </defs>
  <path style="stroke-width: 8px; fill: rgb(51, 51, 51); stroke: rgb(51, 51, 51);" d="M 199.124 386.584 C 201.668 387.783 207.383 389.169 203.7 395.026 C 200.159 400.656 187.853 408.775 186.91 409.392 C 187.647 409.222 188.946 408.933 190.535 408.625 C 196.107 407.513 206.124 405.959 206.973 408.965 C 208.153 413.146 206.983 416.947 199.878 419.281 C 192.773 421.615 175.126 431.48 170.425 432.715 C 170.065 432.81 169.712 432.885 169.367 432.944 C 164.898 433.941 161.644 432.027 161.644 432.027 C 161.644 432.027 151.117 451.533 138.713 457.373 C 126.309 463.212 102.369 469.232 96.459 467.025 C 90.551 464.818 69.11 458.806 65.11 452.824 C 61.111 446.843 41.388 417.534 40.087 406.326 C 38.787 395.119 31.145 383.538 39.889 360.124 C 48.634 336.71 67.051 309.428 82.574 305.252 C 98.097 301.075 115.771 290.471 124.442 293.959 C 133.114 297.447 172.025 304.749 178.427 307.638 C 184.829 310.528 198.53 313.9 200.423 318.845 C 201.846 322.564 203.145 326.236 201.729 328.576 C 201.268 329.402 200.487 330.07 199.277 330.527 C 194.631 332.282 189.792 331.223 184.566 328.523 C 184.287 328.38 183.99 328.23 183.678 328.077 C 183.665 328.021 183.651 327.964 183.639 327.908 C 178.075 325.191 167.827 321.296 166.776 323.483 C 165.658 325.808 175.51 333.478 177.289 335.389 C 179.069 337.3 183.337 339.892 182.026 341.397 C 180.716 342.902 170.331 346.006 167.624 345.244 C 164.917 344.482 149.578 364.187 150.154 364.652 C 150.154 364.652 156.633 365.326 160.327 367.453 C 164.02 369.58 175.41 381.813 176.507 384.218 C 177.603 386.623 179.827 392.688 179.827 392.688 C 179.827 392.688 191.213 387.622 196.369 386.709 C 197.648 386.432 198.636 386.354 199.124 386.584 Z M 161.076 395.618 C 161.076 395.618 155.459 385.291 151.493 384.558 C 147.527 383.825 130.584 388.469 130.584 388.469 C 130.584 388.469 144.288 393.836 147.678 394.105 C 151.068 394.374 160.393 396.111 161.076 395.618 Z M 139.667 434.249 C 139.667 434.249 126.026 435.389 121.489 436.188 C 116.951 436.986 107.86 445.31 107.86 445.31 C 107.86 445.31 118.357 445.241 123.549 442.692 C 128.741 440.141 139.886 434.331 139.667 434.249 Z"/>
  <path style="stroke-width: 8px; fill: rgb(51, 51, 51); stroke: rgb(51, 51, 51);" d="M 144.123 949.133 C 148.564 952.252 153.929 956.258 156.474 959.07 C 161.233 964.329 165.696 972.476 162.247 974.676 C 159.216 976.606 152.76 975.511 141.887 967.895 C 140.105 966.681 138.201 965.287 136.168 963.695 C 122.377 952.899 120.411 946.609 118.084 938.6 C 115.756 930.59 105.285 924.129 105.285 924.129 C 105.285 924.129 104.404 944.703 109.501 953.41 C 114.6 962.118 125.994 976.048 130.067 978.252 C 134.141 980.456 143.743 981.946 141.573 987.378 C 139.404 992.81 130.59 993.414 120.961 987.698 C 111.333 981.983 96.09 968.15 91.26 952.328 C 86.431 936.507 84.331 915.047 84.331 915.047 C 84.331 915.047 74.165 901.855 70.938 884.649 C 67.709 867.444 67.29 851.32 76.788 832.07 C 86.286 812.819 104.157 800.273 108.81 794.589 C 113.462 788.903 116.639 787.863 117.419 784.004 C 118.198 780.143 113.697 771.611 114.341 768.331 C 114.986 765.049 114.633 759.487 114.633 759.487 L 130.493 765.816 C 130.493 765.816 148.729 760.946 155.25 762.513 C 161.771 764.078 166.463 764.729 169.248 767.541 C 171.831 770.151 173.174 777.089 172.849 777.629 C 173.734 777.588 179.977 777.285 185.844 776.575 C 185.869 776.53 185.894 776.486 185.921 776.442 C 189.658 776.001 193.283 775.396 195.328 774.593 C 195.753 774.398 196.086 774.192 196.308 773.975 C 196.62 773.669 197.073 773.409 197.626 773.2 C 201.753 771.254 213.473 772.69 210.824 779.983 C 209.081 784.78 206.952 787.066 203.9 788.293 C 201.815 789.222 199.288 789.598 196.133 789.92 C 188.682 790.681 169.84 799.217 169.84 799.217 L 173.27 804.702 C 173.27 804.702 180.064 798.77 186.961 795.93 C 190.953 794.216 195.024 793.48 197.872 795.478 C 205.362 800.737 197.156 813.17 186.872 817.385 C 186.499 817.547 186.125 817.697 185.747 817.836 C 185.554 817.908 185.365 817.981 185.178 818.056 C 183.346 818.854 181.828 819.878 180.536 821.045 C 180.498 821.015 180.462 820.986 180.424 820.955 C 174.637 825.95 173.331 833.744 169.494 837.063 C 164.691 841.216 148.319 847.384 148.319 847.384 C 148.319 847.384 139.754 870.262 139.965 870.448 C 140.177 870.635 148.69 882.716 150.06 888.827 C 151.431 894.938 152.294 903.752 152.294 903.752 C 152.294 903.752 153.253 903.715 154.837 903.667 C 154.852 903.649 154.867 903.63 154.881 903.613 C 161.533 903.405 180.522 902.954 183.527 904.458 C 187.179 906.29 189.951 912.942 183.881 915.975 C 180.572 917.627 172.541 919.683 165.082 921.263 C 158.753 922.612 152.786 923.628 150.394 923.775 C 145.217 924.095 136.276 921.437 136.276 921.437 C 136.276 921.437 139.856 928.455 139.077 932.315 C 138.299 936.177 136.141 943.72 136.141 943.72 C 136.141 943.72 139.834 946.102 144.11 949.139 C 144.115 949.137 144.119 949.135 144.123 949.133 Z"/>
  <path style="stroke-width: 8px; stroke: rgb(51, 51, 51); fill: rgb(51, 51, 51);" d="M 171.275 586.749 C 174.051 590.413 172.641 591.666 171.47 593.027 C 170.297 594.391 169.864 593.701 169.571 594.207 C 169.276 594.714 170.216 595.807 169.301 597.73 C 168.384 599.653 167.181 600.251 165.545 601.112 C 164.597 601.61 163.069 601.48 161.44 600.965 C 159.419 604.816 157.718 604.898 154.344 616.103 C 149.785 631.249 155.34 655.893 157.026 660.832 C 158.712 665.771 162.88 668.622 165.097 676.292 C 167.316 683.963 172.634 695.736 174.909 700.534 C 175.312 701.388 175.821 702.234 176.411 703.058 C 176.388 703.066 176.364 703.075 176.339 703.083 C 179.071 706.85 183.484 710.19 187.381 712.087 C 192.167 714.417 207.952 715.962 208.225 721.74 C 208.497 727.517 204.469 726.141 203.589 728.823 C 202.318 732.699 206.365 736.732 202.925 741.04 C 199.486 745.347 192.023 740.68 185.746 737.841 C 180.614 735.517 168.726 732.743 160.672 729.483 C 160.672 729.491 160.673 729.499 160.673 729.506 C 158.934 728.796 157.379 728.063 156.114 727.308 C 148.999 723.054 132.912 702.684 128.277 703.054 C 123.641 703.423 107.28 690.701 107.28 690.701 C 107.28 690.701 98.215 697.98 96.43 707.608 C 94.644 717.237 99.933 715.964 108.385 724.746 C 116.837 733.527 132.386 722.204 137.565 719.962 C 142.745 717.72 148.291 726.828 144.897 732.866 C 141.503 738.905 123.33 745.017 116.608 742.906 C 109.885 740.794 88.647 742.425 79.151 718.977 C 69.655 695.528 92.158 670.223 92.158 670.223 C 92.68 670.843 72.98 644.957 77.819 619.101 C 82.658 593.244 103.05 579.093 110.558 572.066 C 118.066 565.039 124.943 558.932 117.109 551.933 C 109.277 544.934 108.479 534.364 109.083 533.389 C 110.249 531.502 119.627 536.242 124.347 534.315 C 127.176 533.16 127.254 530.421 130.494 527.514 C 133.734 524.609 136.832 525.18 138.406 522.479 C 139.878 519.955 138.181 517.509 138.86 513.723 C 139.537 509.938 142.265 506.195 143.596 506.6 C 144.465 506.863 144.152 510.643 144.729 513.049 C 145.307 515.454 145.714 517.132 147.214 518.407 C 150.987 521.615 154.1 518.187 161.522 522.408 C 170.416 527.468 172.972 540.196 171.252 549.839 C 169.532 559.481 156.799 565.927 156.799 565.927 C 156.799 565.927 161.607 574.131 163.601 582.926 C 165.65 583.011 168.921 583.642 171.275 586.749 Z M 171.759 715.542 C 171.744 714.228 169.121 713.391 168.17 712.728 C 168.903 713.589 171.414 715.508 171.414 715.508 C 171.414 715.508 166.507 716.083 163.462 719.57 C 166.642 716.599 171.773 716.935 171.759 715.542 Z"/>
  <path style="stroke-width: 8px; fill: rgb(51, 51, 51); stroke: rgb(51, 51, 51);" d="M 169.8 164.332 C 169.8 164.332 183.333 175.99 181.927 186.785 C 180.522 197.582 170.75 210.371 170.75 210.371 C 170.75 210.371 181.198 223.311 184.293 228.859 C 184.445 229.124 184.583 229.374 184.704 229.607 C 187.426 234.853 185.303 238.305 183.298 240.404 C 181.292 242.502 175.052 241.042 166.651 230.519 C 162.706 225.578 161.485 223.887 160.72 222.843 C 160.727 222.832 160.734 222.82 160.742 222.809 C 159.726 221.422 159.611 221.248 156.449 217.757 C 150.851 211.577 151.288 206.609 151.288 206.609 L 138.448 207.752 C 138.448 207.752 138.974 219.857 131.359 226.239 C 131.359 226.239 121.454 235.376 116.82 236.333 C 112.977 237.126 103.175 236.299 99.939 235.994 C 98.402 237.633 96.939 238.994 95.908 239.535 C 92.64 241.247 87.918 238.429 86.636 235.455 C 85.867 233.671 86.576 231.295 87.647 229.099 C 85.078 226.205 74.66 213.963 72.053 203.019 C 69.075 190.508 68.665 179.319 72.936 178.302 C 77.209 177.284 79.876 180.906 82.846 195.804 C 85.342 208.335 93.303 216.416 95.771 218.669 C 96.948 217.497 97.816 216.672 97.816 216.672 C 97.86 216.751 98.432 216.349 99.357 215.946 C 100.273 214.576 100.958 213.049 100.546 211.902 C 99.586 209.229 91.257 197.54 90.111 192.461 C 88.965 187.381 86.632 182.198 90.355 177.247 C 94.079 172.298 102.009 169.311 102.009 169.311 C 102.009 169.311 107.589 161.34 107.566 147.053 C 99.556 121.923 81.01 113.702 67.518 108.506 C 54.026 103.309 49.068 103.691 44.473 103.92 C 39.878 104.149 26.567 102.928 26.567 102.928 L 43.099 84.45 C 43.099 84.45 40.313 75.813 41.115 71.637 C 41.917 67.46 54.436 55.152 57.229 54.189 C 60.022 53.227 69.68 60.462 69.68 60.462 C 69.68 60.462 68.336 52.709 68.202 49.353 C 68.159 48.265 68.389 46.117 68.78 43.564 C 68.754 43.551 68.728 43.539 68.703 43.526 C 69.504 38.177 71.057 30.853 72.287 27.831 C 74.071 23.454 83.234 19.385 85.684 23.684 C 86.273 24.717 86.572 26.378 86.676 28.368 C 87.097 34.643 85.437 44.547 84.935 48.066 C 84.287 52.606 89.388 62.188 89.388 62.188 L 99.217 50.584 C 99.217 50.584 92.448 35.52 93.468 29.332 C 93.622 28.399 93.711 27.474 93.756 26.557 C 93.741 26.553 93.727 26.549 93.712 26.545 C 94.043 21.241 92.815 16.201 93.968 11.45 C 95.294 5.987 102.785 4.536 106.286 6.262 C 107.705 6.962 108.293 10.184 108.519 14.14 C 108.895 19.998 108.424 27.639 108.685 31.029 C 109.116 36.606 127.364 56.649 127.602 59.747 C 127.842 62.845 124.209 73.972 124.209 73.972 C 124.209 73.972 150.362 101.485 158.648 120.229 C 165.126 134.889 169.8 164.332 169.8 164.332 Z M 117.264 216.562 C 118.318 214.762 119.379 208.383 119.379 208.383 C 119.379 208.383 115.67 212.04 114.382 214.217 C 113.095 216.394 111.277 221.212 111.277 221.212 C 111.565 221.338 116.21 218.36 117.264 216.562 Z"/>
  <path style="fill: rgb(255, 255, 255); stroke: rgb(255, 255, 255); stroke-width: 3px;" d="M 195.375 716.558 C 197.536 721.421 208.617 732.771 205.103 737.367 C 201.591 741.962 199.395 738.314 196.996 739.799 C 193.527 741.946 194.024 747.638 188.619 748.718 C 183.214 749.797 180.509 741.42 177.537 735.205 C 175.093 730.093 167.712 720.227 163.665 712.525 C 164.826 711.014 166.504 709.318 168.85 707.922 C 174.534 704.539 180.086 710.488 181.199 709.138 C 182.158 707.976 180.085 705.08 180.22 704.268 C 180.355 703.455 182.521 701.154 186.581 701.154 C 188.963 701.154 191.252 701.851 192.737 702.429 C 192.367 707.1 193.599 712.559 195.375 716.558 Z" transform="matrix(0.764991, -0.644041, 0.644041, 0.764991, -423.506864, 289.348503)"/>
  <path style="stroke-width: 2px; fill: rgb(255, 255, 255);" d="M 154.349 553.306 C 154.597 556.265 158.428 557.335 160.344 556.887 C 162.259 556.438 163.064 554.084 163.123 554.084 C 163.185 554.084 165.843 555.768 167.635 555.43 C 169.427 555.094 171.096 553.418 171.344 550.954 C 171.591 548.49 164.978 542.557 162.075 543.34 C 159.169 544.127 154.16 551 154.349 553.306 Z" transform="matrix(0.764991, -0.644041, 0.644041, 0.764991, -316.033953, 234.165235)"/>
  <path d="M 150.779 549.007 C 150.566 549.844 148.118 550.739 147.33 550.009 C 146.81 549.531 147.954 549.083 147.954 548.248 C 147.954 547.5 147.846 546.83 148.197 546.471 C 148.557 546.102 151.034 548.017 150.779 549.007 Z M 143.272 547.083 C 143.484 546.258 145.701 545.34 145.91 545.965 C 146.156 546.698 145.329 546.865 145.329 547.812 C 145.329 548.416 145.648 549.16 145.182 549.438 C 144.456 549.87 143.036 548.005 143.272 547.083 Z" style="fill: rgb(255, 255, 255);" transform="matrix(0.68588, -0.727714, 0.727714, 0.68588, -352.618606, 279.133155)"/>
  <path d="M 163.675 534.9 C 163.51 534.147 161.737 533.177 161.129 533.833 C 160.729 534.265 161.617 534.73 161.617 535.483 C 161.617 536.157 161.692 536.75 161.961 537.072 C 162.238 537.406 163.87 535.792 163.675 534.9 Z M 157.897 536.633 C 158.059 537.378 159.988 538.152 160.149 537.587 C 160.338 536.927 159.79 536.817 159.687 535.974 C 159.605 535.281 159.976 534.786 159.619 534.534 C 159.06 534.147 157.714 535.804 157.897 536.633 Z" style="fill: rgb(255, 255, 255);" transform="matrix(-0.813815, 0.581124, -0.581124, -0.813815, 602.942627, 878.2219)"/>
  <path style="fill: rgb(51, 51, 51);" d="M 159.501 550.359 C 158.267 549.451 157.974 548.512 158.465 548.084 C 159.417 547.255 160.857 546.549 162.025 546.441 C 163.194 546.332 166.01 546.357 166.46 547.619 C 166.912 548.879 164.761 551.561 163.246 551.754 C 161.732 551.947 161.611 551.909 159.501 550.359 Z" transform="matrix(0.764991, -0.644041, 0.644041, 0.764991, -315.49365, 233.627135)"/>
  <path style="fill: rgb(255, 255, 255); stroke: rgb(255, 255, 255); stroke-width: 3px;" d="M 161.331 584.163 C 162.278 583.429 162.069 583.414 163.556 582.888 C 165.04 582.36 166.817 582.894 168.302 583.95 C 169.788 585.003 172.885 587.625 172.885 592.222 C 172.885 596.818 171.004 596.966 169.247 597.344 C 167.491 597.722 167.562 596.911 167.021 597.138 C 166.482 597.363 166.57 598.802 164.679 599.783 C 162.788 600.761 161.467 600.512 159.643 600.21 C 157.821 599.909 155.746 597.066 154.644 594.18 C 153.543 591.296 153.306 588.238 155.624 586.147 C 157.94 584.055 159.675 585.445 161.331 584.163 Z" transform="matrix(0.797087, -0.603864, 0.603864, 0.797087, -324.086274, 218.686968)"/>
  <path style="fill: rgb(255, 255, 255); stroke: rgb(255, 255, 255); stroke-width: 3px;" d="M 151.435 947.154 C 155.324 947.357 158.116 948.514 160.101 949.934 C 159.504 955.328 158.574 961.957 157.334 965.541 C 155.013 972.245 150.019 980.077 146.431 978.112 C 142.844 976.145 140.56 968.402 143.39 951.118 C 143.592 949.888 143.802 948.721 144.021 947.613 C 146.077 947.216 148.539 947.003 151.435 947.154 Z" transform="matrix(0.481191, -0.876616, 0.876616, 0.481191, -765.575638, 631.955255)"/>
  <path style="fill: rgb(255, 255, 255); stroke: rgb(255, 255, 255); stroke-width: 3px;" d="M 160.405 898.288 C 164.219 896.706 167.662 896.596 170.521 897.117 C 173.904 902.848 183.437 919.278 183.564 922.636 C 183.716 926.718 179.218 932.349 173.639 928.487 C 168.664 925.041 156.658 911.036 152.158 904.941 C 153.665 902.54 156.187 900.038 160.405 898.288 Z" transform="matrix(0.481191, -0.876616, 0.876616, 0.481191, -713.532226, 620.984188)"/>
  <path style="fill: rgb(255, 255, 255); stroke: rgb(255, 255, 255); stroke-width: 3px;" d="M 167.124 791.215 C 170.551 787.839 174.405 786.417 177.476 785.849 C 183.204 788.393 194.681 794.4 193.909 801.405 C 192.881 810.713 177.36 809.229 168.82 801.808 C 166.988 800.216 165.081 799.179 163.155 798.51 C 163.542 796.214 164.646 793.655 167.124 791.215 Z M 198.782 783.03 C 201.138 782.016 203.164 781.707 204.846 781.769 C 207.695 785.763 210.696 789.459 212.351 789.96 C 216.128 791.102 222.081 804.009 213.725 805.303 C 205.368 806.595 202.542 803.644 198.291 797.48 C 196.882 795.437 194.125 792.711 191.068 789.977 C 191.823 788.147 193.777 785.185 198.782 783.03 Z" transform="matrix(0.481191, -0.876616, 0.876616, 0.481191, -597.892641, 579.406943)"/>
  <path style="stroke-width: 2px; fill: rgb(255, 255, 255);" d="M 155.278 783.099 C 155.536 786.187 159.534 787.304 161.532 786.836 C 163.53 786.368 164.371 783.912 164.433 783.912 C 164.497 783.912 167.27 785.669 169.14 785.316 C 171.009 784.965 172.751 783.216 173.009 780.646 C 173.268 778.075 166.368 771.884 163.339 772.701 C 160.307 773.522 155.081 780.694 155.278 783.099 Z" transform="matrix(0.2606, -0.965447, 0.965447, 0.2606, -631.470597, 735.044121)"/>
  <path d="M 153.255 788.431 C 153.032 789.305 150.478 790.238 149.655 789.477 C 149.113 788.978 150.307 788.51 150.307 787.639 C 150.307 786.858 150.194 786.16 150.56 785.785 C 150.936 785.4 153.521 787.398 153.255 788.431 Z M 145.422 786.424 C 145.642 785.563 147.956 784.605 148.174 785.257 C 148.431 786.022 147.568 786.196 147.568 787.183 C 147.568 787.814 147.901 788.59 147.415 788.88 C 146.658 789.33 145.175 787.385 145.422 786.424 Z" style="fill: rgb(255, 255, 255);" transform="matrix(0.147884, -0.989005, 0.989005, 0.147884, -651.491943, 818.648454)"/>
  <path d="M 156.802 767.816 C 156.63 767.03 154.78 766.019 154.145 766.703 C 153.729 767.153 154.655 767.639 154.655 768.425 C 154.655 769.128 154.732 769.747 155.013 770.084 C 155.303 770.431 157.005 768.747 156.802 767.816 Z M 150.773 769.625 C 150.942 770.401 152.955 771.209 153.123 770.62 C 153.319 769.932 152.748 769.817 152.641 768.937 C 152.555 768.215 152.943 767.697 152.57 767.435 C 151.986 767.03 150.583 768.76 150.773 769.625 Z" style="fill: rgb(255, 255, 255);" transform="matrix(-0.3366, 0.941648, -0.941648, -0.3366, 929.348942, 882.563663)"/>
  <path style="fill: rgb(51, 51, 51);" d="M 160.14 780.491 C 158.852 779.544 158.547 778.564 159.059 778.118 C 160.053 777.253 161.554 776.517 162.773 776.402 C 163.993 776.289 166.931 776.316 167.401 777.632 C 167.872 778.947 165.628 781.746 164.048 781.947 C 162.468 782.148 162.342 782.109 160.14 780.491 Z" transform="matrix(0.2606, -0.965447, 0.965447, 0.2606, -631.643586, 733.644296)"/>
  <path style="fill: rgb(255, 255, 255); stroke: rgb(255, 255, 255); stroke-width: 3px;" d="M 201.397 399.26 C 201.397 399.26 213.777 411.873 213.543 414.676 C 213.31 417.479 214.011 423.318 207.236 421.916 C 200.462 420.515 187.849 411.173 187.849 411.173 C 187.849 411.173 198.828 427.29 195.323 429.859 C 191.819 432.428 187.849 432.662 183.177 426.822 C 178.504 420.983 163.089 407.902 160.287 403.931 C 158.026 400.729 158.044 397.526 158.135 396.406 C 159.468 395.467 161.074 394.557 163.002 393.759 C 172.144 389.976 180.5 394.074 180.5 394.074 C 180.5 394.074 181.761 391.079 186.332 390.133 C 190.903 389.187 195.942 392.041 195.942 392.041 L 201.397 399.26 Z" transform="matrix(0.349868, -0.936799, 0.936799, 0.349868, -263.990276, 441.131354)"/>
  <path style="fill: rgb(255, 255, 255); stroke: rgb(255, 255, 255); stroke-width: 3px;" d="M 192.906 312.578 C 196.553 312.384 199.72 313.376 202.273 314.717 C 202.215 320.218 201.754 325.51 199.522 327.48 C 195.551 330.983 191.58 334.254 188.31 330.516 C 185.04 326.778 184.339 321.874 185.04 316.034 C 185.077 315.722 185.113 315.392 185.148 315.046 C 187.042 313.77 189.573 312.755 192.906 312.578 Z" transform="matrix(0.349868, -0.936799, 0.936799, 0.349868, -176.168068, 390.880528)"/>
  <path style="fill: rgb(255, 255, 255); stroke: rgb(255, 255, 255); stroke-width: 3px;" d="M 175.293 212.961 C 179.189 213.448 182.134 214.73 184.346 216.282 C 183.44 221.757 181.719 231.458 180.297 235.34 C 178.264 240.889 174.284 241.653 171.382 241.591 C 168.48 241.527 165.345 235.937 167.439 222.636 C 168.422 216.39 168.845 214.347 169.099 213.078 C 170.905 212.75 172.962 212.67 175.293 212.961 Z" transform="matrix(0.674986, -0.737831, 0.737831, 0.674986, -110.569441, 203.366784)"/>
  <path style="fill: rgb(255, 255, 255); stroke: rgb(255, 255, 255); stroke-width: 3px;" d="M 100.677 35.983 C 95.341 34.618 92.875 31.853 91.735 29.624 C 95.872 26.288 98.761 21.98 103.045 19.624 C 107.971 16.915 114.098 21.463 115.188 25.211 C 115.865 27.544 110.831 32.448 106.011 36.802 C 104.494 36.748 102.726 36.507 100.677 35.983 Z M 65.994 28.562 C 63.946 26.621 62.866 24.527 62.325 22.634 C 66.813 19.614 73.265 15.816 76.325 14.684 C 80.758 13.046 89.945 17.06 88.427 21.769 C 87.436 24.846 81.574 29.47 76.574 33.027 C 73.251 32.582 69.024 31.433 65.994 28.562 Z" transform="matrix(0.674986, -0.737831, 0.737831, 0.674986, 10.000664, 73.816229)"/>
  <path style="fill: rgb(255, 255, 255); stroke: rgb(255, 255, 255); stroke-width: 3px;" d="M 105.704 219.684 C 105.704 219.684 97.29 219.094 94.116 219.611 C 90.942 220.128 85.628 221.16 84.299 224.113 C 82.97 227.066 84.078 232.453 87.547 233.708 C 91.016 234.963 103.49 233.855 104.523 233.634 C 105.556 233.413 111.018 232.97 111.018 232.97 C 111.018 232.97 112.863 229.575 111.608 225.073 C 110.353 220.571 105.63 219.906 105.704 219.684 Z" transform="matrix(0.674986, -0.737831, 0.737831, 0.674986, -135.556453, 145.962098)"/>
</svg>