<svg width="250" height="250" xmlns="http://www.w3.org/2000/svg">

 <g>
  <title>Layer 1</title>
  <path id="svg_2" stroke=" rgb(51, 51, 51)" fill=" rgb(51, 51, 51)" stroke-width=" 8px" d="m144.123,200.133c4.441,3.119 9.806,7.125 12.351,9.937c4.759,5.259 9.222,13.406 5.773,15.606c-3.031,1.93 -9.487,0.835 -20.36,-6.781c-1.782,-1.214 -3.686,-2.608 -5.719,-4.2c-13.791,-10.796 -15.757,-17.086 -18.084,-25.095c-2.328,-8.01 -12.799,-14.471 -12.799,-14.471c0,0 -0.881,20.574 4.216,29.281c5.099,8.708 16.493,22.638 20.566,24.842c4.074,2.204 13.676,3.694 11.506,9.126c-2.169,5.432 -10.983,6.036 -20.612,0.32c-9.628,-5.715 -24.871,-19.548 -29.701,-35.37c-4.829,-15.821 -6.929,-37.281 -6.929,-37.281c0,0 -10.166,-13.192 -13.393,-30.398c-3.229,-17.205 -3.648,-33.329 5.85,-52.579c9.498,-19.251 27.369,-31.797 32.022,-37.481c4.652,-5.686 7.829,-6.726 8.609,-10.585c0.779,-3.861 -3.722,-12.393 -3.078,-15.673c0.645,-3.282 0.292,-8.844 0.292,-8.844l15.86,6.329c0,0 18.236,-4.87 24.757,-3.303c6.521,1.565 11.213,2.216 13.998,5.028c2.583,2.61 3.926,9.548 3.601,10.088c0.885,-0.041 7.128,-0.344 12.995,-1.054c0.025,-0.045 0.05,-0.089 0.077,-0.133c3.737,-0.441 7.362,-1.046 9.407,-1.849c0.425,-0.195 0.758,-0.401 0.98,-0.618c0.312,-0.306 0.765,-0.566 1.318,-0.775c4.127,-1.946 15.847,-0.51 13.198,6.783c-1.743,4.797 -3.872,7.083 -6.924,8.31c-2.085,0.929 -4.612,1.305 -7.767,1.627c-7.451,0.761 -26.293,9.297 -26.293,9.297l3.43,5.485c0,0 6.794,-5.932 13.691,-8.772c3.992,-1.714 8.063,-2.45 10.911,-0.452c7.49,5.259 -0.716,17.692 -11,21.907c-0.373,0.162 -0.747,0.312 -1.125,0.451c-0.193,0.072 -0.382,0.145 -0.569,0.22c-1.832,0.798 -3.35,1.822 -4.642,2.989c-0.038,-0.03 -0.074,-0.059 -0.112,-0.09c-5.787,4.995 -7.093,12.789 -10.93,16.108c-4.803,4.153 -21.175,10.321 -21.175,10.321c0,0 -8.565,22.878 -8.354,23.064c0.212,0.187 8.725,12.268 10.095,18.379c1.371,6.111 2.234,14.925 2.234,14.925c0,0 0.959,-0.037 2.543,-0.085c0.015,-0.018 0.03,-0.037 0.044,-0.054c6.652,-0.208 25.641,-0.659 28.646,0.845c3.652,1.832 6.424,8.484 0.354,11.517c-3.309,1.652 -11.34,3.708 -18.799,5.288c-6.329,1.349 -12.296,2.365 -14.688,2.512c-5.177,0.32 -14.118,-2.338 -14.118,-2.338c0,0 3.58,7.018 2.801,10.878c-0.778,3.862 -2.936,11.405 -2.936,11.405c0,0 3.693,2.382 7.969,5.419c0.005,-0.002 0.009,-0.004 0.013,-0.006z"/>
  <path id="svg_11" stroke-width=" 3px" stroke=" rgb(255, 255, 255)" fill=" rgb(255, 255, 255)" d="m137.58389,205.96691c2.0493,-3.31148 4.40703,-5.20225 6.60699,-6.25904c4.4412,3.11888 9.80478,7.12395 12.34989,9.93554c4.75999,5.26053 9.22258,13.40704 5.77351,15.6068c-3.45034,2.19792 -11.33701,0.47425 -25.12667,-10.32348c-0.98104,-0.76894 -1.903,-1.51458 -2.76891,-2.23972c0.64131,-1.99336 1.63929,-4.25408 3.16518,-6.7201z"/>
  <path id="svg_12" stroke-width=" 3px" stroke=" rgb(255, 255, 255)" fill=" rgb(255, 255, 255)" d="m151.10685,163.61871c0.44846,-4.10466 2.00877,-7.17578 3.84121,-9.43132c6.65176,-0.20789 25.64175,-0.6587 28.64654,0.84581c3.65149,1.83098 6.42332,8.48358 0.35326,11.51586c-5.41474,2.70298 -23.46893,6.48855 -30.97726,7.50046c-1.3796,-2.4764 -2.35933,-5.89117 -1.86374,-10.43082z"/>
  <path id="svg_13" stroke-width=" 3px" stroke=" rgb(255, 255, 255)" fill=" rgb(255, 255, 255)" d="m176.11766,64.62889c-1.31041,-4.62866 -0.70245,-8.6914 0.27737,-11.6568c4.98637,-3.79711 15.77483,-10.96751 21.54405,-6.92002c7.66488,5.38009 -1.10459,18.27196 -11.71932,22.18734c-2.27711,0.8399 -4.1038,2.01262 -5.61703,3.37906c-1.82649,-1.44406 -3.53851,-3.64322 -4.48507,-6.98958zm8.05844,-31.69046c0.2448,-2.55323 0.94882,-4.47795 1.81253,-5.92258c4.87212,-0.5756 9.55614,-1.42784 10.7917,-2.63757c2.81855,-2.76146 16.99757,-1.76922 14.11108,6.17844c-2.88873,7.94758 -6.83547,9.0049 -14.28447,9.76533c-2.46892,0.25208 -6.18522,1.35718 -10.05289,2.72142c-1.24091,-1.54242 -2.8972,-4.68062 -2.37794,-10.10505z"/>
  <path id="svg_14" fill=" rgb(255, 255, 255)" stroke-width=" 2px" d="m165.03545,40.20705c3.04854,0.55565 5.16882,-3.01312 5.23767,-5.06404c0.06885,-2.05092 -2.08312,-3.5029 -2.06697,-3.56276c0.01668,-0.06179 2.43561,-2.2811 2.58213,-4.17848c0.14819,-1.89589 -1.08641,-4.03349 -3.50038,-4.95232c-2.41467,-0.92005 -10.18989,4.12816 -10.19048,7.26541c0.00249,3.14119 5.56478,10.05564 7.93802,10.49219z"/>
  <path id="svg_15" fill=" rgb(255, 255, 255)" d="m150.93424,34.6748c0.83141,0.3498 1.37646,3.01369 0.50212,3.7151c-0.57367,0.46225 -0.85995,-0.78784 -1.72137,-0.91664c-0.77241,-0.1155 -1.47945,-0.10696 -1.7962,-0.5244c-0.32516,-0.4288 2.03315,-2.68991 3.01545,-2.27407zm-3.14331,7.45007c-0.819,-0.34491 -1.42426,-2.77514 -0.74719,-2.89432c0.7946,-0.14104 0.83906,0.7382 1.81521,0.88416c0.62406,0.09331 1.44078,-0.12127 1.65572,0.40228c0.3331,0.81522 -1.80982,1.99428 -2.72373,1.60788z"/>
  <path id="svg_16" fill=" rgb(255, 255, 255)" d="m153.55697,22.76906c0.79803,0.1026 2.37275,-1.29914 1.9424,-2.12732c-0.28372,-0.5432 -1.05305,0.16518 -1.79318,-0.09938c-0.66198,-0.23663 -1.27078,-0.37248 -1.6827,-0.22131c-0.42437,0.15628 0.58848,2.3258 1.53348,2.44802zm0.32592,-6.28611c-0.7876,-0.10206 -2.22603,1.5215 -1.72795,1.87796c0.58188,0.41614 0.88237,-0.08283 1.74703,0.11262c0.70882,0.16204 1.06599,0.70176 1.43825,0.43872c0.57794,-0.4136 -0.57886,-2.31705 -1.45734,-2.4293z"/>
  <path id="svg_17" fill=" rgb(51, 51, 51)" d="m163.61157,33.43356c-1.24993,0.99671 -2.27555,1.03578 -2.57271,0.42524c-0.57608,-1.18507 -0.89548,-2.82601 -0.68884,-4.03286c0.20884,-1.20729 1.00055,-4.03674 2.39356,-4.14755c1.39231,-0.11204 3.50981,2.78385 3.29211,4.36163c-0.21769,1.57779 -0.28818,1.68927 -2.42412,3.39353z"/>
 </g>
</svg>