<?xml version="1.0" encoding="utf-8"?>
<svg viewBox="0 0 250 2500" xmlns="http://www.w3.org/2000/svg">
  <defs>
    <radialGradient gradientUnits="userSpaceOnUse" cx="177.18" cy="1002.458" r="67.419" id="gradient-0" gradientTransform="matrix(-0.000107, 0.549013, -1.935665, -0.000377, 2063.916504, 2363.178223)">
      <stop offset="0" style="stop-color: rgb(255, 255, 255);"/>
      <stop offset="1" style="stop-color: rgb(230, 230, 230);"/>
    </radialGradient>
    <radialGradient gradientUnits="userSpaceOnUse" cx="118.333" cy="1004.983" r="73.194" id="gradient-1" gradientTransform="matrix(0.028066, 0.88931, -4.234232, 0.133632, 4379.948242, 2210.195068)">
      <stop offset="0" style="stop-color: rgb(255, 255, 255);"/>
      <stop offset="1" style="stop-color: rgb(245, 245, 245);"/>
    </radialGradient>
    <linearGradient gradientUnits="userSpaceOnUse" x1="94.838" y1="995.32" x2="94.838" y2="1070.879" id="gradient-2" gradientTransform="matrix(0.018676, 1.674761, -2.573728, 0.0287, 2780.412842, 2237.764648)">
      <stop offset="0" style="stop-color: rgb(203, 86, 67);"/>
      <stop offset="1" style="stop-color: rgb(132, 37, 35);"/>
    </linearGradient>
    <linearGradient gradientUnits="userSpaceOnUse" x1="94.875" y1="954.623" x2="94.875" y2="1070.66" id="gradient-3" gradientTransform="matrix(-0.034752, -1.674505, 0.690278, -0.014325, -570.645081, 2514.137939)">
      <stop offset="0" style="stop-color: rgb(132, 41, 34);"/>
      <stop offset="1" style="stop-color: rgb(198, 81, 58);"/>
    </linearGradient>
    <linearGradient gradientUnits="userSpaceOnUse" x1="94.875" y1="954.623" x2="94.875" y2="1070.66" id="gradient-4" gradientTransform="matrix(0.174599, -1.66574, 0.452286, 0.04741, -336.391541, 2450.71875)" spreadMethod="reflect">
      <stop offset="0" style="stop-color: rgba(255, 255, 255, 0.59);"/>
      <stop offset="1" style="stop-color: rgba(198, 81, 58, 0);"/>
    </linearGradient>
    <linearGradient gradientUnits="userSpaceOnUse" x1="94.875" y1="954.623" x2="94.875" y2="1070.66" id="gradient-6" gradientTransform="matrix(-0.103232, 1.671682, -0.712304, -0.043989, 873.969055, 2232.746338)" spreadMethod="reflect">
      <stop offset="0" style="stop-color: rgba(194, 0, 0, 0);"/>
      <stop offset="1" style="stop-color: rgb(194, 6, 0);"/>
    </linearGradient>
    <linearGradient gradientUnits="userSpaceOnUse" x1="92.596" y1="995.698" x2="92.596" y2="1071.257" id="gradient-7" gradientTransform="matrix(0.03974, -1.674394, 1.822503, 0.043257, -1738.822144, 2532.601074)">
      <stop offset="0" style="stop-color: rgba(118, 0, 0, 0);"/>
      <stop offset="1" style="stop-color: rgb(121, 180, 183);"/>
    </linearGradient>
  </defs>
  <rect x="121.286" y="-57.851" width="5.324" height="2400" style="fill: rgb(42, 42, 42);"/>
  <path style="fill: url(#gradient-3);" d="M 85.439 2373.047 L 95.673 2310.007 C 95.673 2310.007 103.814 2303.96 122.656 2303.496 C 141.499 2303.028 154.523 2309.542 154.523 2309.542 L 162.434 2371.186 L 248.037 2469.816 C 248.037 2469.816 239.664 2495.87 128.938 2497.73 C 18.213 2499.59 2.859 2470.746 2.859 2470.746 L 85.439 2373.047 Z"/>
  <path style="fill: url(#gradient-4); fill-opacity: 0.33;" d="M 85.44 2372.738 L 95.674 2309.698 C 95.674 2309.698 103.815 2303.651 122.657 2303.187 C 141.5 2302.719 154.524 2309.233 154.524 2309.233 L 162.435 2370.877 L 248.038 2469.507 C 248.038 2469.507 239.665 2495.561 128.939 2497.421 C 18.214 2499.281 2.86 2470.437 2.86 2470.437 L 85.44 2372.738 Z"/>
  <path style="fill-opacity: 0.33; fill: url(#gradient-6);" d="M 85.853 2372.178 L 96.087 2309.138 C 96.087 2309.138 104.228 2303.091 123.07 2302.627 C 141.913 2302.159 154.937 2308.673 154.937 2308.673 L 162.848 2370.317 L 248.451 2468.947 C 248.451 2468.947 240.078 2495.001 129.352 2496.861 C 18.627 2498.721 3.273 2469.877 3.273 2469.877 L 85.853 2372.178 Z"/>
  <path style="fill: url(#gradient-2);" d="M 247.973 2470.182 C 247.973 2470.182 239.6 2496.237 128.874 2498.096 C 18.149 2499.958 2.795 2471.114 2.795 2471.114 L 83.627 2375.479 C 93.343 2373.816 99.771 2370.95 124.372 2370.701 C 149.134 2370.448 153.553 2371.759 163.369 2372.702 L 247.973 2470.182 Z"/>
  <path style="fill-opacity: 0.3; fill: url(#gradient-7);" d="M 248.316 2469.168 C 248.316 2469.168 239.943 2495.223 129.217 2497.082 C 18.492 2498.944 3.138 2470.1 3.138 2470.1 L 83.97 2374.465 C 93.686 2372.802 100.114 2369.936 124.715 2369.687 C 149.477 2369.434 153.896 2370.745 163.712 2371.688 L 248.316 2469.168 Z"/>
  <path style="fill: url(#gradient-1);" d="M 128.301 2457.621 C 199.778 2455.546 232.4 2462.472 247.281 2469.383 L 247.973 2470.182 C 247.973 2470.182 239.6 2496.237 128.874 2498.096 C 18.149 2499.958 2.795 2471.114 2.795 2471.114 L 3.625 2470.13 C 17.526 2465.677 50.431 2459.882 128.301 2457.621 Z"/>
  <path style="fill: url(#gradient-0);" d="M 128.874 2498.096 C 61.113 2499.236 29.07 2488.876 14.405 2480.663 C 27.976 2475.336 57.201 2469.143 120.041 2468.067 C 194.642 2466.79 226.886 2473.359 240.242 2478.029 C 228.529 2485.864 199.553 2496.909 128.874 2498.096 Z"/>
  <path style="mix-blend-mode: hue; fill: rgb(51, 51, 51);" d="M 85.534 2372.179 L 95.768 2309.139 C 95.768 2309.139 103.909 2303.092 122.751 2302.628 C 141.594 2302.16 154.618 2308.674 154.618 2308.674 L 162.529 2370.318 L 248.132 2468.948 C 248.132 2468.948 239.759 2495.002 129.033 2496.862 C 18.308 2498.722 2.954 2469.878 2.954 2469.878 L 85.534 2372.179 Z"/>
</svg>