<?xml version="1.0" encoding="utf-8"?>
<svg viewBox="0 0 250 2500" preserveAspectRatio="xMidYMin" xmlns="http://www.w3.org/2000/svg">
  <path d="M 211.736 422.155 C 211.736 432.476 175.852 440.843 131.584 440.843 C 87.317 440.843 51.433 432.476 51.433 422.155 C 51.433 411.833 87.317 403.466 131.584 403.466 C 175.852 403.466 211.736 411.833 211.736 422.155 Z M 131.308 409.141 C 91.018 409.141 58.355 414.844 58.355 421.877 C 58.355 428.911 91.018 434.613 131.308 434.613 C 171.598 434.613 204.261 428.911 204.261 421.877 C 204.261 414.844 171.598 409.141 131.308 409.141 Z" style="fill: rgb(89, 62, 55);"/>
  <path style="fill: rgb(89, 62, 55);" d="M 54.812 29.597 L 5.564 2471.739 C 5.564 2471.739 8.511 2473.015 11.862 2473.402 C 15.213 2473.789 18.563 2472.371 18.563 2472.371 L 68.586 30.848 L 54.812 29.597 Z"/>
  <path style="fill: rgb(89, 62, 55);" d="M 112.552 33.673 L 102.887 2444.241 C 102.887 2444.241 106.9 2446.099 109.663 2445.954 C 112.426 2445.809 114.897 2445.081 114.897 2445.081 L 123.422 32.471 L 112.552 33.673 Z"/>
  <path style="fill: rgb(89, 62, 55);" d="M 131.166 32.433 L 137.24 2494.105 C 137.24 2494.105 141.43 2495.963 144.699 2495.496 C 147.968 2495.029 150.77 2494.211 150.77 2494.211 L 142.072 31.532 L 131.166 32.433 Z"/>
  <path style="fill: rgb(89, 62, 55);" d="M 198.354 32.366 L 228.704 2465.838 C 228.704 2465.838 230.964 2466.816 234.812 2466.984 C 238.66 2467.152 241.169 2464.976 241.169 2464.976 L 211.106 29.623 L 198.354 32.366 Z"/>
  <path style="fill: rgb(95, 76, 70);" d="M 30.383 13.99 L 29.312 28.628 C 29.312 28.628 36.81 40.589 124.286 40.411 C 211.762 40.233 223.188 31.128 223.188 31.128 L 221.938 13.454 C 221.938 13.454 207.835 3.814 126.071 3.992 C 44.307 4.17 29.847 13.99 30.383 13.99 Z"/>
  <ellipse style="fill: rgb(58, 47, 43);" cx="126.427" cy="14.409" rx="94.987" ry="10.171"/>
  <path d="M 221.769 1214.033 C 221.769 1226.156 179.62 1235.984 127.623 1235.984 C 75.627 1235.984 33.478 1226.156 33.478 1214.033 C 33.478 1201.909 75.627 1192.081 127.623 1192.081 C 179.62 1192.081 221.769 1201.909 221.769 1214.033 Z M 127.299 1198.747 C 79.974 1198.747 41.609 1205.446 41.609 1213.707 C 41.609 1221.969 79.974 1228.666 127.299 1228.666 C 174.623 1228.666 212.989 1221.969 212.989 1213.707 C 212.989 1205.446 174.623 1198.747 127.299 1198.747 Z" style="fill: rgb(89, 62, 55);"/>
</svg>