<?xml version="1.0" encoding="utf-8"?>
<svg viewBox="0 0 250 2500" preserveAspectRatio="xMidYMin" xmlns="http://www.w3.org/2000/svg">
  <path d="M 211.736 422.155 C 211.736 432.476 175.852 440.843 131.584 440.843 C 87.317 440.843 51.433 432.476 51.433 422.155 C 51.433 411.833 87.317 403.466 131.584 403.466 C 175.852 403.466 211.736 411.833 211.736 422.155 Z M 131.308 409.141 C 91.018 409.141 58.355 414.844 58.355 421.877 C 58.355 428.911 91.018 434.613 131.308 434.613 C 171.598 434.613 204.261 428.911 204.261 421.877 C 204.261 414.844 171.598 409.141 131.308 409.141 Z" style="fill: rgb(89, 62, 55);"/>
  <path style="fill: rgb(89, 62, 55);" d="M 54.812 29.597 L 5.564 2471.739 C 5.564 2471.739 8.511 2473.015 11.862 2473.402 C 15.213 2473.789 18.563 2472.371 18.563 2472.371 L 68.586 30.848 L 54.812 29.597 Z"/>
  <path style="fill: rgb(89, 62, 55);" d="M 112.552 33.673 L 102.887 2444.241 C 102.887 2444.241 106.9 2446.099 109.663 2445.954 C 112.426 2445.809 114.897 2445.081 114.897 2445.081 L 123.422 32.471 L 112.552 33.673 Z"/>
  <path style="fill: rgb(89, 62, 55);" d="M 131.166 32.433 L 137.24 2494.105 C 137.24 2494.105 141.43 2495.963 144.699 2495.496 C 147.968 2495.029 150.77 2494.211 150.77 2494.211 L 142.072 31.532 L 131.166 32.433 Z"/>
  <path style="fill: rgb(89, 62, 55);" d="M 198.354 32.366 L 228.704 2465.838 C 228.704 2465.838 230.964 2466.816 234.812 2466.984 C 238.66 2467.152 241.169 2464.976 241.169 2464.976 L 211.106 29.623 L 198.354 32.366 Z"/>
  <path style="fill: rgb(95, 76, 70);" d="M 30.383 13.99 L 29.312 28.628 C 29.312 28.628 36.81 40.589 124.286 40.411 C 211.762 40.233 223.188 31.128 223.188 31.128 L 221.938 13.454 C 221.938 13.454 207.835 3.814 126.071 3.992 C 44.307 4.17 29.847 13.99 30.383 13.99 Z"/>
  <ellipse style="fill: rgb(58, 47, 43);" cx="126.427" cy="14.409" rx="94.987" ry="10.171"/>
  <path d="M 221.769 1214.033 C 221.769 1226.156 179.62 1235.984 127.623 1235.984 C 75.627 1235.984 33.478 1226.156 33.478 1214.033 C 33.478 1201.909 75.627 1192.081 127.623 1192.081 C 179.62 1192.081 221.769 1201.909 221.769 1214.033 Z M 127.299 1198.747 C 79.974 1198.747 41.609 1205.446 41.609 1213.707 C 41.609 1221.969 79.974 1228.666 127.299 1228.666 C 174.623 1228.666 212.989 1221.969 212.989 1213.707 C 212.989 1205.446 174.623 1198.747 127.299 1198.747 Z" style="fill: rgb(89, 62, 55);"/>
  <path d="M 143.119 440.513 L 145.775 1192.383 C 175.459 1193.766 200.105 1198.404 212.578 1204.633 L 202.921 430.377 C 191.471 435.717 169.376 439.6 143.119 440.513 Z M 150.372 2494.087 C 150.372 2494.087 147.57 2494.905 144.301 2495.372 C 141.032 2495.839 136.842 2493.981 136.842 2493.981 L 133.738 1235.808 C 131.586 1235.843 129.414 1235.86 127.225 1235.86 C 124.376 1235.86 121.556 1235.83 118.771 1235.773 L 114.499 2444.957 C 114.499 2444.957 112.028 2445.685 109.265 2445.83 C 106.502 2445.975 102.489 2444.117 102.489 2444.117 L 107.335 1235.369 C 79.658 1233.981 56.501 1229.756 43.739 1224.064 L 18.165 2472.247 C 18.165 2472.247 14.815 2473.665 11.464 2473.278 C 8.113 2472.891 5.166 2471.615 5.166 2471.615 L 54.273 36.469 C 31.749 33.027 28.914 28.504 28.914 28.504 L 29.985 13.866 C 29.872 13.866 30.424 13.431 32.127 12.742 C 35.609 10.292 47.256 8.129 64.003 6.581 C 78.268 5.08 98.16 3.928 125.673 3.868 C 165.669 3.781 189.474 6.043 203.359 8.377 C 210.684 9.474 216.023 10.734 218.812 12.096 C 220.832 12.846 221.54 13.33 221.54 13.33 L 222.79 31.004 C 222.79 31.004 220.596 32.752 210.773 34.731 L 240.771 2464.852 C 240.771 2464.852 238.262 2467.028 234.414 2466.86 C 230.566 2466.692 228.306 2465.714 228.306 2465.714 L 212.808 1223.069 C 200.43 1229.345 175.727 1234.027 145.927 1235.427 L 150.372 2494.087 Z M 131.776 440.719 C 131.579 440.719 131.383 440.719 131.186 440.719 C 127.936 440.719 124.731 440.674 121.581 440.586 L 118.926 1192.041 C 121.66 1191.985 124.428 1191.957 127.225 1191.957 C 129.378 1191.957 131.513 1191.974 133.63 1192.007 L 131.776 440.719 Z M 110.524 440.092 C 88.534 438.728 70.261 435.239 59.995 430.625 L 44.158 1203.568 C 57.032 1197.957 80.055 1193.803 107.508 1192.439 L 110.524 440.092 Z M 60.35 413.278 C 70.702 408.732 88.866 405.302 110.669 403.96 L 112.127 40.235 C 93.66 40.026 79.258 39.233 68.036 38.15 L 60.35 413.278 Z M 121.713 403.471 C 124.82 403.386 127.981 403.342 131.186 403.342 C 131.352 403.342 131.518 403.342 131.684 403.342 L 130.788 40.254 C 128.542 40.271 126.243 40.282 123.888 40.287 C 123.59 40.288 123.292 40.288 122.996 40.288 L 121.713 403.471 Z M 142.988 403.543 C 169.143 404.443 191.184 408.289 202.712 413.588 L 198.012 36.756 C 185.855 38.286 167.945 39.645 141.705 40.115 L 142.988 403.543 Z M 130.91 409.017 C 127.788 409.017 124.712 409.051 121.693 409.118 L 121.603 434.386 C 124.651 434.454 127.757 434.489 130.91 434.489 C 131.194 434.489 131.477 434.489 131.76 434.488 L 131.698 409.018 C 131.435 409.017 131.173 409.017 130.91 409.017 Z M 143.008 409.191 L 143.097 434.312 C 173.605 433.417 197.688 429.215 202.841 423.89 L 202.787 419.561 C 197.516 414.258 173.453 410.079 143.008 409.191 Z M 60.241 418.579 L 60.113 424.839 C 66.382 429.236 85.741 432.73 110.548 433.986 L 110.647 409.515 C 85.959 410.759 66.651 414.218 60.241 418.579 Z M 126.901 1198.623 C 124.204 1198.623 121.536 1198.645 118.902 1198.687 L 118.797 1228.476 C 121.465 1228.52 124.168 1228.542 126.901 1228.542 C 129.196 1228.542 131.47 1228.526 133.72 1228.495 L 133.646 1198.669 C 131.42 1198.638 129.171 1198.623 126.901 1198.623 Z M 212.591 1213.583 C 212.591 1206.455 184.03 1200.491 145.798 1198.988 L 145.901 1228.173 C 184.082 1226.664 212.591 1220.705 212.591 1213.583 Z M 107.364 1228.151 L 107.481 1199.009 C 76.577 1200.259 52.08 1204.429 44.032 1209.762 L 43.877 1217.3 C 51.752 1222.677 76.315 1226.888 107.364 1228.151 Z" style="fill: rgb(240, 89, 69);"/>
</svg>